<?xml version="1.0" encoding="utf-8"?>
<!-- Generator: Adobe Illustrator 24.3.0, SVG Export Plug-In . SVG Version: 6.00 Build 0)  -->
<svg version="1.1" id="Layer_1" xmlns="http://www.w3.org/2000/svg" xmlns:xlink="http://www.w3.org/1999/xlink" x="0px" y="0px"
	 viewBox="0 0 40 70" style="enable-background:new 0 0 40 70;" xml:space="preserve">
<style type="text/css">
	.st0{clip-path:url(#SVGID_2_);fill-rule:evenodd;clip-rule:evenodd;fill:#E6E6E6;}
	.st1{clip-path:url(#SVGID_2_);fill:#06326E;}
	.st2{clip-path:url(#SVGID_2_);fill:#141414;}
	.st3{clip-path:url(#SVGID_2_);fill-rule:evenodd;clip-rule:evenodd;fill:#06326E;}
	.st4{clip-path:url(#SVGID_2_);fill:#FFFFFF;}
	.st5{clip-path:url(#SVGID_2_);fill-rule:evenodd;clip-rule:evenodd;fill:#141414;}
	.st6{clip-path:url(#SVGID_4_);fill:#06326E;}
	.st7{fill-rule:evenodd;clip-rule:evenodd;fill:#1B3B68;}
	.st8{fill-rule:evenodd;clip-rule:evenodd;fill:#FEFEFE;}
	.st9{fill:#1B3B68;}
	.st10{fill:#2B2A29;}
	.st11{fill:#FFFFFF;}
</style>
<g>
	<path class="st9" d="M31.09,36.19c3.59,3.42,5.58,8.19,5.46,13.15c0,7.32-5.67,12.41-14.34,13.14l0-4.43
		c5.13-0.53,9.93-3.02,9.93-8.72c0-5.58-2.42-8.39-5.19-11.03c1.32-0.46,2.57-1.08,3.74-1.84C30.83,36.38,30.96,36.29,31.09,36.19"
		/>
	<path class="st9" d="M21.1,3h2.21h1.1v11.29h0l0,11.88c-0.02,1.14,0.22,2.27,0.71,3.31c-1.09,0.56-2.28,0.91-3.51,1.02
		c-0.18,0.02-0.49,0.04-0.83,0.07c-0.53-1.4-0.79-2.89-0.78-4.39V4.1l0-0.03V3H21.1z"/>
	<path class="st9" d="M26.62,8.33c6.14,1.83,9.93,6.33,9.93,12.33c0,3.97-1.67,10.42-7.07,13.97c-2.78,1.75-6.01,2.65-9.29,2.57
		c-2.25-0.07-4.48,0.43-6.49,1.45c-1.83,0.99-3.31,2.52-4.22,4.39c-0.97,1.97-1.52,4.12-1.62,6.32c0,3.97,2.35,6.39,5.52,7.67v4.65
		c-6.14-1.83-9.93-6.33-9.93-12.33c0-3.97,1.67-10.42,7.07-13.97c5.46-3.63,9.97-1.77,14.17-3.3c0.59-0.21,1.16-0.47,1.71-0.77
		c1.78-0.99,3.22-2.51,4.12-4.34c0.97-1.97,1.52-4.12,1.62-6.32c0-3.97-2.35-6.39-5.52-7.67V8.33z"/>
	<path class="st9" d="M17.79,7.51v4.43c-5.13,0.53-9.93,3.02-9.93,8.72c0,5.58,2.42,8.39,5.19,11.03c-1.32,0.46-2.57,1.08-3.74,1.84
		c-0.13,0.09-0.27,0.18-0.4,0.28c-3.59-3.42-5.58-8.2-5.46-13.15C3.45,13.34,9.12,8.24,17.79,7.51"/>
	<path class="st9" d="M19.22,39.45h0.01c0.52,1.4,0.79,2.89,0.77,4.38v18.19v3.88V67h-1.1h-2.21h-1.1v-1.1V43.83
		c0.02-1.14-0.22-2.27-0.71-3.31c1.1-0.57,2.3-0.91,3.53-1.02C18.59,39.48,18.9,39.46,19.22,39.45"/>
</g>
</svg>
