<?xml version="1.0" encoding="utf-8"?>
<!-- Generator: Adobe Illustrator 24.3.0, SVG Export Plug-In . SVG Version: 6.00 Build 0)  -->
<svg version="1.1" id="Layer_1" xmlns="http://www.w3.org/2000/svg" xmlns:xlink="http://www.w3.org/1999/xlink" x="0px" y="0px"
	 viewBox="0 0 178 68.5" style="enable-background:new 0 0 178 68.5;" xml:space="preserve">
<style type="text/css">
	.st0{fill-rule:evenodd;clip-rule:evenodd;fill:#E6E6E6;}
	.st1{fill:#06326E;}
	.st2{fill:#141414;}
	.st3{fill-rule:evenodd;clip-rule:evenodd;fill:#06326E;}
	.st4{fill:#FFFFFF;}
	.st5{fill-rule:evenodd;clip-rule:evenodd;fill:#141414;}
	.st6{fill:none;}
	.st7{clip-path:url(#SVGID_2_);fill:#06326E;}
	.st8{fill-rule:evenodd;clip-rule:evenodd;fill:#1B3B68;}
	.st9{fill-rule:evenodd;clip-rule:evenodd;fill:#FEFEFE;}
	.st10{fill:#1B3B68;}
	.st11{fill:#2B2A29;}
</style>
<rect x="860.84" y="-58.51" class="st0" width="178" height="68.5"/>
<path class="st1" d="M892.41-91.93c2.5,2.38,3.89,5.71,3.81,9.16c0,5.1-3.95,8.65-9.99,9.16l0-3.08c3.57-0.37,6.92-2.11,6.92-6.07
	c0-3.89-1.68-5.84-3.61-7.69c0.92-0.32,1.79-0.75,2.61-1.28C892.22-91.8,892.32-91.86,892.41-91.93"/>
<path class="st1" d="M885.45-115.06h1.54h0.77v7.87h0l0,8.28c-0.01,0.8,0.16,1.58,0.49,2.31c-0.76,0.39-1.59,0.63-2.44,0.71
	c-0.12,0.02-0.34,0.03-0.58,0.05c-0.37-0.98-0.55-2.02-0.55-3.06v-15.38l0-0.02v-0.75H885.45z"/>
<path class="st1" d="M889.29-111.34c4.28,1.28,6.92,4.41,6.92,8.59c0,2.77-1.16,7.26-4.93,9.73c-1.93,1.22-4.19,1.84-6.47,1.79
	c-1.57-0.05-3.12,0.3-4.52,1.01c-1.28,0.69-2.3,1.76-2.94,3.06c-0.68,1.37-1.06,2.87-1.13,4.41c0,2.77,1.64,4.45,3.84,5.34v3.24
	c-4.27-1.28-6.92-4.41-6.92-8.59c0-2.77,1.16-7.26,4.93-9.73c3.81-2.53,6.95-1.23,9.87-2.3c0.41-0.15,0.81-0.33,1.19-0.54
	c1.24-0.69,2.24-1.75,2.87-3.02c0.68-1.37,1.06-2.87,1.13-4.41c0-2.77-1.64-4.45-3.84-5.34V-111.34z"/>
<path class="st1" d="M883.14-111.91l0,3.08c-3.57,0.37-6.92,2.11-6.92,6.07c0,3.89,1.68,5.84,3.61,7.69
	c-0.92,0.32-1.79,0.75-2.61,1.28c-0.09,0.06-0.19,0.12-0.28,0.19c-2.5-2.38-3.89-5.71-3.81-9.16
	C873.15-107.85,877.1-111.4,883.14-111.91"/>
<path class="st1" d="M884.14-89.66L884.14-89.66c0.37,0.98,0.56,2.01,0.55,3.05v12.67v2.71v0.77h-0.77h-1.54h-0.77v-0.77l0-15.38
	c0.01-0.8-0.16-1.58-0.49-2.31c0.77-0.4,1.6-0.64,2.46-0.71C883.7-89.64,883.91-89.65,884.14-89.66"/>
<path class="st2" d="M1019.25-86.65c0.99,0.78,2.59,1.34,4.55,1.34c2.81,0,4.88-1.49,4.88-3.96c0-2-0.99-3.16-3.21-4.01l-2.29-0.9
	c-1.34-0.52-2.17-1.04-2.17-2.26c0-1.44,1.25-2.15,2.85-2.15c1.67,0,2.97,0.59,4.13,1.51v-1.96c-1.08-0.75-2.57-1.18-4.15-1.18
	c-2.5,0-4.64,1.3-4.64,3.8c0,2.29,1.56,3.25,3.25,3.91l2.12,0.83c1.53,0.64,2.31,1.16,2.31,2.43c0,1.49-1.23,2.29-3.09,2.29
	c-1.7,0-3.21-0.54-4.55-1.7V-86.65z M1007.86-86.65c0.99,0.78,2.59,1.34,4.55,1.34c2.81,0,4.88-1.49,4.88-3.96
	c0-2-0.99-3.16-3.21-4.01l-2.29-0.9c-1.34-0.52-2.17-1.04-2.17-2.26c0-1.44,1.25-2.15,2.85-2.15c1.67,0,2.97,0.59,4.13,1.51v-1.96
	c-1.08-0.75-2.57-1.18-4.15-1.18c-2.5,0-4.64,1.3-4.64,3.8c0,2.29,1.56,3.25,3.25,3.91l2.12,0.83c1.53,0.64,2.31,1.16,2.31,2.43
	c0,1.49-1.23,2.29-3.09,2.29c-1.7,0-3.21-0.54-4.55-1.7V-86.65z M1005.17-100h-1.86v14.48h1.86V-100z M995.5-85.52l5.59-14.48h-1.89
	l-4.55,12.03L990.13-100h-1.96l5.59,14.48H995.5z M978.41-98.37h3.4c1.91,0,3.02,0.97,3.02,2.57c0,1.6-1.11,2.57-3.02,2.57h-3.4
	V-98.37z M980.98-91.65l4.15,6.13h2.12l-4.29-6.2c2.29-0.33,3.7-1.67,3.7-4.08c0-2.74-1.89-4.2-4.81-4.2h-5.31v14.48h1.86v-6.13
	H980.98z M964.4-100v14.48h9.22v-1.67h-7.38v-4.93h6.7v-1.65h-6.7v-4.57h7.38V-100H964.4z M952.31-86.65
	c0.99,0.78,2.59,1.34,4.55,1.34c2.81,0,4.88-1.49,4.88-3.96c0-2-0.99-3.16-3.21-4.01l-2.29-0.9c-1.34-0.52-2.17-1.04-2.17-2.26
	c0-1.44,1.25-2.15,2.85-2.15c1.67,0,2.97,0.59,4.13,1.51v-1.96c-1.08-0.75-2.57-1.18-4.15-1.18c-2.5,0-4.64,1.3-4.64,3.8
	c0,2.29,1.56,3.25,3.25,3.91l2.12,0.83c1.53,0.64,2.31,1.16,2.31,2.43c0,1.49-1.23,2.29-3.09,2.29c-1.7,0-3.21-0.54-4.55-1.7V-86.65
	z M945.82-100h-4.1l-2.69,4.13l-2.62-4.13h-4.22l4.65,7.07l-4.88,7.4h4.13l2.88-4.46l2.88,4.46h4.22l-4.88-7.4L945.82-100z
	 M928.35-95c0,1.08-0.61,1.82-1.98,1.82h-2.19v-3.63h2.19C927.74-96.81,928.35-96.11,928.35-95z M926.77-90.02
	c3.14,0,5.26-1.77,5.26-4.98c0-3.23-2.12-5-5.26-5h-6.34v14.48h3.75v-4.5H926.77z M908.4-85.52h10.28v-3.28h-6.48V-100h-3.8V-85.52z
	"/>
<path class="st1" d="M892.41-23.43c2.5,2.38,3.89,5.71,3.81,9.16c0,5.1-3.95,8.65-9.99,9.16l0-3.08c3.57-0.37,6.92-2.11,6.92-6.07
	c0-3.89-1.68-5.84-3.61-7.69c0.92-0.32,1.79-0.75,2.61-1.28C892.22-23.3,892.32-23.36,892.41-23.43"/>
<path class="st1" d="M885.45-46.56h1.54h0.77v7.87h0l0,8.28c-0.01,0.8,0.16,1.58,0.49,2.31c-0.76,0.39-1.59,0.63-2.44,0.71
	c-0.12,0.02-0.34,0.03-0.58,0.05c-0.37-0.98-0.55-2.02-0.55-3.06v-15.38l0-0.02v-0.75H885.45z"/>
<path class="st1" d="M889.29-42.84c4.28,1.28,6.92,4.41,6.92,8.59c0,2.77-1.16,7.26-4.93,9.73c-1.93,1.22-4.19,1.84-6.47,1.79
	c-1.57-0.05-3.12,0.3-4.52,1.01c-1.28,0.69-2.3,1.76-2.94,3.06c-0.68,1.37-1.06,2.87-1.13,4.41c0,2.77,1.64,4.45,3.84,5.34v3.24
	c-4.27-1.28-6.92-4.41-6.92-8.59c0-2.77,1.16-7.26,4.93-9.73c3.81-2.53,6.95-1.23,9.87-2.3c0.41-0.15,0.81-0.33,1.19-0.54
	c1.24-0.69,2.24-1.75,2.87-3.02c0.68-1.37,1.06-2.87,1.13-4.41c0-2.77-1.64-4.45-3.84-5.34V-42.84z"/>
<path class="st1" d="M883.14-43.41l0,3.08c-3.57,0.37-6.92,2.11-6.92,6.07c0,3.89,1.68,5.84,3.61,7.69
	c-0.92,0.32-1.79,0.75-2.61,1.28c-0.09,0.06-0.19,0.12-0.28,0.19c-2.5-2.38-3.89-5.71-3.81-9.16
	C873.15-39.35,877.1-42.9,883.14-43.41"/>
<path class="st1" d="M884.14-21.16L884.14-21.16c0.37,0.98,0.56,2.01,0.55,3.05v12.67v2.71v0.77h-0.77h-1.54h-0.77v-0.77l0-15.38
	c0.01-0.8-0.16-1.58-0.49-2.31c0.77-0.4,1.6-0.64,2.46-0.71C883.7-21.14,883.91-21.15,884.14-21.16"/>
<path class="st2" d="M1019.25-18.15c0.99,0.78,2.59,1.34,4.55,1.34c2.81,0,4.88-1.49,4.88-3.96c0-2-0.99-3.16-3.21-4.01l-2.29-0.9
	c-1.34-0.52-2.17-1.04-2.17-2.26c0-1.44,1.25-2.15,2.85-2.15c1.67,0,2.97,0.59,4.13,1.51v-1.96c-1.08-0.75-2.57-1.18-4.15-1.18
	c-2.5,0-4.64,1.3-4.64,3.8c0,2.29,1.56,3.25,3.25,3.91l2.12,0.83c1.53,0.64,2.31,1.16,2.31,2.43c0,1.49-1.23,2.29-3.09,2.29
	c-1.7,0-3.21-0.54-4.55-1.7V-18.15z M1007.86-18.15c0.99,0.78,2.59,1.34,4.55,1.34c2.81,0,4.88-1.49,4.88-3.96
	c0-2-0.99-3.16-3.21-4.01l-2.29-0.9c-1.34-0.52-2.17-1.04-2.17-2.26c0-1.44,1.25-2.15,2.85-2.15c1.67,0,2.97,0.59,4.13,1.51v-1.96
	c-1.08-0.75-2.57-1.18-4.15-1.18c-2.5,0-4.64,1.3-4.64,3.8c0,2.29,1.56,3.25,3.25,3.91l2.12,0.83c1.53,0.64,2.31,1.16,2.31,2.43
	c0,1.49-1.23,2.29-3.09,2.29c-1.7,0-3.21-0.54-4.55-1.7V-18.15z M1005.17-31.5h-1.86v14.48h1.86V-31.5z M995.5-17.02l5.59-14.48
	h-1.89l-4.55,12.03l-4.53-12.03h-1.96l5.59,14.48H995.5z M978.41-29.87h3.4c1.91,0,3.02,0.97,3.02,2.57c0,1.6-1.11,2.57-3.02,2.57
	h-3.4V-29.87z M980.98-23.15l4.15,6.13h2.12l-4.29-6.2c2.29-0.33,3.7-1.67,3.7-4.08c0-2.74-1.89-4.2-4.81-4.2h-5.31v14.48h1.86
	v-6.13H980.98z M964.4-31.5v14.48h9.22v-1.67h-7.38v-4.93h6.7v-1.65h-6.7v-4.57h7.38v-1.65H964.4z M952.31-18.15
	c0.99,0.78,2.59,1.34,4.55,1.34c2.81,0,4.88-1.49,4.88-3.96c0-2-0.99-3.16-3.21-4.01l-2.29-0.9c-1.34-0.52-2.17-1.04-2.17-2.26
	c0-1.44,1.25-2.15,2.85-2.15c1.67,0,2.97,0.59,4.13,1.51v-1.96c-1.08-0.75-2.57-1.18-4.15-1.18c-2.5,0-4.64,1.3-4.64,3.8
	c0,2.29,1.56,3.25,3.25,3.91l2.12,0.83c1.53,0.64,2.31,1.16,2.31,2.43c0,1.49-1.23,2.29-3.09,2.29c-1.7,0-3.21-0.54-4.55-1.7V-18.15
	z M945.82-31.5h-4.1l-2.69,4.13l-2.62-4.13h-4.22l4.65,7.07l-4.88,7.4h4.13l2.88-4.46l2.88,4.46h4.22l-4.88-7.4L945.82-31.5z
	 M928.35-26.5c0,1.08-0.61,1.82-1.98,1.82h-2.19v-3.63h2.19C927.74-28.31,928.35-27.61,928.35-26.5z M926.77-21.52
	c3.14,0,5.26-1.77,5.26-4.98c0-3.23-2.12-5-5.26-5h-6.34v14.48h3.75v-4.5H926.77z M908.4-17.02h10.28v-3.28h-6.48v-11.2h-3.8V-17.02
	z"/>
<rect class="st3" width="178" height="68.5"/>
<path class="st4" d="M31.57,35.08c2.5,2.38,3.89,5.71,3.81,9.16c0,5.1-3.95,8.65-9.99,9.16l0-3.08c3.57-0.37,6.92-2.11,6.92-6.07
	c0-3.89-1.68-5.84-3.61-7.69c0.92-0.32,1.79-0.75,2.61-1.28C31.38,35.21,31.47,35.15,31.57,35.08"/>
<path class="st4" d="M24.61,11.95h1.54h0.77v7.87h0l0,8.28c-0.01,0.8,0.16,1.58,0.49,2.31c-0.76,0.39-1.59,0.63-2.44,0.71
	c-0.12,0.02-0.34,0.03-0.58,0.05c-0.37-0.98-0.55-2.02-0.55-3.06V12.72l0-0.02v-0.75H24.61z"/>
<path class="st4" d="M28.45,15.67c4.28,1.28,6.92,4.41,6.92,8.59c0,2.77-1.16,7.26-4.93,9.73c-1.93,1.22-4.19,1.84-6.47,1.79
	c-1.57-0.05-3.12,0.3-4.52,1.01c-1.28,0.69-2.3,1.76-2.94,3.06c-0.68,1.37-1.06,2.87-1.13,4.41c0,2.77,1.64,4.45,3.84,5.34v3.24
	c-4.27-1.28-6.92-4.41-6.92-8.59c0-2.77,1.16-7.26,4.93-9.73c3.81-2.53,6.95-1.23,9.87-2.3c0.41-0.15,0.81-0.33,1.19-0.54
	c1.24-0.69,2.24-1.75,2.87-3.02c0.68-1.37,1.06-2.87,1.13-4.41c0-2.77-1.64-4.45-3.84-5.34V15.67z"/>
<path class="st4" d="M22.3,15.1l0,3.08c-3.57,0.37-6.92,2.11-6.92,6.07c0,3.89,1.68,5.84,3.61,7.69c-0.92,0.32-1.79,0.75-2.61,1.28
	c-0.09,0.06-0.19,0.12-0.28,0.19c-2.5-2.38-3.89-5.71-3.81-9.16C12.31,19.16,16.26,15.61,22.3,15.1"/>
<path class="st4" d="M23.29,37.35L23.29,37.35c0.37,0.98,0.56,2.01,0.55,3.05v12.67v2.71v0.77h-0.77h-1.54h-0.77v-0.77l0-15.38
	c0.01-0.8-0.16-1.58-0.49-2.31c0.77-0.4,1.6-0.64,2.46-0.71C22.86,37.37,23.07,37.36,23.29,37.35"/>
<path class="st4" d="M158.41,40.36c0.99,0.78,2.59,1.34,4.55,1.34c2.81,0,4.88-1.49,4.88-3.96c0-2-0.99-3.16-3.21-4.01l-2.29-0.9
	c-1.34-0.52-2.17-1.04-2.17-2.26c0-1.44,1.25-2.15,2.85-2.15c1.67,0,2.97,0.59,4.13,1.51v-1.96c-1.08-0.75-2.57-1.18-4.15-1.18
	c-2.5,0-4.64,1.3-4.64,3.8c0,2.29,1.56,3.25,3.25,3.91l2.12,0.83c1.53,0.64,2.31,1.16,2.31,2.43c0,1.49-1.23,2.29-3.09,2.29
	c-1.7,0-3.21-0.54-4.55-1.7V40.36z M147.02,40.36c0.99,0.78,2.59,1.34,4.55,1.34c2.81,0,4.88-1.49,4.88-3.96
	c0-2-0.99-3.16-3.21-4.01l-2.29-0.9c-1.34-0.52-2.17-1.04-2.17-2.26c0-1.44,1.25-2.15,2.85-2.15c1.67,0,2.97,0.59,4.13,1.51v-1.96
	c-1.08-0.75-2.57-1.18-4.15-1.18c-2.5,0-4.64,1.3-4.64,3.8c0,2.29,1.56,3.25,3.25,3.91l2.12,0.83c1.53,0.64,2.31,1.16,2.31,2.43
	c0,1.49-1.23,2.29-3.09,2.29c-1.7,0-3.21-0.54-4.55-1.7V40.36z M144.33,27.01h-1.86v14.48h1.86V27.01z M134.66,41.49l5.59-14.48
	h-1.89l-4.55,12.03l-4.53-12.03h-1.96l5.59,14.48H134.66z M117.57,28.64h3.4c1.91,0,3.02,0.97,3.02,2.57c0,1.6-1.11,2.57-3.02,2.57
	h-3.4V28.64z M120.14,35.36l4.15,6.13h2.12l-4.29-6.2c2.29-0.33,3.7-1.67,3.7-4.08c0-2.74-1.89-4.2-4.81-4.2h-5.31v14.48h1.86v-6.13
	H120.14z M103.56,27.01v14.48h9.22v-1.67h-7.38v-4.93h6.7v-1.65h-6.7v-4.57h7.38v-1.65H103.56z M91.47,40.36
	c0.99,0.78,2.59,1.34,4.55,1.34c2.81,0,4.88-1.49,4.88-3.96c0-2-0.99-3.16-3.21-4.01l-2.29-0.9c-1.34-0.52-2.17-1.04-2.17-2.26
	c0-1.44,1.25-2.15,2.85-2.15c1.67,0,2.97,0.59,4.13,1.51v-1.96c-1.08-0.75-2.57-1.18-4.15-1.18c-2.5,0-4.64,1.3-4.64,3.8
	c0,2.29,1.56,3.25,3.25,3.91l2.12,0.83c1.53,0.64,2.31,1.16,2.31,2.43c0,1.49-1.23,2.29-3.09,2.29c-1.7,0-3.21-0.54-4.55-1.7V40.36z
	 M84.98,27.01h-4.1l-2.69,4.13l-2.62-4.13h-4.22L76,34.08l-4.88,7.4h4.13l2.88-4.46L81,41.49h4.22l-4.88-7.4L84.98,27.01z
	 M67.51,32.01c0,1.08-0.61,1.82-1.98,1.82h-2.19v-3.63h2.19C66.9,30.19,67.51,30.9,67.51,32.01z M65.93,36.99
	c3.14,0,5.26-1.77,5.26-4.98c0-3.23-2.12-5-5.26-5h-6.34v14.48h3.75v-4.5H65.93z M47.56,41.49h10.28v-3.28h-6.48v-11.2h-3.8V41.49z"
	/>
<rect x="860.84" y="78.49" class="st5" width="178" height="68.5"/>
<path class="st4" d="M892.41,113.57c2.5,2.38,3.89,5.71,3.81,9.16c0,5.1-3.95,8.65-9.99,9.16l0-3.08c3.57-0.37,6.92-2.11,6.92-6.07
	c0-3.89-1.68-5.84-3.61-7.69c0.92-0.32,1.79-0.75,2.61-1.28C892.22,113.7,892.32,113.64,892.41,113.57"/>
<path class="st4" d="M885.45,90.44h1.54h0.77v7.87h0l0,8.28c-0.01,0.8,0.16,1.58,0.49,2.31c-0.76,0.39-1.59,0.63-2.44,0.71
	c-0.12,0.02-0.34,0.03-0.58,0.05c-0.37-0.98-0.55-2.02-0.55-3.06V91.21l0-0.02v-0.75H885.45z"/>
<path class="st4" d="M889.29,94.16c4.28,1.28,6.92,4.41,6.92,8.59c0,2.77-1.16,7.26-4.93,9.73c-1.93,1.22-4.19,1.84-6.47,1.79
	c-1.57-0.05-3.12,0.3-4.52,1.01c-1.28,0.69-2.3,1.76-2.94,3.06c-0.68,1.37-1.06,2.87-1.13,4.41c0,2.77,1.64,4.45,3.84,5.34v3.24
	c-4.27-1.28-6.92-4.41-6.92-8.59c0-2.77,1.16-7.26,4.93-9.73c3.81-2.53,6.95-1.23,9.87-2.3c0.41-0.15,0.81-0.33,1.19-0.54
	c1.24-0.69,2.24-1.75,2.87-3.02c0.68-1.37,1.06-2.87,1.13-4.41c0-2.77-1.64-4.45-3.84-5.34V94.16z"/>
<path class="st4" d="M883.14,93.59l0,3.08c-3.57,0.37-6.92,2.11-6.92,6.07c0,3.89,1.68,5.84,3.61,7.69
	c-0.92,0.32-1.79,0.75-2.61,1.28c-0.09,0.06-0.19,0.12-0.28,0.19c-2.5-2.38-3.89-5.71-3.81-9.16
	C873.15,97.65,877.1,94.1,883.14,93.59"/>
<path class="st4" d="M884.14,115.84L884.14,115.84c0.37,0.98,0.56,2.01,0.55,3.05v12.67v2.71v0.77h-0.77h-1.54h-0.77v-0.77l0-15.38
	c0.01-0.8-0.16-1.58-0.49-2.31c0.77-0.4,1.6-0.64,2.46-0.71C883.7,115.86,883.91,115.85,884.14,115.84"/>
<path class="st4" d="M1019.25,118.85c0.99,0.78,2.59,1.34,4.55,1.34c2.81,0,4.88-1.49,4.88-3.96c0-2-0.99-3.16-3.21-4.01l-2.29-0.9
	c-1.34-0.52-2.17-1.04-2.17-2.26c0-1.44,1.25-2.15,2.85-2.15c1.67,0,2.97,0.59,4.13,1.51v-1.96c-1.08-0.75-2.57-1.18-4.15-1.18
	c-2.5,0-4.64,1.3-4.64,3.8c0,2.29,1.56,3.25,3.25,3.91l2.12,0.83c1.53,0.64,2.31,1.16,2.31,2.43c0,1.49-1.23,2.29-3.09,2.29
	c-1.7,0-3.21-0.54-4.55-1.7V118.85z M1007.86,118.85c0.99,0.78,2.59,1.34,4.55,1.34c2.81,0,4.88-1.49,4.88-3.96
	c0-2-0.99-3.16-3.21-4.01l-2.29-0.9c-1.34-0.52-2.17-1.04-2.17-2.26c0-1.44,1.25-2.15,2.85-2.15c1.67,0,2.97,0.59,4.13,1.51v-1.96
	c-1.08-0.75-2.57-1.18-4.15-1.18c-2.5,0-4.64,1.3-4.64,3.8c0,2.29,1.56,3.25,3.25,3.91l2.12,0.83c1.53,0.64,2.31,1.16,2.31,2.43
	c0,1.49-1.23,2.29-3.09,2.29c-1.7,0-3.21-0.54-4.55-1.7V118.85z M1005.17,105.5h-1.86v14.48h1.86V105.5z M995.5,119.98l5.59-14.48
	h-1.89l-4.55,12.03l-4.53-12.03h-1.96l5.59,14.48H995.5z M978.41,107.13h3.4c1.91,0,3.02,0.97,3.02,2.57c0,1.6-1.11,2.57-3.02,2.57
	h-3.4V107.13z M980.98,113.85l4.15,6.13h2.12l-4.29-6.2c2.29-0.33,3.7-1.67,3.7-4.08c0-2.74-1.89-4.2-4.81-4.2h-5.31v14.48h1.86
	v-6.13H980.98z M964.4,105.5v14.48h9.22v-1.67h-7.38v-4.93h6.7v-1.65h-6.7v-4.57h7.38v-1.65H964.4z M952.31,118.85
	c0.99,0.78,2.59,1.34,4.55,1.34c2.81,0,4.88-1.49,4.88-3.96c0-2-0.99-3.16-3.21-4.01l-2.29-0.9c-1.34-0.52-2.17-1.04-2.17-2.26
	c0-1.44,1.25-2.15,2.85-2.15c1.67,0,2.97,0.59,4.13,1.51v-1.96c-1.08-0.75-2.57-1.18-4.15-1.18c-2.5,0-4.64,1.3-4.64,3.8
	c0,2.29,1.56,3.25,3.25,3.91l2.12,0.83c1.53,0.64,2.31,1.16,2.31,2.43c0,1.49-1.23,2.29-3.09,2.29c-1.7,0-3.21-0.54-4.55-1.7V118.85
	z M945.82,105.5h-4.1l-2.69,4.13l-2.62-4.13h-4.22l4.65,7.07l-4.88,7.4h4.13l2.88-4.46l2.88,4.46h4.22l-4.88-7.4L945.82,105.5z
	 M928.35,110.5c0,1.08-0.61,1.82-1.98,1.82h-2.19v-3.63h2.19C927.74,108.69,928.35,109.39,928.35,110.5z M926.77,115.48
	c3.14,0,5.26-1.77,5.26-4.98c0-3.23-2.12-5-5.26-5h-6.34v14.48h3.75v-4.5H926.77z M908.4,119.98h10.28v-3.28h-6.48v-11.2h-3.8
	V119.98z"/>
<rect x="652.41" y="-410.97" class="st6" width="595.28" height="841.89"/>
<g>
	<g>
		<defs>
			<rect id="SVGID_1_" x="1267.68" y="-410.97" width="595.28" height="841.89"/>
		</defs>
		<clipPath id="SVGID_2_">
			<use xlink:href="#SVGID_1_"  style="overflow:visible;"/>
		</clipPath>
		<path class="st7" d="M1597.51,22.23c0.63,0.5,1.66,0.86,2.91,0.86c1.79,0,3.12-0.95,3.12-2.53c0-1.28-0.63-2.02-2.05-2.56
			l-1.46-0.57c-0.86-0.33-1.39-0.66-1.39-1.45c0-0.92,0.8-1.37,1.82-1.37c1.07,0,1.9,0.38,2.64,0.96v-1.25
			c-0.69-0.48-1.64-0.75-2.65-0.75c-1.6,0-2.97,0.83-2.97,2.43c0,1.46,0.99,2.08,2.08,2.5l1.36,0.53c0.98,0.41,1.48,0.74,1.48,1.55
			c0,0.95-0.78,1.46-1.97,1.46c-1.08,0-2.05-0.35-2.91-1.08V22.23z M1590.23,22.23c0.63,0.5,1.66,0.86,2.91,0.86
			c1.79,0,3.12-0.95,3.12-2.53c0-1.28-0.63-2.02-2.05-2.56l-1.46-0.57c-0.86-0.33-1.39-0.66-1.39-1.45c0-0.92,0.8-1.37,1.82-1.37
			c1.07,0,1.9,0.38,2.64,0.96v-1.25c-0.69-0.48-1.64-0.75-2.65-0.75c-1.6,0-2.97,0.83-2.97,2.43c0,1.46,0.99,2.08,2.08,2.5
			l1.36,0.53c0.98,0.41,1.48,0.74,1.48,1.55c0,0.95-0.78,1.46-1.97,1.46c-1.08,0-2.05-0.35-2.91-1.08V22.23z M1588.52,13.7h-1.19
			v9.25h1.19V13.7z M1582.34,22.95l3.57-9.25h-1.2l-2.91,7.68l-2.89-7.68h-1.25l3.57,9.25H1582.34z M1571.42,14.74h2.17
			c1.22,0,1.93,0.62,1.93,1.64c0,1.02-0.71,1.64-1.93,1.64h-2.17V14.74z M1573.06,19.03l2.65,3.92h1.36l-2.74-3.96
			c1.46-0.21,2.36-1.07,2.36-2.61c0-1.75-1.2-2.68-3.07-2.68h-3.39v9.25h1.19v-3.92H1573.06z M1562.47,13.7v9.25h5.89v-1.07h-4.71
			v-3.15h4.28v-1.05h-4.28v-2.92h4.71V13.7H1562.47z M1554.75,22.23c0.63,0.5,1.66,0.86,2.91,0.86c1.79,0,3.12-0.95,3.12-2.53
			c0-1.28-0.63-2.02-2.05-2.56l-1.46-0.57c-0.86-0.33-1.39-0.66-1.39-1.45c0-0.92,0.8-1.37,1.82-1.37c1.07,0,1.9,0.38,2.64,0.96
			v-1.25c-0.69-0.48-1.64-0.75-2.65-0.75c-1.6,0-2.97,0.83-2.97,2.43c0,1.46,0.99,2.08,2.08,2.5l1.36,0.53
			c0.98,0.41,1.48,0.74,1.48,1.55c0,0.95-0.78,1.46-1.97,1.46c-1.08,0-2.05-0.35-2.91-1.08V22.23z M1550.61,13.7h-2.62l-1.72,2.64
			l-1.67-2.64h-2.7l2.97,4.52l-3.12,4.73h2.64l1.84-2.85l1.84,2.85h2.7l-3.12-4.73L1550.61,13.7z M1539.44,16.89
			c0,0.69-0.39,1.16-1.27,1.16h-1.4v-2.32h1.4C1539.05,15.73,1539.44,16.19,1539.44,16.89z M1538.43,20.07c2,0,3.36-1.13,3.36-3.18
			c0-2.06-1.36-3.19-3.36-3.19h-4.05v9.25h2.39v-2.88H1538.43z M1526.7,22.95h6.57v-2.09h-4.14V13.7h-2.42V22.95z"/>
		<path class="st7" d="M1569.38-5.73c1.38,1.31,2.14,3.15,2.1,5.05c0,2.81-2.18,4.77-5.51,5.05v-1.7c1.97-0.2,3.81-1.16,3.81-3.35
			c0-2.14-0.93-3.22-1.99-4.24c0.51-0.18,0.99-0.41,1.44-0.71C1569.27-5.65,1569.32-5.69,1569.38-5.73"/>
		<path class="st7" d="M1565.54-18.47h0.85h0.42v4.34h0l0,4.56c-0.01,0.44,0.09,0.87,0.27,1.27c-0.42,0.22-0.88,0.35-1.35,0.39
			c-0.07,0.01-0.19,0.02-0.32,0.03c-0.2-0.54-0.3-1.11-0.3-1.69v-8.47l0-0.01v-0.41H1565.54z"/>
		<path class="st7" d="M1567.66-16.42c2.36,0.7,3.81,2.43,3.81,4.73c0,1.53-0.64,4-2.72,5.36c-1.07,0.67-2.31,1.02-3.57,0.99
			c-0.86-0.03-1.72,0.16-2.49,0.55c-0.7,0.38-1.27,0.97-1.62,1.69c-0.37,0.76-0.58,1.58-0.62,2.43c0,1.53,0.9,2.45,2.12,2.94v1.78
			c-2.36-0.7-3.81-2.43-3.81-4.73c0-1.52,0.64-4,2.72-5.36c2.1-1.39,3.83-0.68,5.44-1.27c0.23-0.08,0.45-0.18,0.66-0.3
			c0.68-0.38,1.24-0.96,1.58-1.67c0.37-0.76,0.58-1.58,0.62-2.43c0-1.53-0.9-2.45-2.12-2.94V-16.42z"/>
		<path class="st7" d="M1564.27-16.74l0,1.7c-1.97,0.2-3.81,1.16-3.81,3.35c0,2.14,0.93,3.22,1.99,4.24
			c-0.51,0.18-0.99,0.41-1.44,0.71c-0.05,0.03-0.1,0.07-0.15,0.11c-1.38-1.31-2.14-3.15-2.1-5.05
			C1558.76-14.5,1560.94-16.46,1564.27-16.74"/>
		<path class="st7" d="M1564.82-4.48L1564.82-4.48c0.21,0.54,0.31,1.11,0.3,1.68v6.98v1.49V6.1h-0.42h-0.85h-0.42V5.68l0-8.47
			c0.01-0.44-0.09-0.87-0.27-1.27c0.42-0.22,0.88-0.35,1.36-0.39C1564.58-4.46,1564.69-4.47,1564.82-4.48"/>
		<path class="st7" d="M1564.79,59.12c-0.76,0.91-1,2.75-2.77,2.99c0.82,0.7,3.31,0.22,4.25-1.01c0.84-1.2,0.41-1.9,1.95-3.42
			C1568.06,57.53,1565.91,57.67,1564.79,59.12 M1561.16-38.98c0.67-0.97,0.75-2.83,2.5-3.22c-0.87-0.63-3.32,0.07-4.15,1.38
			c-0.73,1.27-0.24,1.93-1.64,3.58C1558.04-37.11,1560.17-37.44,1561.16-38.98z M1569.08,58.96c-0.67,0.97-0.75,2.83-2.5,3.22
			c0.87,0.63,3.32-0.07,4.15-1.38c0.73-1.27,0.24-1.93,1.64-3.58C1572.19,57.09,1570.06,57.42,1569.08,58.96z M1556.91-38.45
			c0.59-1.03,0.5-2.88,2.21-3.43c-0.93-0.55-3.3,0.36-4.01,1.73c-0.62,1.33-0.07,1.94-1.32,3.71
			C1553.97-36.31,1556.06-36.82,1556.91-38.45z M1573.33,58.43c-0.59,1.03-0.5,2.88-2.21,3.43c0.93,0.55,3.3-0.36,4.01-1.73
			c0.62-1.33,0.07-1.94,1.32-3.71C1576.27,56.3,1574.18,56.81,1573.33,58.43z M1552.72-37.55c0.49-1.08,0.25-2.91,1.91-3.61
			c-0.97-0.46-3.26,0.65-3.84,2.07c-0.5,1.38,0.1,1.94-0.99,3.81C1549.97-35.16,1552.01-35.86,1552.72-37.55z M1577.52,57.53
			c-0.49,1.08-0.25,2.91-1.91,3.61c0.97,0.46,3.26-0.65,3.84-2.07c0.5-1.38-0.1-1.94,0.99-3.81
			C1580.26,55.15,1578.22,55.84,1577.52,57.53z M1545.9-33.76c0.2,0.09,2.17-0.78,2.72-2.52c0.4-1.12,0-2.92,1.58-3.76
			c-1.01-0.38-3.19,0.93-3.65,2.4C1546.17-36.23,1546.82-35.72,1545.9-33.76z M1584.34,53.74c-0.2-0.09-2.17,0.78-2.72,2.52
			c-0.4,1.12,0,2.92-1.58,3.76c1.01,0.38,3.19-0.93,3.65-2.4C1584.06,56.21,1583.42,55.7,1584.34,53.74z M1544.65-34.67
			c0.3-1.15-0.26-2.91,1.25-3.88c-1.04-0.29-3.1,1.2-3.43,2.71c-0.25,1.44,0.43,1.89-0.32,3.92
			C1542.36-31.85,1544.25-32.88,1544.65-34.67z M1585.59,54.65c-0.3,1.15,0.26,2.91-1.25,3.88c1.04,0.29,3.09-1.2,3.43-2.71
			c0.25-1.44-0.43-1.89,0.32-3.92C1587.87,51.83,1585.99,52.87,1585.59,54.65z M1538.59-29.76c0.21,0.05,2-1.14,2.24-2.96
			c0.2-1.17-0.51-2.88,0.91-3.98c-1.06-0.2-2.98,1.47-3.18,3C1538.44-32.23,1539.16-31.85,1538.59-29.76z M1591.64,49.74
			c-0.21-0.05-2,1.14-2.24,2.96c-0.2,1.17,0.51,2.88-0.91,3.98c1.06,0.2,2.98-1.47,3.18-3C1591.8,52.22,1591.08,51.83,1591.64,49.74
			z M1535.23-27.3c0.21,0.03,1.89-1.31,1.98-3.14c0.1-1.18-0.76-2.82,0.56-4.04c-1.07-0.1-2.84,1.72-2.9,3.26
			C1534.86-29.75,1535.61-29.43,1535.23-27.3z M1595.01,47.28c-0.21-0.03-1.89,1.31-1.98,3.14c-0.1,1.18,0.76,2.82-0.56,4.04
			c1.07,0.1,2.84-1.72,2.9-3.26C1595.38,49.73,1594.62,49.41,1595.01,47.28z M1532.09-24.55c0.22,0.01,1.77-1.47,1.7-3.3
			c-0.01-1.18-1-2.75,0.2-4.07c-1.07-0.01-2.68,1.96-2.61,3.5C1531.51-26.96,1532.29-26.7,1532.09-24.55z M1598.14,44.53
			c-0.22-0.01-1.77,1.47-1.7,3.3c0.01,1.18,1,2.75-0.2,4.07c1.07,0.01,2.68-1.96,2.61-3.51
			C1598.73,46.94,1597.95,46.69,1598.14,44.53z M1529.21-21.54c0.22,0,1.64-1.62,1.4-3.44c-0.11-1.18-1.24-2.65-0.15-4.08
			c-1.07,0.08-2.5,2.19-2.29,3.72C1528.42-23.89,1529.22-23.7,1529.21-21.54z M1601.03,41.52c-0.22,0-1.64,1.62-1.4,3.44
			c0.11,1.18,1.24,2.65,0.15,4.08c1.07-0.08,2.5-2.19,2.29-3.72C1601.82,43.87,1601.02,43.69,1601.03,41.52z M1526.6-18.29
			c0.22-0.02,1.49-1.76,1.1-3.55c-0.21-1.17-1.47-2.53-0.51-4.05c-1.06,0.18-2.3,2.4-1.96,3.9
			C1525.6-20.56,1526.42-20.45,1526.6-18.29z M1603.64,38.27c-0.22,0.02-1.49,1.76-1.1,3.55c0.21,1.17,1.47,2.53,0.51,4.05
			c1.06-0.18,2.3-2.4,1.96-3.9C1604.63,40.55,1603.82,40.43,1603.64,38.27z M1524.28-14.82c0.21-0.04,1.33-1.88,0.78-3.63
			c-0.31-1.14-1.68-2.39-0.86-3.99c-1.04,0.27-2.08,2.59-1.61,4.06C1523.09-17,1523.91-16.96,1524.28-14.82z M1605.96,34.81
			c-0.21,0.04-1.33,1.88-0.78,3.63c0.31,1.14,1.68,2.39,0.86,3.99c1.04-0.27,2.08-2.59,1.61-4.06
			C1607.14,36.99,1606.33,36.94,1605.96,34.81z M1522.27-11.17c0.21-0.06,1.16-1.99,0.46-3.68c-0.41-1.11-1.88-2.24-1.2-3.9
			c-1.01,0.36-1.84,2.76-1.25,4.19C1520.9-13.24,1521.72-13.26,1522.27-11.17z M1607.97,31.15c-0.21,0.06-1.16,1.99-0.46,3.68
			c0.41,1.11,1.88,2.24,1.2,3.9c1.01-0.36,1.84-2.76,1.25-4.19C1609.34,33.22,1608.52,33.25,1607.97,31.15z M1520.59-7.35
			c0.2-0.08,0.98-2.09,0.14-3.71c-0.51-1.07-2.07-2.07-1.54-3.78c-0.98,0.44-1.6,2.91-0.88,4.28
			C1519.04-9.29,1519.86-9.39,1520.59-7.35z M1609.65,27.34c-0.2,0.08-0.98,2.09-0.14,3.71c0.51,1.07,2.07,2.07,1.54,3.78
			c0.98-0.44,1.6-2.91,0.88-4.28C1611.19,29.28,1610.38,29.37,1609.65,27.34z M1519.25-3.41c0.19-0.1,0.8-2.16-0.18-3.71
			c-0.6-1.02-2.24-1.88-1.86-3.63c-0.94,0.53-1.34,3.04-0.51,4.34C1517.54-5.21,1518.34-5.37,1519.25-3.41z M1610.99,23.39
			c-0.2,0.1-0.8,2.16,0.18,3.71c0.6,1.02,2.24,1.88,1.86,3.63c0.94-0.53,1.34-3.04,0.51-4.34
			C1612.7,25.19,1611.9,25.36,1610.99,23.39z M1518.25,0.64c0.19-0.11,0.61-2.22-0.51-3.68c-0.69-0.97-2.4-1.67-2.17-3.45
			c-0.89,0.61-1.07,3.15-0.13,4.37C1516.39-1,1517.18-1.24,1518.25,0.64z M1611.98,19.34c-0.19,0.11-0.61,2.22,0.51,3.68
			c0.69,0.97,2.4,1.67,2.17,3.45c0.89-0.61,1.07-3.15,0.13-4.37C1613.84,20.98,1613.06,21.22,1611.98,19.34z M1517.62,4.76
			c0.18-0.13,0.41-2.27-0.82-3.62c-0.77-0.9-2.53-1.46-2.46-3.25c-0.83,0.68-0.79,3.23,0.26,4.36
			C1515.62,3.29,1516.38,2.98,1517.62,4.76z M1612.62,15.22c-0.18,0.13-0.41,2.27,0.82,3.62c0.77,0.9,2.53,1.46,2.46,3.25
			c0.83-0.68,0.79-3.23-0.26-4.36C1614.61,16.69,1613.85,17,1612.62,15.22z M1517.34,8.92c0.16-0.14,0.21-2.3-1.14-3.53
			c-0.84-0.83-2.65-1.23-2.74-3.02c-0.77,0.75-0.5,3.28,0.63,4.32C1515.22,7.63,1515.96,7.26,1517.34,8.92z M1612.89,11.06
			c-0.16,0.14-0.21,2.3,1.14,3.53c0.84,0.83,2.65,1.23,2.74,3.02c0.77-0.75,0.5-3.28-0.63-4.32
			C1615.01,12.36,1614.28,12.73,1612.89,11.06z M1514.01,11.14c1.2,0.84,1.9,0.41,3.42,1.95c0.15-0.16,0.01-2.31-1.44-3.42
			c-0.91-0.76-2.75-1-2.99-2.77C1512.3,7.71,1512.78,10.21,1514.01,11.14z M1616.23,8.84c-1.2-0.84-1.9-0.41-3.42-1.94
			c-0.15,0.16-0.01,2.31,1.44,3.42c0.91,0.76,2.75,1,2.99,2.77C1617.94,12.27,1617.45,9.78,1616.23,8.84z M1514.3,15.59
			c1.27,0.73,1.93,0.24,3.58,1.64c0.14-0.17-0.19-2.3-1.73-3.28c-0.97-0.67-2.83-0.75-3.22-2.5
			C1512.3,12.32,1513,14.77,1514.3,15.59z M1615.93,4.39c-1.27-0.73-1.93-0.24-3.58-1.64c-0.14,0.17,0.19,2.3,1.73,3.28
			c0.97,0.67,2.83,0.75,3.22,2.5C1617.93,7.66,1617.23,5.21,1615.93,4.39z M1514.98,20c1.33,0.62,1.94,0.07,3.71,1.32
			c0.12-0.18-0.39-2.27-2.01-3.12c-1.03-0.59-2.88-0.5-3.43-2.21C1512.71,16.92,1513.62,19.29,1514.98,20z M1615.25-0.02
			c-1.33-0.62-1.94-0.07-3.71-1.32c-0.12,0.18,0.39,2.27,2.01,3.12c1.03,0.59,2.88,0.5,3.43,2.21
			C1617.53,3.07,1616.62,0.69,1615.25-0.02z M1516.05,24.33c1.38,0.5,1.94-0.1,3.81,0.99c0.1-0.19-0.59-2.23-2.28-2.93
			c-1.08-0.49-2.91-0.25-3.61-1.91C1513.51,21.46,1514.62,23.75,1516.05,24.33z M1614.19-4.35c-1.38-0.5-1.94,0.1-3.81-0.99
			c-0.1,0.19,0.59,2.23,2.28,2.93c1.08,0.49,2.91,0.25,3.61,1.91C1616.73-1.48,1615.61-3.76,1614.19-4.35z M1521.37,29.21
			c0.09-0.2-0.78-2.17-2.52-2.72c-1.12-0.4-2.92,0-3.76-1.58c-0.38,1.01,0.93,3.19,2.4,3.65
			C1518.9,28.93,1519.41,28.29,1521.37,29.21z M1608.87-9.23c-0.09,0.2,0.78,2.17,2.52,2.72c1.12,0.4,2.92,0,3.76,1.58
			c0.38-1.01-0.93-3.19-2.4-3.65C1611.34-8.95,1610.83-8.31,1608.87-9.23z M1523.21,32.95c0.07-0.21-0.97-2.09-2.75-2.49
			c-1.15-0.3-2.91,0.26-3.88-1.25c-0.29,1.04,1.2,3.09,2.71,3.43C1520.73,32.89,1521.18,32.2,1523.21,32.95z M1607.03-12.97
			c-0.07,0.21,0.97,2.09,2.75,2.49c1.15,0.3,2.91-0.26,3.88,1.25c0.29-1.04-1.2-3.09-2.71-3.43
			C1609.51-12.91,1609.06-12.22,1607.03-12.97z M1525.37,36.52c0.05-0.21-1.14-2-2.96-2.24c-1.17-0.2-2.88,0.51-3.98-0.91
			c-0.2,1.06,1.47,2.98,3,3.18C1522.89,36.67,1523.28,35.95,1525.37,36.52z M1604.87-16.54c-0.05,0.21,1.14,2,2.96,2.24
			c1.17,0.2,2.88-0.51,3.98,0.91c0.2-1.06-1.47-2.98-3-3.18C1607.34-16.69,1606.96-15.97,1604.87-16.54z M1527.83,39.88
			c0.03-0.21-1.31-1.89-3.14-1.98c-1.18-0.1-2.82,0.76-4.04-0.56c-0.1,1.07,1.72,2.84,3.26,2.9
			C1525.38,40.25,1525.7,39.5,1527.83,39.88z M1605.55-17.92c1.18,0.1,2.82-0.76,4.04,0.56c0.1-1.07-1.72-2.84-3.26-2.9
			c-1.47,0-1.79,0.75-3.92,0.37C1602.37-19.68,1603.72-18,1605.55-17.92z M1530.58,43.02c0.01-0.22-1.47-1.77-3.3-1.7
			c-1.18,0.01-2.75,1-4.07-0.2c-0.01,1.07,1.96,2.68,3.5,2.61C1528.17,43.6,1528.42,42.82,1530.58,43.02z M1599.66-23.03
			c-0.01,0.22,1.47,1.77,3.3,1.7c1.18-0.01,2.75-1,4.07,0.2c0.01-1.07-1.96-2.68-3.51-2.61
			C1602.07-23.62,1601.81-22.84,1599.66-23.03z M1529.79,46.95c1.44-0.25,1.63-1.05,3.8-1.04c0-0.22-1.62-1.64-3.44-1.4
			c-1.18,0.11-2.65,1.24-4.08,0.15C1526.16,45.73,1528.26,47.15,1529.79,46.95z M1604.16-24.67c-0.08-1.07-2.19-2.5-3.72-2.29
			c-1.44,0.25-1.63,1.05-3.8,1.04c0,0.22,1.62,1.64,3.44,1.4C1601.27-24.63,1602.74-25.76,1604.16-24.67z M1536.84,48.51
			c-0.02-0.22-1.76-1.49-3.55-1.1c-1.17,0.21-2.53,1.47-4.05,0.51c0.18,1.06,2.4,2.3,3.9,1.96
			C1534.56,49.51,1534.68,48.69,1536.84,48.51z M1593.4-28.53c0.02,0.22,1.76,1.49,3.55,1.1c1.17-0.21,2.53-1.47,4.05-0.51
			c-0.18-1.06-2.4-2.3-3.9-1.96C1595.67-29.52,1595.55-28.71,1593.4-28.53z M1540.3,50.83c-0.04-0.21-1.88-1.33-3.63-0.78
			c-1.14,0.31-2.39,1.68-3.99,0.86c0.27,1.04,2.59,2.08,4.06,1.61C1538.12,52.02,1538.17,51.2,1540.3,50.83z M1597.55-30.92
			c-0.27-1.04-2.59-2.08-4.06-1.61c-1.38,0.5-1.42,1.32-3.56,1.69c0.04,0.21,1.88,1.33,3.63,0.78
			C1594.71-30.38,1595.96-31.75,1597.55-30.92z M1543.96,52.84c-0.06-0.21-1.99-1.16-3.68-0.46c-1.11,0.41-2.24,1.88-3.9,1.2
			c0.36,1.01,2.76,1.84,4.19,1.25C1541.89,54.21,1541.86,53.39,1543.96,52.84z M1586.28-32.86c0.06,0.21,1.99,1.16,3.68,0.46
			c1.11-0.41,2.24-1.88,3.9-1.2c-0.36-1.01-2.76-1.84-4.19-1.25C1588.35-34.23,1588.37-33.41,1586.28-32.86z M1547.77,54.52
			c-0.08-0.2-2.09-0.98-3.71-0.14c-1.07,0.51-2.07,2.07-3.78,1.54c0.44,0.98,2.91,1.6,4.28,0.88
			C1545.83,56.07,1545.73,55.25,1547.77,54.52z M1582.46-34.54c0.08,0.2,2.09,0.98,3.71,0.14c1.07-0.51,2.07-2.07,3.78-1.54
			c-0.44-0.98-2.91-1.6-4.28-0.88C1584.4-36.08,1584.5-35.27,1582.46-34.54z M1566.19-37.78c0.14,0.16,2.3,0.21,3.53-1.14
			c0.83-0.84,1.23-2.65,3.02-2.74c-0.75-0.77-3.28-0.5-4.32,0.63C1567.48-39.9,1567.85-39.17,1566.19-37.78z M1564.05,57.77
			c-0.14-0.16-2.3-0.21-3.53,1.14c-0.83,0.84-1.23,2.65-3.02,2.74c0.75,0.77,3.28,0.5,4.32-0.63
			C1562.75,59.88,1562.38,59.15,1564.05,57.77z M1570.35-37.51c0.13,0.18,2.27,0.41,3.62-0.82c0.9-0.77,1.46-2.54,3.25-2.46
			c-0.68-0.83-3.23-0.79-4.36,0.26C1571.82-39.51,1572.13-38.74,1570.35-37.51z M1559.89,57.49c-0.13-0.18-2.27-0.41-3.62,0.82
			c-0.9,0.77-1.46,2.54-3.25,2.46c0.68,0.83,3.23,0.79,4.36-0.26C1558.41,59.49,1558.11,58.73,1559.89,57.49z M1574.47-36.87
			c0.11,0.19,2.22,0.61,3.68-0.51c0.97-0.69,1.67-2.4,3.45-2.17c-0.61-0.89-3.15-1.07-4.37-0.13
			C1576.11-38.73,1576.35-37.95,1574.47-36.87z M1555.77,56.86c-0.11-0.19-2.22-0.61-3.68,0.51c-0.97,0.68-1.67,2.4-3.45,2.17
			c0.61,0.89,3.15,1.07,4.37,0.13C1554.13,58.72,1553.89,57.93,1555.77,56.86z M1578.52-35.88c0.1,0.2,2.16,0.8,3.71-0.18
			c1.02-0.6,1.88-2.24,3.63-1.86c-0.53-0.94-3.04-1.34-4.34-0.51C1580.31-37.59,1580.48-36.79,1578.52-35.88z M1551.72,55.86
			c-0.1-0.2-2.16-0.8-3.71,0.18c-1.02,0.6-1.88,2.24-3.63,1.86c0.53,0.94,3.04,1.34,4.34,0.51
			C1549.92,57.57,1549.75,56.77,1551.72,55.86z M1565.44-39.14c0.76-0.91,1-2.75,2.77-2.99c-0.82-0.7-3.31-0.22-4.25,1.01
			c-0.84,1.2-0.41,1.9-1.95,3.42C1562.18-37.55,1564.33-37.69,1565.44-39.14z"/>
		<path class="st7" d="M1603.52,3.72c0.18,0.96,0.88,1.55,2.04,1.34l2.55-0.47l-0.1-0.54l-2.48,0.46c-0.9,0.17-1.4-0.19-1.53-0.87
			c-0.13-0.68,0.21-1.19,1.12-1.36l2.48-0.46l-0.1-0.54l-2.55,0.47C1603.79,1.96,1603.34,2.76,1603.52,3.72 M1604.39-1.53l0.27,0.98
			c0.16,0.56-0.04,0.93-0.47,1.06c-0.43,0.12-0.8-0.1-0.95-0.66l-0.27-0.98L1604.39-1.53z M1604.83-1.66l1.33-0.37l0.24,0.84
			c0.16,0.55,0.03,0.91-0.42,1.04c-0.45,0.13-0.76-0.11-0.91-0.67L1604.83-1.66z M1605.09,0c0.19,0.3,0.57,0.49,1.07,0.36
			c0.71-0.2,0.95-0.82,0.72-1.68l-0.38-1.36l-4.14,1.16l0.42,1.5c0.24,0.85,0.8,1.26,1.55,1.05C1604.79,0.89,1605.1,0.48,1605.09,0z
			 M1606.11-5l0.49,1.41l0.4-0.14l-0.49-1.41L1606.11-5z M1606.07-3.91l-0.18-0.52l-4.06,1.42l0.18,0.52L1606.07-3.91z
			 M1600.21-6.92l0.57,1.26c0.52,1.15,1.63,1.55,2.82,1.01c1.19-0.54,1.62-1.64,1.1-2.79l-0.57-1.26L1600.21-6.92z M1600.89-6.62
			l3.02-1.37l0.34,0.75c0.4,0.89,0.04,1.68-0.87,2.09c-0.92,0.42-1.74,0.16-2.14-0.73L1600.89-6.62z M1598.53-10.02l1.38,2.37
			l0.43-0.25l-1.1-1.89l3.29-1.91l-0.28-0.48L1598.53-10.02z M1601.61-13.19l-0.3-0.47l-3.63,2.31l0.3,0.47L1601.61-13.19z
			 M1597.34-15.19l0.63,0.79c0.36,0.45,0.33,0.87-0.03,1.16c-0.35,0.28-0.77,0.22-1.13-0.23l-0.63-0.79L1597.34-15.19z
			 M1597.7-15.48l1.08-0.86l0.55,0.68c0.36,0.45,0.38,0.83,0.02,1.12c-0.37,0.29-0.74,0.19-1.1-0.26L1597.7-15.48z M1598.58-14.05
			c0.29,0.2,0.72,0.23,1.12-0.09c0.58-0.46,0.56-1.13,0.01-1.82l-0.88-1.11l-3.36,2.68l0.97,1.22c0.55,0.69,1.22,0.85,1.84,0.36
			C1598.65-13.11,1598.77-13.61,1598.58-14.05z M1595.36-20.2l1.04,1.08l-2.75,2.63l0.38,0.4l2.75-2.63l1.04,1.08l0.35-0.34
			l-2.46-2.56L1595.36-20.2z M1593.59-21.61l-0.67,1.84l-1.06-0.92L1593.59-21.61z M1593.85-22.29l-4.09,2.14l0.42,0.37l1.22-0.66
			l1.34,1.16l-0.47,1.3l0.42,0.37l1.55-4.35L1593.85-22.29z M1586.64-22.35c0.82,0.53,1.74,0.42,2.37-0.56l1.41-2.18l-0.46-0.3
			l-1.37,2.12c-0.5,0.77-1.1,0.89-1.68,0.51c-0.58-0.38-0.72-0.97-0.22-1.74l1.37-2.12l-0.46-0.3l-1.41,2.17
			C1585.55-23.76,1585.83-22.88,1586.64-22.35z M1583.28-28.69l1.34,0.68l-1.72,3.4l0.49,0.25l1.72-3.4l1.34,0.68l0.22-0.44
			l-3.17-1.6L1583.28-28.69z M1581.63-27.61c-0.37,0.94-1.16,1.38-1.93,1.07c-0.77-0.31-1.02-1.17-0.65-2.11
			c0.37-0.94,1.16-1.38,1.92-1.08C1581.75-29.42,1582.01-28.55,1581.63-27.61z M1582.15-27.41c0.48-1.21,0.07-2.36-0.98-2.78
			c-1.05-0.42-2.14,0.12-2.62,1.33c-0.48,1.2-0.07,2.36,0.98,2.77C1580.57-25.66,1581.67-26.21,1582.15-27.41z M1577.5-27.45
			l-2.26-0.63l3.3-2.99l0.01-0.03l-3.03-0.85l-0.13,0.47l2.2,0.62l-3.32,3l-0.01,0.03l3.11,0.87L1577.5-27.45z M1576.92-31.93
			l0.47,0.13l0.85-0.64l-0.46-0.13l-0.53,0.37l-0.26-0.59l-0.46-0.13L1576.92-31.93z M1571.78-32.7l-0.78,4.23l2.69,0.5l0.09-0.49
			l-2.15-0.4l0.27-1.44l1.96,0.36l0.09-0.48l-1.96-0.36l0.25-1.34l2.15,0.4l0.09-0.48L1571.78-32.7z M1567.94-30.76l1.01,0.08
			c0.58,0.04,0.86,0.35,0.83,0.81c-0.03,0.45-0.36,0.72-0.94,0.67l-1.01-0.08L1567.94-30.76z M1567.98-31.22l0.11-1.38l0.87,0.07
			c0.57,0.04,0.87,0.28,0.83,0.75c-0.04,0.47-0.37,0.67-0.94,0.63L1567.98-31.22z M1569.63-30.89c0.34-0.08,0.66-0.37,0.7-0.88
			c0.06-0.74-0.44-1.18-1.33-1.25l-1.41-0.11l-0.33,4.29l1.55,0.12c0.88,0.07,1.46-0.32,1.52-1.1
			C1570.36-30.3,1570.08-30.74,1569.63-30.89z M1565.87-31.09c0.03,1.01-0.51,1.73-1.34,1.76c-0.83,0.03-1.41-0.66-1.44-1.67
			c-0.03-1.01,0.51-1.73,1.33-1.76C1565.26-32.78,1565.84-32.09,1565.87-31.09z M1566.42-31.1c-0.04-1.3-0.88-2.19-2.01-2.15
			c-1.13,0.03-1.91,0.97-1.87,2.27c0.04,1.29,0.88,2.19,2.01,2.15C1565.68-28.87,1566.46-29.81,1566.42-31.1z M1559.12-32.3l1-0.12
			c0.56-0.07,0.92,0.18,0.98,0.65c0.06,0.47-0.23,0.8-0.8,0.87l-1,0.12L1559.12-32.3z M1560.12-30.41l1.44,1.66l0.63-0.08
			l-1.49-1.67c0.66-0.18,1.03-0.63,0.94-1.33c-0.1-0.81-0.71-1.17-1.57-1.06l-1.56,0.19l0.52,4.27l0.55-0.07l-0.22-1.81
			L1560.12-30.41z M1554.53-31.89l0.97,4.19l2.67-0.62l-0.11-0.48l-2.13,0.49l-0.33-1.43l1.94-0.45l-0.11-0.48l-1.94,0.45
			l-0.31-1.32l2.13-0.49l-0.11-0.48L1554.53-31.89z M1553.36-31.57l-0.53,0.15l1.16,4.14l0.53-0.15L1553.36-31.57z M1548.04-29.19
			l0.94-0.36c0.53-0.2,0.94-0.06,1.11,0.39c0.17,0.44-0.03,0.83-0.56,1.04l-0.94,0.36L1548.04-29.19z M1549.47-27.61l1.81,1.25
			l0.59-0.23l-1.85-1.26c0.6-0.34,0.85-0.86,0.59-1.53c-0.29-0.76-0.97-0.96-1.78-0.65l-1.47,0.57l1.55,4.01l0.52-0.2l-0.66-1.7
			L1549.47-27.61z M1544.97-27.47l1.45,1.33l-1.25,0.63L1544.97-27.47z M1544.43-27.97l0.42,4.6l0.5-0.25l-0.14-1.38l1.58-0.79
			l1.02,0.94l0.5-0.25l-3.43-3.09L1544.43-27.97z M1539.52-23.98l1.69,1l-1.1,0.87L1539.52-23.98z M1538.9-24.36l1.36,4.41
			l0.44-0.35l-0.42-1.32l1.39-1.1l1.2,0.7l0.44-0.35l-3.99-2.32L1538.9-24.36z M1536.82-19.51l0.73-0.7
			c0.42-0.4,0.84-0.41,1.16-0.08c0.31,0.32,0.29,0.75-0.13,1.15l-0.73,0.7L1536.82-19.51z M1536.5-19.84l-0.96-1l0.63-0.61
			c0.41-0.4,0.79-0.46,1.12-0.12c0.32,0.34,0.26,0.72-0.16,1.12L1536.5-19.84z M1537.84-20.85c0.17-0.31,0.16-0.74-0.19-1.11
			c-0.51-0.54-1.17-0.46-1.82,0.16l-1.02,0.98l2.97,3.1l1.12-1.08c0.64-0.61,0.74-1.3,0.19-1.86
			C1538.77-21,1538.26-21.09,1537.84-20.85z M1532.97-19.5l1.03-1.08l-0.31-0.3l-1.03,1.08L1532.97-19.5z M1533.97-19.96l-0.38,0.4
			l3.1,2.97l0.38-0.4L1533.97-19.96z M1531.62-16.61l0.66-0.76c0.37-0.43,0.8-0.49,1.16-0.18c0.36,0.31,0.36,0.75-0.01,1.18
			l-0.66,0.76L1531.62-16.61z M1533.62-15.88l2.18,0.26l0.41-0.48l-2.23-0.25c0.37-0.58,0.35-1.16-0.19-1.62
			c-0.61-0.53-1.31-0.39-1.88,0.26l-1.03,1.19l3.24,2.82l0.36-0.42l-1.37-1.19L1533.62-15.88z M1531.79-10.16l0.75-1.16
			c0.68-1.06,0.43-2.21-0.67-2.92c-1.1-0.71-2.25-0.47-2.94,0.58l-0.75,1.16L1531.79-10.16z M1531.67-10.9l-2.78-1.8l0.44-0.69
			c0.53-0.82,1.39-0.94,2.23-0.4c0.85,0.55,1.07,1.38,0.55,2.2L1531.67-10.9z M1526.23-8.94l3.84,1.94l1.24-2.44l-0.44-0.22
			l-0.99,1.96l-1.31-0.66l0.9-1.77l-0.44-0.22l-0.9,1.77l-1.21-0.61l0.99-1.95l-0.44-0.22L1526.23-8.94z M1525.72-7.83l-0.23,0.5
			l3.92,1.76l0.23-0.5L1525.72-7.83z M1526.37-3.31l0.38-0.94c0.22-0.54,0.6-0.72,1.02-0.55c0.42,0.17,0.57,0.56,0.36,1.1
			l-0.38,0.94L1526.37-3.31z M1525.94-3.48L1524.65-4l0.33-0.81c0.21-0.53,0.53-0.74,0.97-0.57c0.44,0.17,0.53,0.55,0.32,1.09
			L1525.94-3.48z M1526.75-4.95c0.03-0.35-0.16-0.74-0.63-0.93c-0.69-0.28-1.26,0.07-1.59,0.89L1524-3.68l3.99,1.6l0.58-1.44
			c0.33-0.82,0.13-1.48-0.59-1.78C1527.53-5.48,1527.03-5.34,1526.75-4.95z M1523.82-0.37l1.95-0.27l-0.32,1.36L1523.82-0.37z
			 M1523.1-0.28l3.8,2.61l0.13-0.55l-1.15-0.77l0.4-1.72l1.37-0.19l0.13-0.55l-4.57,0.66L1523.1-0.28z M1526,5.4
			c0.28-0.25,0.53-0.69,0.64-1.26c0.15-0.82-0.17-1.5-0.89-1.64c-0.59-0.11-0.98,0.12-1.34,0.72l-0.39,0.62
			c-0.22,0.36-0.42,0.58-0.78,0.51c-0.42-0.08-0.56-0.48-0.47-0.95c0.09-0.49,0.33-0.84,0.66-1.12l-0.57-0.11
			c-0.28,0.28-0.48,0.69-0.57,1.15c-0.13,0.73,0.13,1.43,0.86,1.56c0.67,0.12,1.03-0.28,1.32-0.74l0.36-0.58
			c0.27-0.41,0.46-0.61,0.83-0.54c0.43,0.08,0.6,0.48,0.5,1.02c-0.09,0.5-0.33,0.91-0.74,1.24L1526,5.4z"/>
		<path class="st7" d="M1590.32,41.3l1.7,0.99l-1.09,0.88L1590.32,41.3z M1589.69,40.93l1.39,4.4l0.44-0.35l-0.43-1.32l1.38-1.11
			l1.2,0.7l0.44-0.35l-4.01-2.29L1589.69,40.93z M1586.2,43.42l-0.47,0.3l2.3,3.63l0.47-0.3l-1.08-1.71l2.76,0.65l0.6-0.38
			l-3.04-0.73l0.69-2.87l-0.59,0.37l-0.62,2.65L1586.2,43.42z M1584.84,44.25l-0.48,0.28l2.18,3.71l0.48-0.28L1584.84,44.25z
			 M1583.26,49.9l2.46-1.21l-0.22-0.45l-1.97,0.97l-1.68-3.41l-0.5,0.24L1583.26,49.9z M1579.41,49.31l0.95-0.36
			c0.54-0.21,0.93-0.05,1.09,0.38c0.16,0.42-0.02,0.8-0.57,1.01l-0.95,0.36L1579.41,49.31z M1579.25,48.88l-0.49-1.29l0.82-0.31
			c0.54-0.2,0.91-0.11,1.07,0.32c0.17,0.44-0.04,0.77-0.58,0.97L1579.25,48.88z M1580.88,48.47c0.28-0.22,0.44-0.62,0.26-1.09
			c-0.26-0.69-0.9-0.88-1.73-0.56l-1.32,0.5l1.53,4.02l1.45-0.55c0.82-0.31,1.18-0.91,0.9-1.64
			C1581.79,48.69,1581.35,48.42,1580.88,48.47z M1576.97,52.25c0.94-0.26,1.47-1.02,1.16-2.15l-0.69-2.5l-0.53,0.15l0.67,2.44
			c0.24,0.88-0.07,1.41-0.73,1.6c-0.67,0.18-1.21-0.11-1.45-0.99l-0.67-2.43l-0.53,0.15l0.69,2.5
			C1575.19,52.13,1576.03,52.51,1576.97,52.25z M1573.43,49.95c0.09,0.47-0.16,0.84-0.73,0.95l-1.01,0.19l-0.3-1.57l1.01-0.19
			C1572.97,49.22,1573.34,49.47,1573.43,49.95z M1572.8,51.38c0.85-0.16,1.33-0.71,1.17-1.53c-0.16-0.83-0.8-1.16-1.65-1l-1.56,0.3
			l0.8,4.22l0.54-0.1l-0.32-1.69L1572.8,51.38z M1567.49,49.44l0.33,4.29l2.73-0.21l-0.04-0.5l-2.18,0.17l-0.11-1.46l1.98-0.15
			l-0.04-0.49l-1.98,0.15l-0.1-1.35l2.18-0.17l-0.04-0.49L1567.49,49.44z M1564.21,50.05l1.01-0.04c0.57-0.02,0.91,0.25,0.92,0.73
			c0.02,0.48-0.3,0.77-0.87,0.79l-1.01,0.04L1564.21,50.05z M1565.05,52.02l1.3,1.77l0.63-0.02l-1.34-1.79
			c0.68-0.12,1.08-0.54,1.05-1.25c-0.03-0.81-0.6-1.23-1.47-1.19l-1.57,0.06l0.15,4.3l0.55-0.02l-0.07-1.82L1565.05,52.02z
			 M1558.72,53.02c0.27,0.26,0.72,0.49,1.3,0.55c0.83,0.1,1.49-0.27,1.58-1c0.07-0.59-0.18-0.97-0.81-1.29l-0.64-0.34
			c-0.38-0.2-0.6-0.38-0.56-0.74c0.05-0.42,0.44-0.59,0.91-0.53c0.49,0.06,0.86,0.28,1.16,0.59l0.07-0.58
			c-0.29-0.26-0.72-0.44-1.18-0.49c-0.74-0.09-1.41,0.22-1.5,0.96c-0.08,0.67,0.35,1.01,0.82,1.27l0.6,0.32
			c0.43,0.24,0.64,0.42,0.6,0.8c-0.05,0.44-0.44,0.63-0.99,0.57c-0.5-0.06-0.93-0.27-1.28-0.66L1558.72,53.02z M1557.01,49.38
			l0.26,1.95l-1.36-0.32L1557.01,49.38z M1556.93,48.65l-2.62,3.8l0.55,0.13l0.77-1.15l1.72,0.4l0.19,1.37l0.55,0.13l-0.65-4.57
			L1556.93,48.65z M1551.7,51.55c0.14,0.16,0.41,0.37,0.74,0.46c0.8,0.22,1.34-0.1,1.62-1.1l0.77-2.77L1554.3,48l-0.76,2.75
			c-0.19,0.69-0.48,0.91-0.97,0.78c-0.3-0.08-0.5-0.26-0.71-0.52L1551.7,51.55z M1552.19,47.35l-0.52-0.17l-1.35,4.08l0.52,0.17
			L1552.19,47.35z M1548.02,50.34l3.26-3.25l-0.51-0.23l-2.68,2.71l0.22-3.81l-0.53-0.24l-0.23,4.6L1548.02,50.34z M1544.37,44.23
			l1.3,0.75l-1.91,3.29l0.48,0.28l1.91-3.29l1.3,0.75l0.25-0.42l-3.07-1.78L1544.37,44.23z M1542.82,43.45l-0.5,1.9l-1.14-0.81
			L1542.82,43.45z M1543.02,42.75l-3.87,2.52l0.46,0.33l1.15-0.77l1.44,1.03l-0.35,1.34l0.46,0.33l1.13-4.47L1543.02,42.75z
			 M1536.51,43.26l2.18,1.67l0.3-0.39l-1.74-1.33l2.31-3.01l-0.44-0.34L1536.51,43.26z"/>
		<path class="st7" d="M1591.48,30.53c0,0.52-0.38,0.92-0.88,0.92c-0.51,0-0.88-0.4-0.88-0.92c0-0.51,0.38-0.92,0.88-0.92
			C1591.11,29.61,1591.48,30.01,1591.48,30.53 M1590.6,31.88c0.77,0,1.35-0.58,1.35-1.36c0-0.77-0.55-1.35-1.32-1.35
			c-0.16,0-0.33,0.05-0.44,0.12l0.84-1.46h-0.53l-0.91,1.59c-0.26,0.45-0.35,0.78-0.35,1.1C1589.25,31.3,1589.82,31.88,1590.6,31.88
			z M1587.21,31.37l0.73-0.88c0.44-0.55,0.82-1.02,0.82-1.59c0-0.69-0.46-1.12-1.19-1.12c-0.47,0-0.91,0.21-1.18,0.49v0.52
			c0.28-0.29,0.68-0.55,1.14-0.55c0.48,0,0.73,0.29,0.73,0.69c0,0.5-0.33,0.88-0.74,1.38l-1.22,1.5v0.03h2.55v-0.45H1587.21z
			 M1583.73,29.13c0-0.52,0.38-0.92,0.88-0.92c0.51,0,0.88,0.4,0.88,0.92c0,0.51-0.38,0.92-0.88,0.92
			C1584.1,30.05,1583.73,29.65,1583.73,29.13z M1584.61,27.78c-0.77,0-1.35,0.59-1.35,1.36c0,0.77,0.55,1.35,1.32,1.35
			c0.16,0,0.33-0.05,0.44-0.12l-0.84,1.46h0.53l0.91-1.59c0.26-0.45,0.35-0.78,0.35-1.1C1585.96,28.36,1585.39,27.78,1584.61,27.78z
			 M1580.46,28.29h1.61l-0.92,1.44v0.02c0.7-0.03,1.23,0.27,1.23,0.86c0,0.53-0.38,0.83-0.9,0.83c-0.39,0-0.77-0.15-1.05-0.43v0.54
			c0.25,0.2,0.58,0.33,1.09,0.33c0.72,0,1.33-0.49,1.33-1.27c0-0.65-0.44-1.09-1.03-1.17l1-1.59v-0.02h-2.36V28.29z M1578.62,29.32
			c-0.19,0-0.36,0.02-0.47,0.06v-1.1h1.67v-0.46h-2.09v2.11c0.27-0.11,0.48-0.19,0.84-0.19c0.54,0,0.98,0.32,0.98,0.84
			c0,0.53-0.44,0.85-0.98,0.85c-0.39,0-0.72-0.15-1.01-0.43v0.55c0.25,0.2,0.58,0.32,1.03,0.32c0.81,0,1.43-0.47,1.43-1.29
			C1580.03,29.79,1579.4,29.32,1578.62,29.32z M1575.45,31.37l0.73-0.88c0.44-0.55,0.82-1.02,0.82-1.59c0-0.69-0.46-1.12-1.19-1.12
			c-0.47,0-0.91,0.21-1.18,0.49v0.52c0.28-0.29,0.68-0.55,1.14-0.55c0.48,0,0.73,0.29,0.73,0.69c0,0.5-0.33,0.88-0.74,1.38
			l-1.22,1.5v0.03h2.55v-0.45H1575.45z M1571.83,28.29h1.61l-0.92,1.44v0.02c0.7-0.03,1.24,0.27,1.24,0.86
			c0,0.53-0.38,0.83-0.9,0.83c-0.39,0-0.77-0.15-1.05-0.43v0.54c0.25,0.2,0.58,0.33,1.09,0.33c0.72,0,1.33-0.49,1.33-1.27
			c0-0.65-0.44-1.09-1.03-1.17l1-1.59v-0.02h-2.36V28.29z M1569.89,28.24c0.64,0,0.99,0.66,0.99,1.59s-0.34,1.59-0.99,1.59
			c-0.65,0-0.99-0.66-0.99-1.59S1569.24,28.24,1569.89,28.24z M1569.89,31.88c0.89,0,1.49-0.84,1.49-2.05c0-1.22-0.6-2.05-1.49-2.05
			c-0.89,0-1.49,0.84-1.49,2.05C1568.4,31.05,1569,31.88,1569.89,31.88z M1566.29,31.37l0.73-0.88c0.44-0.55,0.82-1.02,0.82-1.59
			c0-0.69-0.46-1.12-1.19-1.12c-0.47,0-0.91,0.21-1.18,0.49v0.52c0.28-0.29,0.68-0.55,1.14-0.55c0.48,0,0.73,0.29,0.73,0.69
			c0,0.5-0.33,0.88-0.74,1.38l-1.22,1.5v0.03h2.55v-0.45H1566.29z M1563.56,28.24c0.64,0,0.99,0.66,0.99,1.59s-0.34,1.59-0.99,1.59
			c-0.65,0-0.99-0.66-0.99-1.59S1562.91,28.24,1563.56,28.24z M1563.56,31.88c0.89,0,1.49-0.84,1.49-2.05c0-1.22-0.6-2.05-1.49-2.05
			c-0.89,0-1.49,0.84-1.49,2.05C1562.07,31.05,1562.67,31.88,1563.56,31.88z M1560.55,27.83h-0.5l-1.41,3.06v0.03h1.88v0.9h0.47
			v-0.9h0.66v-0.43h-0.66v-0.96h-0.47v0.96h-1.18L1560.55,27.83z M1556.17,31.51c0,0.2,0.16,0.35,0.35,0.35
			c0.19,0,0.34-0.15,0.34-0.35c0-0.2-0.16-0.36-0.34-0.36C1556.32,31.15,1556.17,31.31,1556.17,31.51z M1556.05,28.93
			c-0.05-0.03-0.16-0.05-0.28-0.05c-0.32,0-0.59,0.19-0.72,0.44v-0.38h-0.49v2.89h0.49v-1.94c0.1-0.34,0.36-0.54,0.67-0.54
			c0.12,0,0.25,0.03,0.33,0.08V28.93z M1553.66,27.83h-0.49v3.04l-2.13-3.04h-0.49v3.99h0.49v-3.17l2.23,3.17h0.38V27.83z
			 M1547.74,31.51c0,0.2,0.16,0.35,0.35,0.35c0.19,0,0.34-0.15,0.34-0.35c0-0.2-0.16-0.36-0.34-0.36
			C1547.9,31.15,1547.74,31.31,1547.74,31.51z M1546.61,30.94c-0.15,0.27-0.42,0.45-0.73,0.45c-0.55,0-0.86-0.43-0.86-1.03
			c0-0.6,0.32-1.04,0.86-1.04c0.31,0,0.59,0.17,0.73,0.45V30.94z M1546.61,31.62c0,0.62-0.4,0.93-0.92,0.93
			c-0.34,0-0.64-0.09-0.93-0.36v0.54c0.22,0.16,0.56,0.26,0.93,0.26c0.69,0,1.41-0.39,1.41-1.4v-2.65h-0.49v0.32
			c-0.14-0.2-0.45-0.38-0.81-0.38c-0.84,0-1.29,0.7-1.29,1.47s0.44,1.47,1.29,1.47c0.36,0,0.66-0.19,0.81-0.39V31.62z
			 M1546.28,27.41h-0.32l-0.19,0.32c-0.08,0.12-0.14,0.24-0.14,0.38c0,0.2,0.14,0.33,0.32,0.33c0.19,0,0.33-0.13,0.33-0.31
			c0-0.16-0.11-0.27-0.27-0.29L1546.28,27.41z M1542.89,29.3c0.47,0,0.68,0.36,0.7,0.79h-1.49
			C1542.19,29.55,1542.5,29.3,1542.89,29.3z M1544.06,30.47v-0.18c0-0.85-0.4-1.41-1.18-1.41c-0.77,0-1.29,0.63-1.29,1.53
			c0,0.91,0.56,1.48,1.39,1.48c0.34,0,0.64-0.07,0.88-0.25v-0.45c-0.26,0.2-0.49,0.27-0.82,0.27c-0.53,0-0.95-0.32-0.97-0.99
			H1544.06z M1538.8,28.28h0.94c0.53,0,0.83,0.27,0.83,0.71s-0.31,0.71-0.83,0.71h-0.94V28.28z M1539.51,30.14l1.14,1.69h0.59
			l-1.18-1.71c0.63-0.09,1.02-0.46,1.02-1.12c0-0.75-0.52-1.16-1.33-1.16h-1.46v3.99h0.51v-1.69H1539.51z"/>
	</g>
</g>
<rect x="2052.83" y="15.39" class="st8" width="255.12" height="141.73"/>
<rect x="2052.83" y="-137.14" class="st9" width="255.12" height="141.73"/>
<polygon class="st10" points="2193.34,-61.51 2193.34,-54.14 2198.34,-54.14 2198.34,-55.5 2194.85,-55.5 2194.85,-57.25 
	2198.02,-57.25 2198.02,-58.56 2194.85,-58.56 2194.85,-60.17 2198.34,-60.17 2198.34,-61.51 "/>
<rect x="2199.47" y="-61.94" class="st10" width="1.49" height="7.8"/>
<polygon class="st10" points="2205.23,-54.14 2207.27,-59.51 2205.77,-59.51 2204.56,-55.94 2203.32,-59.51 2201.76,-59.51 
	2203.79,-54.14 "/>
<path class="st10" d="M2209.69-61.05c0-0.49-0.41-0.85-0.88-0.85c-0.48,0-0.89,0.36-0.89,0.85c0,0.5,0.41,0.85,0.89,0.85
	C2209.29-60.2,2209.69-60.55,2209.69-61.05 M2209.56-59.51h-1.49v5.36h1.49V-59.51z"/>
<path class="st10" d="M2212.48-61.05c0-0.49-0.41-0.85-0.88-0.85c-0.48,0-0.89,0.36-0.89,0.85c0,0.5,0.41,0.85,0.89,0.85
	C2212.07-60.2,2212.48-60.55,2212.48-61.05 M2212.35-59.51h-1.49v5.57c0,0.48-0.2,0.68-0.64,0.68c-0.11,0-0.24-0.02-0.32-0.04v1.19
	c0.14,0.05,0.38,0.06,0.58,0.06c1.24,0,1.87-0.7,1.87-1.88V-59.51z"/>
<path class="st10" d="M2213.39-54.56c0.46,0.35,1.19,0.54,1.9,0.54c1.26,0,2.21-0.58,2.21-1.66c0-0.86-0.47-1.34-1.49-1.63
	l-0.6-0.18c-0.37-0.12-0.58-0.22-0.58-0.5c0-0.3,0.31-0.46,0.72-0.46c0.61,0,1.16,0.28,1.64,0.66v-1.36
	c-0.48-0.31-1.03-0.48-1.72-0.48c-1.2,0-2.1,0.64-2.1,1.68c0,0.92,0.59,1.37,1.52,1.62l0.52,0.14c0.37,0.12,0.61,0.23,0.61,0.53
	c0,0.32-0.35,0.46-0.79,0.46c-0.59,0-1.33-0.28-1.85-0.74V-54.56z"/>
<polygon class="st10" points="2226.52,-55.5 2223.11,-55.5 2226.57,-61.46 2226.57,-61.51 2220.87,-61.51 2220.87,-60.17 
	2224.19,-60.17 2220.71,-54.19 2220.71,-54.14 2226.52,-54.14 "/>
<path class="st10" d="M2229.19-61.05c0-0.49-0.41-0.85-0.88-0.85c-0.48,0-0.89,0.36-0.89,0.85c0,0.5,0.41,0.85,0.89,0.85
	C2228.79-60.2,2229.19-60.55,2229.19-61.05 M2229.06-59.51h-1.49v5.36h1.49V-59.51z"/>
<path class="st10" d="M2232.58-58.44c0.59,0,0.91,0.41,0.95,0.98h-2.03C2231.67-58.13,2232.09-58.44,2232.58-58.44 M2234.91-56.48
	v-0.48c0-1.58-0.8-2.66-2.36-2.66c-1.46,0-2.52,1.16-2.52,2.84c0,1.7,1.12,2.76,2.75,2.76c0.72,0,1.32-0.14,1.76-0.47v-1.22
	c-0.53,0.34-0.95,0.47-1.54,0.47c-0.79,0-1.43-0.36-1.55-1.24H2234.91z"/>
<path class="st10" d="M2239.35-55.94c-0.17,0.37-0.56,0.62-1.01,0.62c-0.8,0-1.28-0.65-1.28-1.5c0-0.86,0.48-1.51,1.28-1.51
	c0.43,0,0.84,0.26,1.01,0.62V-55.94z M2239.35-54.14h1.5v-7.8h-1.5v2.88c-0.24-0.29-0.77-0.56-1.34-0.56
	c-1.56,0-2.44,1.27-2.44,2.81c0,1.54,0.88,2.8,2.44,2.8c0.58,0,1.1-0.28,1.34-0.56V-54.14z"/>
<path class="st10" d="M2243.75-61.05c0-0.49-0.41-0.85-0.88-0.85c-0.48,0-0.89,0.36-0.89,0.85c0,0.5,0.41,0.85,0.89,0.85
	C2243.34-60.2,2243.75-60.55,2243.75-61.05 M2243.62-59.51h-1.49v5.36h1.49V-59.51z"/>
<path class="st10" d="M2244.91-54.14h1.49v-3.4c0.12-0.47,0.52-0.74,0.97-0.74c0.59,0,0.88,0.38,0.88,0.95v3.19h1.49v-3.5
	c0-1.19-0.68-1.98-1.9-1.98c-0.62,0-1.15,0.28-1.44,0.61v-0.49h-1.49V-54.14z M2246.58-51.44h0.91l0.32-0.47
	c0.22-0.29,0.4-0.58,0.4-0.94c0-0.52-0.38-0.83-0.83-0.83c-0.48,0-0.85,0.32-0.85,0.77c0,0.4,0.26,0.66,0.6,0.72L2246.58-51.44z"/>
<path class="st10" d="M2250.75-54.56c0.46,0.35,1.19,0.54,1.9,0.54c1.26,0,2.21-0.58,2.21-1.66c0-0.86-0.47-1.34-1.49-1.63
	l-0.6-0.18c-0.37-0.12-0.58-0.22-0.58-0.5c0-0.3,0.31-0.46,0.72-0.46c0.61,0,1.16,0.28,1.64,0.66v-1.36
	c-0.48-0.31-1.03-0.48-1.72-0.48c-1.2,0-2.1,0.64-2.1,1.68c0,0.92,0.59,1.37,1.52,1.62l0.52,0.14c0.37,0.12,0.61,0.23,0.61,0.53
	c0,0.32-0.35,0.46-0.79,0.46c-0.59,0-1.33-0.28-1.85-0.74V-54.56z M2254.63-61.91h-1.18l-0.59,0.83l-0.59-0.83h-1.18l1.14,1.74h1.25
	L2254.63-61.91z"/>
<polygon class="st11" points="2195.62,-43.4 2197.75,-48.92 2197.03,-48.92 2195.29,-44.33 2193.57,-48.92 2192.82,-48.92 
	2194.95,-43.4 "/>
<path class="st11" d="M2200.34-44.39c-0.11,0.3-0.5,0.5-0.93,0.5c-0.49,0-0.95-0.23-0.95-0.71c0-0.48,0.47-0.69,0.95-0.69
	c0.42,0,0.82,0.2,0.93,0.49V-44.39z M2200.34-45.53c-0.17-0.15-0.59-0.32-1-0.32c-0.85,0-1.52,0.5-1.52,1.25
	c0,0.79,0.67,1.28,1.48,1.28c0.47,0,0.88-0.21,1.04-0.37v0.3h0.66v-2.71c0-0.85-0.56-1.37-1.5-1.37c-0.49,0-0.97,0.14-1.24,0.33
	v0.64c0.33-0.22,0.69-0.35,1.13-0.35c0.59,0,0.95,0.31,0.95,0.8V-45.53z"/>
<rect x="2202.15" y="-49.25" class="st11" width="0.68" height="5.85"/>
<path class="st11" d="M2206.67-44.58c-0.21,0.41-0.6,0.66-1.03,0.66c-0.77,0-1.22-0.62-1.22-1.47c0-0.85,0.45-1.47,1.22-1.47
	c0.42,0,0.82,0.24,1.03,0.66V-44.58z M2206.67-43.4h0.68v-5.85h-0.68v2.32c-0.2-0.29-0.63-0.55-1.13-0.55c-1.17,0-1.8,0.95-1.8,2.08
	c0,1.13,0.63,2.08,1.8,2.08c0.5,0,0.93-0.26,1.13-0.55V-43.4z"/>
<path class="st11" d="M2210.05-46.9c0.65,0,0.94,0.5,0.97,1.09h-2.06C2209.09-46.55,2209.52-46.9,2210.05-46.9 M2211.68-45.28v-0.24
	c0-1.17-0.56-1.95-1.64-1.95c-1.06,0-1.78,0.87-1.78,2.11c0,1.26,0.77,2.04,1.93,2.04c0.48,0,0.89-0.1,1.22-0.35v-0.62
	c-0.36,0.27-0.68,0.38-1.13,0.38c-0.73,0-1.31-0.44-1.34-1.37H2211.68z"/>
<path class="st11" d="M2212.4-43.71c0.3,0.23,0.79,0.4,1.31,0.4c0.84,0,1.49-0.42,1.49-1.16c0-0.57-0.33-0.92-0.94-1.13l-0.61-0.21
	c-0.38-0.13-0.59-0.24-0.59-0.57c0-0.34,0.34-0.52,0.76-0.52c0.49,0,0.86,0.2,1.19,0.48v-0.7c-0.32-0.22-0.74-0.35-1.19-0.35
	c-0.79,0-1.41,0.42-1.41,1.13c0,0.65,0.4,0.94,1.01,1.13l0.55,0.19c0.35,0.12,0.58,0.28,0.58,0.58c0,0.4-0.39,0.56-0.83,0.56
	c-0.49,0-0.94-0.2-1.31-0.54V-43.71z"/>
<path class="st11" d="M2218.84-46.2c0.21-0.41,0.6-0.66,1.03-0.66c0.77,0,1.21,0.62,1.21,1.47c0,0.85-0.45,1.47-1.21,1.47
	c-0.42,0-0.82-0.24-1.03-0.66V-46.2z M2218.84-43.86c0.21,0.29,0.63,0.55,1.12,0.55c1.18,0,1.8-0.97,1.8-2.08
	c0-1.11-0.62-2.08-1.8-2.08c-0.49,0-0.92,0.26-1.12,0.55v-0.47h-0.68v5.53h0.68V-43.86z"/>
<path class="st11" d="M2224.73-47.41c-0.07-0.04-0.22-0.06-0.39-0.06c-0.44,0-0.82,0.26-0.99,0.6v-0.52h-0.68v4h0.68v-2.68
	c0.14-0.47,0.5-0.75,0.93-0.75c0.17,0,0.34,0.04,0.45,0.11V-47.41z"/>
<path class="st11" d="M2226.34-48.6c0-0.24-0.2-0.43-0.44-0.43c-0.23,0-0.43,0.19-0.43,0.43c0,0.23,0.2,0.43,0.43,0.43
	C2226.15-48.17,2226.34-48.36,2226.34-48.6 M2226.25-47.39h-0.68v4h0.68V-47.39z"/>
<path class="st11" d="M2228.95-46.9c0.65,0,0.94,0.5,0.97,1.09h-2.06C2227.99-46.55,2228.42-46.9,2228.95-46.9 M2230.58-45.28v-0.24
	c0-1.17-0.56-1.95-1.64-1.95c-1.06,0-1.78,0.87-1.78,2.11c0,1.26,0.77,2.04,1.93,2.04c0.48,0,0.89-0.1,1.21-0.35v-0.62
	c-0.36,0.27-0.68,0.38-1.13,0.38c-0.73,0-1.31-0.44-1.34-1.37H2230.58z"/>
<polygon class="st11" points="2232.86,-45.56 2234.82,-47.39 2233.95,-47.39 2232.18,-45.71 2232.18,-49.25 2231.5,-49.25 
	2231.5,-43.4 2232.18,-43.4 2232.18,-45.38 2234.02,-43.4 2234.86,-43.4 "/>
<path class="st11" d="M2235.29-43.71c0.3,0.23,0.79,0.4,1.31,0.4c0.84,0,1.49-0.42,1.49-1.16c0-0.57-0.33-0.92-0.94-1.13l-0.61-0.21
	c-0.38-0.13-0.59-0.24-0.59-0.57c0-0.34,0.34-0.52,0.76-0.52c0.49,0,0.86,0.2,1.19,0.48v-0.7c-0.32-0.22-0.74-0.35-1.19-0.35
	c-0.79,0-1.41,0.42-1.41,1.13c0,0.65,0.4,0.94,1.01,1.13l0.55,0.19c0.35,0.12,0.58,0.28,0.58,0.58c0,0.4-0.39,0.56-0.83,0.56
	c-0.49,0-0.94-0.2-1.31-0.54V-43.71z M2237.9-49.21h-0.58l-0.56,0.78l-0.56-0.78h-0.58l0.83,1.22h0.63L2237.9-49.21z"/>
<path class="st11" d="M2238.83-43.71c0.3,0.23,0.79,0.4,1.31,0.4c0.84,0,1.49-0.42,1.49-1.16c0-0.57-0.33-0.92-0.94-1.13l-0.61-0.21
	c-0.38-0.13-0.59-0.24-0.59-0.57c0-0.34,0.34-0.52,0.76-0.52c0.49,0,0.86,0.2,1.19,0.48v-0.7c-0.32-0.22-0.74-0.35-1.19-0.35
	c-0.79,0-1.41,0.42-1.41,1.13c0,0.65,0.4,0.94,1.01,1.13l0.55,0.19c0.35,0.12,0.58,0.28,0.58,0.58c0,0.4-0.39,0.56-0.83,0.56
	c-0.49,0-0.94-0.2-1.31-0.54V-43.71z"/>
<path class="st11" d="M2243.17-48.17h1.92v-0.55h-1.92V-48.17z M2244.1-46.9c0.65,0,0.94,0.5,0.97,1.09h-2.06
	C2243.14-46.55,2243.57-46.9,2244.1-46.9z M2245.73-45.28v-0.24c0-1.17-0.56-1.95-1.64-1.95c-1.06,0-1.78,0.87-1.78,2.11
	c0,1.26,0.77,2.04,1.93,2.04c0.48,0,0.89-0.1,1.21-0.35v-0.62c-0.36,0.27-0.68,0.38-1.13,0.38c-0.73,0-1.31-0.44-1.34-1.37H2245.73z
	"/>
<path class="st11" d="M2249.29-44.58c-0.21,0.41-0.6,0.66-1.03,0.66c-0.77,0-1.22-0.62-1.22-1.47c0-0.85,0.45-1.47,1.22-1.47
	c0.42,0,0.82,0.24,1.03,0.66V-44.58z M2249.29-43.4h0.68v-5.85h-0.68v2.32c-0.2-0.29-0.63-0.55-1.13-0.55c-1.17,0-1.8,0.95-1.8,2.08
	c0,1.13,0.63,2.08,1.8,2.08c0.5,0,0.93-0.26,1.13-0.55V-43.4z"/>
<path class="st11" d="M2251.74-48.17h1.92v-0.55h-1.92V-48.17z M2252.67-46.9c0.65,0,0.94,0.5,0.97,1.09h-2.06
	C2251.71-46.55,2252.14-46.9,2252.67-46.9z M2254.3-45.28v-0.24c0-1.17-0.56-1.95-1.64-1.95c-1.06,0-1.78,0.87-1.78,2.11
	c0,1.26,0.77,2.04,1.93,2.04c0.48,0,0.89-0.1,1.21-0.35v-0.62c-0.36,0.27-0.68,0.38-1.13,0.38c-0.73,0-1.31-0.44-1.34-1.37H2254.3z"
	/>
<polygon class="st11" points="2256.29,-46.82 2257.22,-46.82 2257.22,-47.39 2256.29,-47.39 2256.29,-48.44 2255.61,-48.44 
	2255.61,-47.39 2254.78,-47.39 2254.78,-46.82 2255.61,-46.82 2255.61,-43.4 2256.29,-43.4 "/>
<path class="st11" d="M2258.45-48.17h1.92v-0.55h-1.92V-48.17z M2260.17-44.39c-0.11,0.3-0.5,0.5-0.93,0.5
	c-0.49,0-0.95-0.23-0.95-0.71c0-0.48,0.47-0.69,0.95-0.69c0.42,0,0.82,0.2,0.93,0.49V-44.39z M2260.17-45.53
	c-0.17-0.15-0.58-0.32-1-0.32c-0.85,0-1.52,0.5-1.52,1.25c0,0.79,0.67,1.28,1.48,1.28c0.47,0,0.88-0.21,1.04-0.37v0.3h0.66v-2.71
	c0-0.85-0.56-1.37-1.5-1.37c-0.49,0-0.97,0.14-1.24,0.33v0.64c0.33-0.22,0.69-0.35,1.13-0.35c0.58,0,0.95,0.31,0.95,0.8V-45.53z"/>
<path class="st11" d="M2262.75-48.6c0-0.24-0.2-0.43-0.44-0.43c-0.23,0-0.43,0.19-0.43,0.43c0,0.23,0.2,0.43,0.43,0.43
	C2262.55-48.17,2262.75-48.36,2262.75-48.6 M2262.65-47.39h-0.68v4.41c0,0.45-0.19,0.61-0.54,0.61c-0.08,0-0.18-0.02-0.23-0.03v0.58
	c0.07,0.03,0.21,0.04,0.29,0.04c0.75,0,1.16-0.4,1.16-1.15V-47.39z"/>
<path class="st11" d="M2263.61-43.71c0.3,0.23,0.79,0.4,1.31,0.4c0.84,0,1.49-0.42,1.49-1.16c0-0.57-0.33-0.92-0.94-1.13l-0.61-0.21
	c-0.38-0.13-0.59-0.24-0.59-0.57c0-0.34,0.34-0.52,0.76-0.52c0.49,0,0.86,0.2,1.19,0.48v-0.7c-0.32-0.22-0.74-0.35-1.19-0.35
	c-0.79,0-1.41,0.42-1.41,1.13c0,0.65,0.4,0.94,1.01,1.13l0.55,0.19c0.35,0.12,0.58,0.28,0.58,0.58c0,0.4-0.39,0.56-0.83,0.56
	c-0.49,0-0.94-0.2-1.31-0.54V-43.71z"/>
<path class="st10" d="M2084.85-103.17c1.76,1.67,2.72,4,2.67,6.43c0,3.57-2.77,6.06-7.01,6.42l0-2.16c2.51-0.26,4.85-1.48,4.85-4.26
	c0-2.73-1.18-4.1-2.53-5.39c0.64-0.22,1.26-0.53,1.83-0.9C2084.72-103.08,2084.79-103.12,2084.85-103.17"/>
<path class="st10" d="M2079.97-119.38h1.08h0.54v5.52h0l0,5.8c-0.01,0.56,0.11,1.11,0.34,1.62c-0.53,0.28-1.12,0.44-1.71,0.5
	c-0.09,0.01-0.24,0.02-0.4,0.03c-0.26-0.69-0.39-1.41-0.38-2.15v-10.78l0-0.01v-0.53H2079.97z"/>
<path class="st10" d="M2082.67-116.78c3,0.89,4.85,3.09,4.85,6.02c0,1.94-0.81,5.09-3.46,6.82c-1.36,0.86-2.94,1.29-4.54,1.26
	c-1.1-0.03-2.19,0.21-3.17,0.71c-0.89,0.48-1.61,1.23-2.06,2.15c-0.47,0.96-0.74,2.02-0.79,3.09c0,1.94,1.15,3.12,2.7,3.75v2.27
	c-3-0.89-4.85-3.09-4.85-6.02c0-1.94,0.81-5.09,3.46-6.82c2.67-1.77,4.87-0.86,6.92-1.61c0.29-0.1,0.57-0.23,0.84-0.38
	c0.87-0.48,1.57-1.22,2.01-2.12c0.47-0.96,0.74-2.02,0.79-3.09c0-1.94-1.15-3.12-2.7-3.75V-116.78z"/>
<path class="st10" d="M2078.36-117.18v2.16c-2.51,0.26-4.85,1.48-4.85,4.26c0,2.73,1.18,4.1,2.53,5.39
	c-0.64,0.22-1.26,0.53-1.83,0.9c-0.06,0.04-0.13,0.09-0.19,0.13c-1.76-1.67-2.72-4-2.67-6.43
	C2071.35-114.33,2074.12-116.82,2078.36-117.18"/>
<path class="st10" d="M2079.05-101.58L2079.05-101.58c0.26,0.68,0.39,1.41,0.38,2.14v8.88v1.9v0.54h-0.54h-1.08h-0.54v-0.54v-10.78
	c0.01-0.56-0.11-1.11-0.35-1.62c0.54-0.28,1.12-0.45,1.72-0.5C2078.75-101.56,2078.9-101.57,2079.05-101.58"/>
<polygon class="st11" points="2096.07,-98.68 2103.28,-98.68 2103.28,-100.97 2098.73,-100.97 2098.73,-108.83 2096.07,-108.83 "/>
<path class="st11" d="M2110.05-105.32c0,0.76-0.43,1.27-1.39,1.27h-1.54v-2.55h1.54C2109.62-106.59,2110.05-106.1,2110.05-105.32
	 M2108.95-101.83c2.2,0,3.69-1.24,3.69-3.49c0-2.26-1.49-3.5-3.69-3.5h-4.45v10.15h2.63v-3.16H2108.95z"/>
<polygon class="st11" points="2122.3,-108.83 2119.43,-108.83 2117.54,-105.93 2115.71,-108.83 2112.75,-108.83 2116,-103.87 
	2112.58,-98.68 2115.48,-98.68 2117.49,-101.8 2119.51,-98.68 2122.47,-98.68 2119.05,-103.87 "/>
<path class="st11" d="M2126.85-99.47c0.69,0.55,1.82,0.94,3.19,0.94c1.97,0,3.42-1.04,3.42-2.78c0-1.41-0.69-2.22-2.25-2.81
	l-1.6-0.63c-0.94-0.36-1.52-0.73-1.52-1.59c0-1.01,0.88-1.5,2-1.5c1.17,0,2.08,0.41,2.89,1.06v-1.37c-0.76-0.53-1.8-0.83-2.91-0.83
	c-1.75,0-3.26,0.91-3.26,2.66c0,1.6,1.09,2.28,2.28,2.74l1.49,0.58c1.07,0.45,1.62,0.81,1.62,1.7c0,1.04-0.86,1.6-2.17,1.6
	c-1.19,0-2.25-0.38-3.19-1.19V-99.47z"/>
<polygon class="st11" points="2135.33,-108.83 2135.33,-98.68 2141.79,-98.68 2141.79,-99.85 2136.62,-99.85 2136.62,-103.3 
	2141.31,-103.3 2141.31,-104.46 2136.62,-104.46 2136.62,-107.67 2141.79,-107.67 2141.79,-108.83 "/>
<path class="st11" d="M2145.15-107.69h2.38c1.34,0,2.12,0.68,2.12,1.8c0,1.12-0.78,1.8-2.12,1.8h-2.38V-107.69z M2146.95-102.97
	l2.91,4.3h1.49l-3.01-4.35c1.6-0.23,2.6-1.17,2.6-2.86c0-1.92-1.32-2.94-3.37-2.94h-3.72v10.15h1.31v-4.3H2146.95z"/>
<polygon class="st11" points="2157.13,-98.68 2161.05,-108.83 2159.73,-108.83 2156.54,-100.4 2153.36,-108.83 2151.99,-108.83 
	2155.91,-98.68 "/>
<rect x="2162.6" y="-108.83" class="st11" width="1.31" height="10.15"/>
<path class="st11" d="M2165.79-99.47c0.69,0.55,1.82,0.94,3.19,0.94c1.97,0,3.42-1.04,3.42-2.78c0-1.41-0.69-2.22-2.25-2.81
	l-1.6-0.63c-0.94-0.36-1.52-0.73-1.52-1.59c0-1.01,0.88-1.5,2-1.5c1.17,0,2.08,0.41,2.89,1.06v-1.37c-0.76-0.53-1.8-0.83-2.91-0.83
	c-1.75,0-3.26,0.91-3.26,2.66c0,1.6,1.09,2.28,2.28,2.74l1.49,0.58c1.07,0.45,1.62,0.81,1.62,1.7c0,1.04-0.86,1.6-2.17,1.6
	c-1.19,0-2.25-0.38-3.19-1.19V-99.47z"/>
<path class="st11" d="M2173.78-99.47c0.69,0.55,1.82,0.94,3.19,0.94c1.97,0,3.42-1.04,3.42-2.78c0-1.41-0.69-2.22-2.25-2.81
	l-1.6-0.63c-0.94-0.36-1.52-0.73-1.52-1.59c0-1.01,0.88-1.5,2-1.5c1.17,0,2.08,0.41,2.89,1.06v-1.37c-0.76-0.53-1.8-0.83-2.91-0.83
	c-1.75,0-3.26,0.91-3.26,2.66c0,1.6,1.09,2.28,2.28,2.74l1.49,0.58c1.07,0.45,1.62,0.81,1.62,1.7c0,1.04-0.86,1.6-2.17,1.6
	c-1.19,0-2.25-0.38-3.19-1.19V-99.47z"/>
<polygon class="st11" points="2194.65,-27.4 2194.65,-25.91 2193.16,-25.91 2193.16,-25.35 2194.65,-25.35 2194.65,-23.86 
	2195.21,-23.86 2195.21,-25.35 2196.71,-25.35 2196.71,-25.91 2195.21,-25.91 2195.21,-27.4 "/>
<path class="st11" d="M2197.46-27.85h2.22l-1.27,2v0.03c0.97-0.04,1.71,0.38,1.71,1.2c0,0.74-0.52,1.14-1.24,1.14
	c-0.54,0-1.06-0.21-1.46-0.59v0.75c0.35,0.27,0.8,0.46,1.5,0.46c1,0,1.85-0.68,1.85-1.76c0-0.9-0.61-1.5-1.43-1.62l1.39-2.2v-0.03
	h-3.27V-27.85z"/>
<polygon class="st11" points="2204.99,-28.46 2204.99,-28.48 2201.26,-28.48 2201.26,-27.85 2204.01,-27.85 2201.76,-22.96 
	2202.48,-22.96 "/>
<polygon class="st11" points="2207.38,-28.48 2206.96,-28.48 2205.32,-27.65 2205.32,-26.93 2206.69,-27.63 2206.69,-22.96 
	2207.38,-22.96 "/>
<path class="st11" d="M2211.48-23.59l1.02-1.21c0.61-0.76,1.13-1.41,1.13-2.21c0-0.95-0.63-1.56-1.65-1.56
	c-0.66,0-1.26,0.29-1.63,0.67v0.72c0.39-0.4,0.94-0.77,1.57-0.77c0.67,0,1.02,0.4,1.02,0.95c0,0.69-0.46,1.22-1.03,1.91l-1.69,2.08
	v0.04h3.53v-0.63H2211.48z"/>
<path class="st11" d="M2215.88-26.42c-0.26,0-0.49,0.03-0.66,0.09v-1.52h2.31v-0.63h-2.9v2.93c0.38-0.15,0.67-0.26,1.17-0.26
	c0.75,0,1.36,0.44,1.36,1.16c0,0.74-0.61,1.17-1.35,1.17c-0.54,0-1-0.21-1.4-0.59v0.77c0.35,0.27,0.8,0.44,1.42,0.44
	c1.12,0,1.98-0.66,1.98-1.78C2217.82-25.77,2216.96-26.42,2215.88-26.42"/>
<polygon class="st11" points="2220.97,-28.48 2220.28,-28.48 2218.32,-24.24 2218.32,-24.21 2220.93,-24.21 2220.93,-22.96 
	2221.58,-22.96 2221.58,-24.21 2222.5,-24.21 2222.5,-24.8 2221.58,-24.8 2221.58,-26.13 2220.93,-26.13 2220.93,-24.8 
	2219.29,-24.8 "/>
<polygon class="st11" points="2225.54,-28.48 2224.85,-28.48 2222.9,-24.24 2222.9,-24.21 2225.5,-24.21 2225.5,-22.96 
	2226.16,-22.96 2226.16,-24.21 2227.07,-24.21 2227.07,-24.8 2226.16,-24.8 2226.16,-26.13 2225.5,-26.13 2225.5,-24.8 
	2223.86,-24.8 "/>
<path class="st11" d="M2228.65-23.59l1.02-1.21c0.61-0.76,1.13-1.41,1.13-2.21c0-0.95-0.63-1.56-1.65-1.56
	c-0.66,0-1.26,0.29-1.63,0.67v0.72c0.39-0.4,0.94-0.77,1.57-0.77c0.67,0,1.02,0.4,1.02,0.95c0,0.69-0.46,1.22-1.03,1.91l-1.69,2.08
	v0.04h3.53v-0.63H2228.65z"/>
<path class="st11" d="M2232.16-26.68c0-0.72,0.52-1.27,1.22-1.27c0.7,0,1.22,0.55,1.22,1.27c0,0.71-0.52,1.27-1.22,1.27
	C2232.68-25.41,2232.16-25.97,2232.16-26.68 M2233.38-28.56c-1.07,0-1.87,0.81-1.87,1.88c0,1.06,0.77,1.87,1.83,1.87
	c0.22,0,0.46-0.07,0.6-0.16l-1.16,2.02h0.73l1.26-2.2c0.36-0.63,0.49-1.08,0.49-1.53C2235.25-27.75,2234.46-28.56,2233.38-28.56z"/>
<path class="st11" d="M2237.97-27.92c0.89,0,1.37,0.92,1.37,2.21c0,1.29-0.48,2.2-1.37,2.2c-0.9,0-1.37-0.92-1.37-2.2
	C2236.6-27.01,2237.07-27.92,2237.97-27.92 M2237.97-22.88c1.23,0,2.06-1.16,2.06-2.84c0-1.68-0.83-2.84-2.06-2.84
	c-1.23,0-2.06,1.16-2.06,2.84C2235.91-24.04,2236.74-22.88,2237.97-22.88z"/>
<path class="st11" d="M2242.58-22.88c1.07,0,1.89-0.63,1.89-1.58c0-0.72-0.48-1.24-1.08-1.4c0.5-0.18,0.88-0.64,0.88-1.24
	c0-0.89-0.75-1.46-1.69-1.46c-0.94,0-1.68,0.57-1.68,1.46c0,0.6,0.37,1.06,0.88,1.24c-0.61,0.16-1.08,0.68-1.08,1.4
	C2240.7-23.51,2241.52-22.88,2242.58-22.88 M2242.58-26.16c-0.57,0-1.01-0.37-1.01-0.91c0-0.55,0.44-0.92,1.01-0.92
	c0.58,0,1.02,0.37,1.02,0.92C2243.6-26.53,2243.16-26.16,2242.58-26.16z M2242.58-23.45c-0.69,0-1.2-0.43-1.2-1.06
	c0-0.62,0.5-1.05,1.2-1.05c0.7,0,1.21,0.43,1.21,1.05C2243.79-23.88,2243.28-23.45,2242.58-23.45z"/>
<path class="st11" d="M2194.61-16.6c0.65,0,0.94,0.5,0.97,1.09h-2.06C2193.65-16.25,2194.08-16.6,2194.61-16.6 M2196.24-14.98v-0.24
	c0-1.17-0.56-1.95-1.64-1.95c-1.06,0-1.78,0.87-1.78,2.11c0,1.26,0.77,2.04,1.93,2.04c0.48,0,0.89-0.1,1.22-0.35v-0.62
	c-0.36,0.27-0.68,0.38-1.13,0.38c-0.73,0-1.31-0.44-1.34-1.37H2196.24z"/>
<rect x="2197.16" y="-18.95" class="st11" width="0.68" height="5.85"/>
<polygon class="st11" points="2200.81,-13.1 2202.37,-17.1 2201.66,-17.1 2200.5,-13.96 2199.33,-17.1 2198.6,-17.1 2200.14,-13.1 
	"/>
<path class="st11" d="M2203.91-18.3c0-0.24-0.2-0.43-0.44-0.43c-0.23,0-0.43,0.19-0.43,0.43c0,0.23,0.2,0.43,0.43,0.43
	C2203.71-17.87,2203.91-18.07,2203.91-18.3 M2203.81-17.1h-0.68v4h0.68V-17.1z"/>
<path class="st11" d="M2205.79-18.3c0-0.24-0.2-0.43-0.44-0.43c-0.23,0-0.43,0.19-0.43,0.43c0,0.23,0.2,0.43,0.43,0.43
	C2205.59-17.87,2205.79-18.07,2205.79-18.3 M2205.69-17.1h-0.68v4.41c0,0.45-0.19,0.61-0.54,0.61c-0.08,0-0.18-0.02-0.23-0.03v0.58
	c0.07,0.03,0.21,0.04,0.29,0.04c0.75,0,1.16-0.4,1.16-1.15V-17.1z"/>
<path class="st11" d="M2206.64-13.42c0.3,0.23,0.79,0.4,1.31,0.4c0.84,0,1.49-0.42,1.49-1.16c0-0.57-0.33-0.92-0.94-1.13l-0.61-0.21
	c-0.38-0.13-0.59-0.24-0.59-0.57c0-0.34,0.34-0.52,0.76-0.52c0.49,0,0.86,0.2,1.19,0.48v-0.7c-0.32-0.22-0.74-0.35-1.19-0.35
	c-0.79,0-1.41,0.42-1.41,1.13c0,0.65,0.4,0.94,1.01,1.13l0.55,0.19c0.35,0.12,0.58,0.28,0.58,0.58c0,0.4-0.39,0.56-0.83,0.56
	c-0.49,0-0.94-0.2-1.31-0.54V-13.42z"/>
<path class="st11" d="M2210.1-13.54c0,0.28,0.22,0.49,0.49,0.49c0.26,0,0.48-0.21,0.48-0.49c0-0.28-0.22-0.49-0.48-0.49
	C2210.31-14.04,2210.1-13.82,2210.1-13.54"/>
<polygon class="st11" points="2214.86,-13.68 2212.73,-13.68 2214.87,-17.06 2214.87,-17.1 2211.77,-17.1 2211.77,-16.52 
	2213.82,-16.52 2211.67,-13.14 2211.67,-13.1 2214.86,-13.1 "/>
<path class="st11" d="M2216.59-18.3c0-0.24-0.2-0.43-0.44-0.43c-0.23,0-0.43,0.19-0.43,0.43c0,0.23,0.2,0.43,0.43,0.43
	C2216.39-17.87,2216.59-18.07,2216.59-18.3 M2216.49-17.1h-0.68v4h0.68V-17.1z"/>
<path class="st11" d="M2219.2-16.6c0.65,0,0.94,0.5,0.97,1.09h-2.06C2218.23-16.25,2218.67-16.6,2219.2-16.6 M2220.83-14.98v-0.24
	c0-1.17-0.56-1.95-1.64-1.95c-1.06,0-1.78,0.87-1.78,2.11c0,1.26,0.77,2.04,1.93,2.04c0.48,0,0.89-0.1,1.21-0.35v-0.62
	c-0.36,0.27-0.68,0.38-1.13,0.38c-0.73,0-1.31-0.44-1.34-1.37H2220.83z"/>
<path class="st11" d="M2224.38-14.29c-0.21,0.41-0.6,0.66-1.03,0.66c-0.76,0-1.22-0.62-1.22-1.47c0-0.85,0.45-1.47,1.22-1.47
	c0.42,0,0.82,0.24,1.03,0.66V-14.29z M2224.38-13.1h0.68v-5.85h-0.68v2.32c-0.2-0.29-0.63-0.55-1.13-0.55c-1.17,0-1.8,0.95-1.8,2.08
	c0,1.13,0.63,2.08,1.8,2.08c0.5,0,0.93-0.26,1.13-0.55V-13.1z"/>
<path class="st11" d="M2227.04-18.3c0-0.24-0.2-0.43-0.44-0.43c-0.23,0-0.43,0.19-0.43,0.43c0,0.23,0.2,0.43,0.43,0.43
	C2226.84-17.87,2227.04-18.07,2227.04-18.3 M2226.94-17.1h-0.68v4h0.68V-17.1z"/>
<path class="st11" d="M2228.14-13.1h0.68v-2.71c0.14-0.43,0.55-0.75,1.02-0.75c0.6,0,0.88,0.39,0.88,0.95v2.51h0.68v-2.62
	c0-0.87-0.49-1.46-1.4-1.46c-0.51,0-0.95,0.27-1.18,0.59v-0.5h-0.68V-13.1z"/>
<path class="st11" d="M2232.31-13.42c0.3,0.23,0.79,0.4,1.31,0.4c0.84,0,1.49-0.42,1.49-1.16c0-0.57-0.33-0.92-0.94-1.13l-0.61-0.21
	c-0.38-0.13-0.59-0.24-0.59-0.57c0-0.34,0.34-0.52,0.76-0.52c0.49,0,0.86,0.2,1.19,0.48v-0.7c-0.32-0.22-0.74-0.35-1.19-0.35
	c-0.79,0-1.41,0.42-1.41,1.13c0,0.65,0.4,0.94,1.01,1.13l0.55,0.19c0.35,0.12,0.58,0.28,0.58,0.58c0,0.4-0.39,0.56-0.83,0.56
	c-0.49,0-0.94-0.2-1.31-0.54V-13.42z"/>
<path class="st11" d="M2239.56-14.46c-0.19,0.29-0.45,0.52-0.82,0.52c-0.43,0-0.69-0.32-0.69-0.8c0-0.65,0.4-1.31,1.05-1.31
	c0.32,0,0.57,0.21,0.67,0.48L2239.56-14.46z M2240.55-16.53h-0.6l-0.06,0.33c-0.13-0.21-0.41-0.41-0.82-0.41
	c-0.97,0-1.64,0.92-1.64,1.9c0,0.75,0.43,1.33,1.19,1.33c0.36,0,0.74-0.22,0.92-0.51c0.13,0.33,0.48,0.52,0.9,0.52
	c0.89,0,1.76-0.7,1.76-2.17c0-1.51-1.21-2.66-2.98-2.66c-2.04,0-3.41,1.52-3.41,3.4c0,2.16,1.67,3.08,3.42,3.08
	c0.79,0,1.5-0.19,1.95-0.4v-0.51c-0.51,0.23-1.15,0.41-1.95,0.41c-1.35,0-2.86-0.66-2.86-2.57c0-1.67,1.16-2.9,2.85-2.9
	c1.41,0,2.44,0.85,2.44,2.15c0,1.07-0.49,1.68-1.13,1.68c-0.29,0-0.42-0.13-0.36-0.49L2240.55-16.53z"/>
<rect x="2243.08" y="-18.95" class="st11" width="0.68" height="5.85"/>
<path class="st11" d="M2245.63-15.91c0.21-0.41,0.6-0.66,1.03-0.66c0.76,0,1.21,0.62,1.21,1.47c0,0.85-0.45,1.47-1.21,1.47
	c-0.42,0-0.82-0.24-1.03-0.66V-15.91z M2245.63-13.57c0.21,0.29,0.63,0.55,1.13,0.55c1.18,0,1.8-0.97,1.8-2.08
	c0-1.11-0.62-2.08-1.8-2.08c-0.49,0-0.92,0.26-1.13,0.55v-0.47h-0.68v5.53h0.68V-13.57z"/>
<polygon class="st11" points="2252.58,-17.1 2251.84,-17.1 2250.81,-15.67 2249.8,-17.1 2249.02,-17.1 2250.42,-15.14 
	2248.94,-13.1 2249.67,-13.1 2250.79,-14.66 2251.9,-13.1 2252.66,-13.1 2251.18,-15.17 "/>
<path class="st11" d="M2253.16-13.42c0.3,0.23,0.79,0.4,1.31,0.4c0.84,0,1.49-0.42,1.49-1.16c0-0.57-0.33-0.92-0.94-1.13l-0.61-0.21
	c-0.38-0.13-0.59-0.24-0.59-0.57c0-0.34,0.34-0.52,0.76-0.52c0.49,0,0.86,0.2,1.19,0.48v-0.7c-0.32-0.22-0.74-0.35-1.19-0.35
	c-0.79,0-1.41,0.42-1.41,1.13c0,0.65,0.4,0.94,1.01,1.13l0.55,0.19c0.35,0.12,0.58,0.28,0.58,0.58c0,0.4-0.39,0.56-0.83,0.56
	c-0.49,0-0.94-0.2-1.31-0.54V-13.42z"/>
<path class="st11" d="M2258.44-16.6c0.65,0,0.94,0.5,0.97,1.09h-2.06C2257.48-16.25,2257.91-16.6,2258.44-16.6 M2260.07-14.98v-0.24
	c0-1.17-0.56-1.95-1.64-1.95c-1.06,0-1.78,0.87-1.78,2.11c0,1.26,0.77,2.04,1.93,2.04c0.48,0,0.89-0.1,1.21-0.35v-0.62
	c-0.36,0.27-0.68,0.38-1.13,0.38c-0.73,0-1.31-0.44-1.34-1.37H2260.07z"/>
<path class="st11" d="M2263.04-17.12c-0.07-0.04-0.22-0.06-0.39-0.06c-0.44,0-0.82,0.26-0.99,0.6v-0.52h-0.68v4h0.68v-2.68
	c0.13-0.47,0.5-0.75,0.93-0.75c0.17,0,0.34,0.04,0.45,0.11V-17.12z"/>
<polygon class="st11" points="2265.65,-13.1 2267.2,-17.1 2266.49,-17.1 2265.33,-13.96 2264.16,-17.1 2263.43,-17.1 2264.98,-13.1 
	"/>
<path class="st11" d="M2268.74-18.3c0-0.24-0.2-0.43-0.44-0.43c-0.23,0-0.43,0.19-0.43,0.43c0,0.23,0.2,0.43,0.43,0.43
	C2268.55-17.87,2268.74-18.07,2268.74-18.3 M2268.64-17.1h-0.68v4h0.68V-17.1z"/>
<path class="st11" d="M2269.62-13.42c0.3,0.23,0.79,0.4,1.31,0.4c0.84,0,1.49-0.42,1.49-1.16c0-0.57-0.33-0.92-0.94-1.13l-0.61-0.21
	c-0.38-0.13-0.59-0.24-0.59-0.57c0-0.34,0.34-0.52,0.76-0.52c0.49,0,0.86,0.2,1.19,0.48v-0.7c-0.32-0.22-0.74-0.35-1.19-0.35
	c-0.79,0-1.41,0.42-1.41,1.13c0,0.65,0.4,0.94,1.01,1.13l0.55,0.19c0.35,0.12,0.58,0.28,0.58,0.58c0,0.4-0.39,0.56-0.83,0.56
	c-0.49,0-0.94-0.2-1.31-0.54V-13.42z"/>
<path class="st11" d="M2273.15-13.42c0.3,0.23,0.79,0.4,1.31,0.4c0.84,0,1.49-0.42,1.49-1.16c0-0.57-0.33-0.92-0.94-1.13l-0.61-0.21
	c-0.38-0.13-0.59-0.24-0.59-0.57c0-0.34,0.34-0.52,0.76-0.52c0.49,0,0.86,0.2,1.19,0.48v-0.7c-0.32-0.22-0.74-0.35-1.19-0.35
	c-0.79,0-1.41,0.42-1.41,1.13c0,0.65,0.4,0.94,1.01,1.13l0.55,0.19c0.35,0.12,0.58,0.28,0.58,0.58c0,0.4-0.39,0.56-0.83,0.56
	c-0.49,0-0.94-0.2-1.31-0.54V-13.42z"/>
<path class="st11" d="M2276.61-13.54c0,0.28,0.22,0.49,0.49,0.49c0.26,0,0.48-0.21,0.48-0.49c0-0.28-0.22-0.49-0.48-0.49
	C2276.83-14.04,2276.61-13.82,2276.61-13.54"/>
<rect x="2278.46" y="-18.95" class="st11" width="0.68" height="5.85"/>
<polygon class="st11" points="2282.12,-13.1 2283.68,-17.1 2282.96,-17.1 2281.8,-13.96 2280.63,-17.1 2279.9,-17.1 2281.45,-13.1 
	"/>
<path class="st11" d="M2085.24-23.39c0.38,0.3,0.99,0.51,1.74,0.51c1.07,0,1.86-0.57,1.86-1.51c0-0.77-0.38-1.21-1.22-1.53
	l-0.87-0.34c-0.51-0.2-0.83-0.4-0.83-0.86c0-0.55,0.48-0.82,1.09-0.82c0.64,0,1.13,0.23,1.58,0.58v-0.75
	c-0.41-0.29-0.98-0.45-1.58-0.45c-0.95,0-1.77,0.49-1.77,1.45c0,0.87,0.59,1.24,1.24,1.49l0.81,0.31c0.58,0.24,0.88,0.44,0.88,0.93
	c0,0.57-0.47,0.87-1.18,0.87c-0.65,0-1.22-0.21-1.74-0.65V-23.39z"/>
<rect x="2089.86" y="-28.48" class="st11" width="0.71" height="5.53"/>
<path class="st11" d="M2093.9-27.6l0.9,2.36h-1.8L2093.9-27.6z M2093.58-28.48l-2.16,5.53h0.72l0.63-1.67h2.28l0.64,1.67h0.72
	l-2.16-5.53H2093.58z"/>
<path class="st11" d="M2101.3-28.48h-0.46l-0.46,0.77c-0.11,0.18-0.2,0.38-0.2,0.57c0,0.33,0.21,0.52,0.48,0.52
	c0.27,0,0.49-0.2,0.49-0.48c0-0.25-0.17-0.41-0.4-0.45L2101.3-28.48z M2099.92-28.48h-0.46l-0.46,0.77c-0.11,0.18-0.2,0.38-0.2,0.57
	c0,0.33,0.21,0.52,0.48,0.52s0.49-0.2,0.49-0.48c0-0.25-0.17-0.41-0.4-0.45L2099.92-28.48z"/>
<polygon class="st11" points="2102.13,-22.96 2105.65,-22.96 2105.65,-23.6 2102.84,-23.6 2102.84,-28.48 2102.13,-28.48 "/>
<path class="st11" d="M2109.85-26.83c0,0.62-0.4,1.03-1.15,1.03h-1.32v-2.06h1.32C2109.44-27.86,2109.85-27.46,2109.85-26.83
	 M2108.7-25.17c1.12,0,1.85-0.58,1.85-1.66c0-1.09-0.73-1.66-1.85-1.66h-2.04v5.53h0.71v-2.21H2108.7z"/>
<polygon class="st11" points="2115.55,-28.48 2114.77,-28.48 2113.28,-26.33 2111.8,-28.48 2110.99,-28.48 2112.87,-25.76 
	2110.92,-22.96 2111.7,-22.96 2113.26,-25.21 2114.82,-22.96 2115.63,-22.96 2113.67,-25.78 "/>
<path class="st11" d="M2118.14-23.39c0.38,0.3,0.99,0.51,1.74,0.51c1.07,0,1.86-0.57,1.86-1.51c0-0.77-0.38-1.21-1.22-1.53
	l-0.87-0.34c-0.51-0.2-0.83-0.4-0.83-0.86c0-0.55,0.48-0.82,1.09-0.82c0.64,0,1.13,0.23,1.57,0.58v-0.75
	c-0.41-0.29-0.98-0.45-1.58-0.45c-0.95,0-1.77,0.49-1.77,1.45c0,0.87,0.59,1.24,1.24,1.49l0.81,0.31c0.58,0.24,0.88,0.44,0.88,0.93
	c0,0.57-0.47,0.87-1.18,0.87c-0.65,0-1.22-0.21-1.74-0.65V-23.39z"/>
<polygon class="st11" points="2122.75,-28.48 2122.75,-22.96 2126.27,-22.96 2126.27,-23.6 2123.46,-23.6 2123.46,-25.48 
	2126.01,-25.48 2126.01,-26.11 2123.46,-26.11 2123.46,-27.85 2126.27,-27.85 2126.27,-28.48 "/>
<path class="st11" d="M2128.1-27.86h1.3c0.73,0,1.15,0.37,1.15,0.98s-0.42,0.98-1.15,0.98h-1.3V-27.86z M2129.08-25.3l1.58,2.34
	h0.81l-1.64-2.37c0.87-0.13,1.41-0.64,1.41-1.56c0-1.04-0.72-1.6-1.84-1.6h-2.03v5.53h0.71v-2.34H2129.08z"/>
<polygon class="st11" points="2134.62,-22.96 2136.76,-28.48 2136.04,-28.48 2134.3,-23.89 2132.57,-28.48 2131.83,-28.48 
	2133.96,-22.96 "/>
<rect x="2137.6" y="-28.48" class="st11" width="0.71" height="5.53"/>
<path class="st11" d="M2139.34-23.39c0.38,0.3,0.99,0.51,1.74,0.51c1.07,0,1.86-0.57,1.86-1.51c0-0.77-0.38-1.21-1.22-1.53
	l-0.87-0.34c-0.51-0.2-0.83-0.4-0.83-0.86c0-0.55,0.48-0.82,1.09-0.82c0.64,0,1.13,0.23,1.57,0.58v-0.75
	c-0.41-0.29-0.98-0.45-1.58-0.45c-0.95,0-1.77,0.49-1.77,1.45c0,0.87,0.59,1.24,1.24,1.49l0.81,0.31c0.58,0.24,0.88,0.44,0.88,0.93
	c0,0.57-0.47,0.87-1.18,0.87c-0.65,0-1.22-0.21-1.74-0.65V-23.39z"/>
<path class="st11" d="M2143.69-23.39c0.38,0.3,0.99,0.51,1.74,0.51c1.07,0,1.86-0.57,1.86-1.51c0-0.77-0.38-1.21-1.22-1.53
	l-0.87-0.34c-0.51-0.2-0.83-0.4-0.83-0.86c0-0.55,0.48-0.82,1.09-0.82c0.64,0,1.13,0.23,1.57,0.58v-0.75
	c-0.41-0.29-0.98-0.45-1.58-0.45c-0.95,0-1.77,0.49-1.77,1.45c0,0.87,0.59,1.24,1.24,1.49l0.81,0.31c0.58,0.24,0.88,0.44,0.88,0.93
	c0,0.57-0.47,0.87-1.18,0.87c-0.65,0-1.22-0.21-1.74-0.65V-23.39z"/>
<path class="st11" d="M2149.17-26.71h0.46l0.46-0.77c0.11-0.18,0.2-0.38,0.2-0.57c0-0.33-0.21-0.52-0.48-0.52
	c-0.27,0-0.49,0.2-0.49,0.48c0,0.25,0.17,0.41,0.4,0.45L2149.17-26.71z M2147.79-26.71h0.46l0.46-0.77c0.11-0.18,0.2-0.38,0.2-0.57
	c0-0.33-0.21-0.52-0.48-0.52c-0.27,0-0.49,0.2-0.49,0.48c0,0.25,0.17,0.41,0.4,0.45L2147.79-26.71z"/>
<polygon class="st11" points="2088.01,-17.1 2087.41,-17.1 2086.59,-14.05 2085.71,-17.1 2085.03,-17.1 2086.21,-13.1 
	2086.87,-13.1 2087.71,-16.13 2088.53,-13.1 2089.19,-13.1 2090.37,-17.1 2089.71,-17.1 2088.83,-14.05 "/>
<polygon class="st11" points="2093.67,-17.1 2093.07,-17.1 2092.25,-14.05 2091.37,-17.1 2090.7,-17.1 2091.87,-13.1 2092.53,-13.1 
	2093.37,-16.13 2094.2,-13.1 2094.85,-13.1 2096.03,-17.1 2095.38,-17.1 2094.49,-14.05 "/>
<polygon class="st11" points="2099.34,-17.1 2098.73,-17.1 2097.91,-14.05 2097.03,-17.1 2096.36,-17.1 2097.54,-13.1 
	2098.19,-13.1 2099.03,-16.13 2099.86,-13.1 2100.51,-13.1 2101.69,-17.1 2101.04,-17.1 2100.15,-14.05 "/>
<path class="st11" d="M2101.87-13.54c0,0.28,0.22,0.49,0.49,0.49c0.26,0,0.48-0.21,0.48-0.49c0-0.28-0.22-0.49-0.48-0.49
	C2102.09-14.04,2101.87-13.82,2101.87-13.54"/>
<rect x="2103.73" y="-18.95" class="st11" width="0.68" height="5.85"/>
<path class="st11" d="M2106.28-15.91c0.21-0.41,0.6-0.66,1.03-0.66c0.77,0,1.22,0.62,1.22,1.47c0,0.85-0.45,1.47-1.22,1.47
	c-0.42,0-0.82-0.24-1.03-0.66V-15.91z M2106.28-13.57c0.21,0.29,0.63,0.55,1.12,0.55c1.18,0,1.8-0.97,1.8-2.08
	c0-1.11-0.62-2.08-1.8-2.08c-0.5,0-0.92,0.26-1.12,0.55v-0.47h-0.68v5.53h0.68V-13.57z"/>
<polygon class="st11" points="2113.23,-17.1 2112.49,-17.1 2111.46,-15.67 2110.45,-17.1 2109.68,-17.1 2111.07,-15.14 
	2109.6,-13.1 2110.32,-13.1 2111.44,-14.66 2112.55,-13.1 2113.31,-13.1 2111.83,-15.17 "/>
<path class="st11" d="M2113.82-13.42c0.3,0.23,0.79,0.4,1.31,0.4c0.84,0,1.49-0.42,1.49-1.16c0-0.57-0.33-0.92-0.94-1.13l-0.61-0.21
	c-0.38-0.13-0.59-0.24-0.59-0.57c0-0.34,0.34-0.52,0.76-0.52c0.49,0,0.86,0.2,1.19,0.48v-0.7c-0.32-0.22-0.74-0.35-1.19-0.35
	c-0.79,0-1.41,0.42-1.41,1.13c0,0.65,0.4,0.94,1.01,1.13l0.55,0.19c0.35,0.12,0.58,0.28,0.58,0.58c0,0.4-0.39,0.56-0.83,0.56
	c-0.49,0-0.94-0.2-1.31-0.54V-13.42z"/>
<path class="st11" d="M2119.09-16.6c0.65,0,0.94,0.5,0.97,1.09H2118C2118.13-16.25,2118.56-16.6,2119.09-16.6 M2120.72-14.98v-0.24
	c0-1.17-0.56-1.95-1.64-1.95c-1.06,0-1.78,0.87-1.78,2.11c0,1.26,0.77,2.04,1.93,2.04c0.48,0,0.89-0.1,1.21-0.35v-0.62
	c-0.36,0.27-0.68,0.38-1.13,0.38c-0.73,0-1.31-0.44-1.34-1.37H2120.72z"/>
<path class="st11" d="M2123.69-17.12c-0.07-0.04-0.22-0.06-0.39-0.06c-0.44,0-0.82,0.26-0.99,0.6v-0.52h-0.68v4h0.68v-2.68
	c0.14-0.47,0.5-0.75,0.93-0.75c0.17,0,0.34,0.04,0.45,0.11V-17.12z"/>
<polygon class="st11" points="2126.3,-13.1 2127.86,-17.1 2127.15,-17.1 2125.98,-13.96 2124.81,-17.1 2124.09,-17.1 2125.63,-13.1 
	"/>
<path class="st11" d="M2129.4-18.3c0-0.24-0.2-0.43-0.44-0.43c-0.23,0-0.43,0.19-0.43,0.43c0,0.23,0.2,0.43,0.43,0.43
	C2129.2-17.87,2129.4-18.07,2129.4-18.3 M2129.3-17.1h-0.68v4h0.68V-17.1z"/>
<path class="st11" d="M2130.27-13.42c0.3,0.23,0.79,0.4,1.31,0.4c0.84,0,1.49-0.42,1.49-1.16c0-0.57-0.33-0.92-0.94-1.13l-0.61-0.21
	c-0.38-0.13-0.59-0.24-0.59-0.57c0-0.34,0.34-0.52,0.76-0.52c0.49,0,0.86,0.2,1.19,0.48v-0.7c-0.32-0.22-0.74-0.35-1.19-0.35
	c-0.79,0-1.41,0.42-1.41,1.13c0,0.65,0.4,0.94,1.01,1.13l0.55,0.19c0.35,0.12,0.58,0.28,0.58,0.58c0,0.4-0.39,0.56-0.83,0.56
	c-0.49,0-0.94-0.2-1.31-0.54V-13.42z"/>
<path class="st11" d="M2133.81-13.42c0.3,0.23,0.79,0.4,1.31,0.4c0.84,0,1.49-0.42,1.49-1.16c0-0.57-0.33-0.92-0.94-1.13l-0.61-0.21
	c-0.38-0.13-0.59-0.24-0.59-0.57c0-0.34,0.34-0.52,0.76-0.52c0.49,0,0.86,0.2,1.19,0.48v-0.7c-0.32-0.22-0.74-0.35-1.19-0.35
	c-0.79,0-1.41,0.42-1.41,1.13c0,0.65,0.4,0.94,1.01,1.13l0.55,0.19c0.35,0.12,0.58,0.28,0.58,0.58c0,0.4-0.39,0.56-0.83,0.56
	c-0.49,0-0.94-0.2-1.31-0.54V-13.42z"/>
<path class="st11" d="M2137.26-13.54c0,0.28,0.22,0.49,0.49,0.49c0.26,0,0.48-0.21,0.48-0.49c0-0.28-0.22-0.49-0.48-0.49
	C2137.48-14.04,2137.26-13.82,2137.26-13.54"/>
<rect x="2139.12" y="-18.95" class="st11" width="0.68" height="5.85"/>
<polygon class="st11" points="2142.77,-13.1 2144.33,-17.1 2143.62,-17.1 2142.45,-13.96 2141.28,-17.1 2140.56,-17.1 2142.1,-13.1 
	"/>
<rect x="2077.28" y="-28.56" class="st8" width="2.16" height="15.46"/>
<path class="st4" d="M2131.67,86.95c2.09,1.98,3.24,4.76,3.17,7.63c0,4.25-3.29,7.2-8.32,7.63l0-2.57c2.98-0.31,5.76-1.75,5.76-5.06
	c0-3.24-1.4-4.87-3.01-6.4c0.76-0.27,1.49-0.63,2.17-1.07C2131.52,87.06,2131.59,87.01,2131.67,86.95"/>
<path class="st4" d="M2125.87,67.69h1.28h0.64v6.55h0l0,6.89c-0.01,0.66,0.13,1.32,0.41,1.92c-0.63,0.33-1.33,0.53-2.04,0.59
	c-0.1,0.01-0.28,0.03-0.48,0.04c-0.31-0.81-0.46-1.68-0.45-2.55V68.33l0-0.02v-0.62H2125.87z"/>
<path class="st4" d="M2129.08,70.78c3.56,1.06,5.76,3.68,5.76,7.15c0,2.31-0.97,6.04-4.1,8.11c-1.61,1.02-3.49,1.54-5.39,1.49
	c-1.31-0.04-2.6,0.25-3.77,0.84c-1.06,0.57-1.92,1.46-2.45,2.55c-0.56,1.14-0.88,2.39-0.94,3.67c0,2.31,1.36,3.71,3.2,4.45v2.7
	c-3.56-1.06-5.76-3.68-5.76-7.15c0-2.31,0.97-6.04,4.1-8.11c3.17-2.1,5.79-1.02,8.22-1.91c0.34-0.12,0.67-0.27,0.99-0.45
	c1.03-0.58,1.87-1.45,2.39-2.52c0.56-1.14,0.88-2.39,0.94-3.67c0-2.31-1.36-3.71-3.2-4.45V70.78z"/>
<path class="st4" d="M2123.95,70.3l0,2.57c-2.98,0.31-5.76,1.75-5.76,5.06c0,3.24,1.4,4.87,3.01,6.4c-0.76,0.27-1.49,0.63-2.17,1.07
	c-0.08,0.05-0.15,0.1-0.23,0.16c-2.09-1.98-3.24-4.76-3.17-7.63C2115.63,73.69,2118.92,70.73,2123.95,70.3"/>
<path class="st4" d="M2124.78,88.84L2124.78,88.84c0.31,0.81,0.46,1.67,0.45,2.54v10.55v2.25v0.64h-0.64h-1.28h-0.64v-0.64l0-12.81
	c0.01-0.66-0.13-1.32-0.41-1.92c0.64-0.33,1.33-0.53,2.05-0.59C2124.41,88.86,2124.59,88.84,2124.78,88.84"/>
<polygon class="st4" points="2144.99,92.28 2153.55,92.28 2153.55,89.56 2148.15,89.56 2148.15,80.23 2144.99,80.23 "/>
<path class="st4" d="M2161.6,84.39c0,0.9-0.51,1.51-1.65,1.51h-1.83v-3.02h1.83C2161.09,82.88,2161.6,83.47,2161.6,84.39
	 M2160.29,88.53c2.61,0,4.38-1.47,4.38-4.14c0-2.69-1.77-4.16-4.38-4.16h-5.28v12.06h3.12v-3.75H2160.29z"/>
<polygon class="st4" points="2176.16,80.23 2172.74,80.23 2170.5,83.66 2168.32,80.23 2164.81,80.23 2168.67,86.12 2164.61,92.28 
	2168.05,92.28 2170.44,88.57 2172.84,92.28 2176.35,92.28 2172.29,86.12 "/>
<path class="st4" d="M2181.56,91.34c0.82,0.65,2.16,1.12,3.79,1.12c2.34,0,4.06-1.24,4.06-3.3c0-1.67-0.82-2.63-2.67-3.34l-1.9-0.75
	c-1.12-0.43-1.81-0.86-1.81-1.89c0-1.2,1.04-1.79,2.38-1.79c1.39,0,2.47,0.49,3.44,1.26v-1.63c-0.9-0.63-2.14-0.98-3.46-0.98
	c-2.08,0-3.87,1.08-3.87,3.16c0,1.9,1.3,2.71,2.71,3.26l1.77,0.69c1.28,0.53,1.92,0.96,1.92,2.02c0,1.24-1.02,1.9-2.57,1.9
	c-1.41,0-2.67-0.45-3.79-1.41V91.34z"/>
<polygon class="st4" points="2191.63,80.23 2191.63,92.28 2199.31,92.28 2199.31,90.89 2193.16,90.89 2193.16,86.79 2198.74,86.79 
	2198.74,85.41 2193.16,85.41 2193.16,81.6 2199.31,81.6 2199.31,80.23 "/>
<path class="st4" d="M2203.29,81.58h2.83c1.59,0,2.51,0.8,2.51,2.14c0,1.34-0.92,2.14-2.51,2.14h-2.83V81.58z M2205.43,87.18
	l3.46,5.11h1.77l-3.57-5.16c1.9-0.27,3.08-1.39,3.08-3.4c0-2.28-1.57-3.5-4.01-3.5h-4.42v12.06h1.55v-5.11H2205.43z"/>
<polygon class="st4" points="2217.53,92.28 2222.18,80.23 2220.61,80.23 2216.82,90.24 2213.05,80.23 2211.42,80.23 2216.08,92.28 
	"/>
<rect x="2224.03" y="80.23" class="st4" width="1.55" height="12.06"/>
<path class="st4" d="M2227.82,91.34c0.82,0.65,2.16,1.12,3.79,1.12c2.34,0,4.06-1.24,4.06-3.3c0-1.67-0.82-2.63-2.67-3.34
	l-1.91-0.75c-1.12-0.43-1.81-0.86-1.81-1.89c0-1.2,1.04-1.79,2.38-1.79c1.39,0,2.47,0.49,3.44,1.26v-1.63
	c-0.9-0.63-2.14-0.98-3.46-0.98c-2.08,0-3.87,1.08-3.87,3.16c0,1.9,1.3,2.71,2.71,3.26l1.77,0.69c1.28,0.53,1.92,0.96,1.92,2.02
	c0,1.24-1.02,1.9-2.57,1.9c-1.41,0-2.67-0.45-3.79-1.41V91.34z"/>
<path class="st4" d="M2237.31,91.34c0.82,0.65,2.16,1.12,3.79,1.12c2.34,0,4.06-1.24,4.06-3.3c0-1.67-0.82-2.63-2.67-3.34l-1.9-0.75
	c-1.12-0.43-1.81-0.86-1.81-1.89c0-1.2,1.04-1.79,2.38-1.79c1.39,0,2.47,0.49,3.44,1.26v-1.63c-0.9-0.63-2.14-0.98-3.46-0.98
	c-2.08,0-3.87,1.08-3.87,3.16c0,1.9,1.3,2.71,2.71,3.26l1.77,0.69c1.28,0.53,1.92,0.96,1.92,2.02c0,1.24-1.02,1.9-2.57,1.9
	c-1.41,0-2.67-0.45-3.79-1.41V91.34z"/>
<rect x="2302.34" y="-119.38" class="st8" width="5.61" height="106.22"/>
<rect x="2302.34" y="33.15" class="st9" width="5.61" height="106.22"/>
<g>
	<path class="st10" d="M3007.21-33.62c3.59,3.42,5.58,8.19,5.46,13.15c0,7.32-5.67,12.41-14.34,13.14l0-4.43
		c5.13-0.53,9.93-3.02,9.93-8.72c0-5.58-2.42-8.39-5.19-11.03c1.32-0.46,2.57-1.08,3.74-1.84
		C3006.95-33.43,3007.08-33.52,3007.21-33.62"/>
	<path class="st10" d="M2997.22-66.81h2.21h1.1v11.29h0l0,11.88c-0.02,1.14,0.22,2.27,0.71,3.31c-1.09,0.56-2.28,0.91-3.51,1.02
		c-0.18,0.02-0.49,0.04-0.83,0.07c-0.53-1.4-0.79-2.89-0.78-4.39v-22.07l0-0.03v-1.07H2997.22z"/>
	<path class="st10" d="M3002.74-61.48c6.14,1.83,9.93,6.33,9.93,12.33c0,3.97-1.67,10.42-7.07,13.97c-2.78,1.75-6.01,2.65-9.29,2.57
		c-2.25-0.07-4.48,0.43-6.49,1.45c-1.83,0.99-3.31,2.52-4.22,4.39c-0.97,1.97-1.52,4.12-1.62,6.32c0,3.97,2.35,6.39,5.52,7.67v4.65
		c-6.14-1.83-9.93-6.33-9.93-12.33c0-3.97,1.67-10.42,7.07-13.97c5.46-3.63,9.97-1.77,14.17-3.3c0.59-0.21,1.16-0.47,1.71-0.77
		c1.78-0.99,3.22-2.51,4.12-4.34c0.97-1.97,1.52-4.12,1.62-6.32c0-3.97-2.35-6.39-5.52-7.67V-61.48z"/>
	<path class="st10" d="M2993.91-62.3v4.43c-5.13,0.53-9.93,3.02-9.93,8.72c0,5.58,2.42,8.39,5.19,11.03
		c-1.32,0.46-2.57,1.08-3.74,1.84c-0.13,0.09-0.27,0.18-0.4,0.28c-3.59-3.42-5.58-8.2-5.46-13.15
		C2979.57-56.47,2985.24-61.57,2993.91-62.3"/>
	<path class="st10" d="M2995.34-30.37h0.01c0.52,1.4,0.79,2.89,0.77,4.38V-7.8v3.88v1.1h-1.1h-2.21h-1.1v-1.1v-22.07
		c0.02-1.14-0.22-2.27-0.71-3.31c1.1-0.57,2.3-0.91,3.53-1.02C2994.71-30.33,2995.02-30.36,2995.34-30.37"/>
</g>
<rect x="-78.84" y="-284.94" class="st0" width="178" height="68.5"/>
<path class="st1" d="M-47.27-249.86c2.5,2.38,3.89,5.71,3.81,9.16c0,5.1-3.95,8.65-9.99,9.16l0-3.08c3.57-0.37,6.92-2.11,6.92-6.07
	c0-3.89-1.68-5.84-3.61-7.69c0.92-0.32,1.79-0.75,2.61-1.28C-47.46-249.73-47.36-249.79-47.27-249.86"/>
<path class="st1" d="M-54.23-272.99h1.54h0.77v7.87h0l0,8.28c-0.01,0.8,0.16,1.58,0.49,2.31c-0.76,0.39-1.59,0.63-2.44,0.71
	c-0.12,0.02-0.34,0.03-0.58,0.05c-0.37-0.98-0.55-2.02-0.55-3.06v-15.38l0-0.02v-0.75H-54.23z"/>
<path class="st1" d="M-50.39-269.27c4.28,1.28,6.92,4.41,6.92,8.59c0,2.77-1.16,7.26-4.93,9.73c-1.93,1.22-4.19,1.84-6.47,1.79
	c-1.57-0.05-3.12,0.3-4.52,1.01c-1.28,0.69-2.3,1.76-2.94,3.06c-0.68,1.37-1.06,2.87-1.13,4.41c0,2.77,1.64,4.45,3.84,5.34v3.24
	c-4.27-1.28-6.92-4.41-6.92-8.59c0-2.77,1.16-7.26,4.93-9.73c3.81-2.53,6.95-1.23,9.87-2.3c0.41-0.15,0.81-0.33,1.19-0.54
	c1.24-0.69,2.24-1.75,2.87-3.02c0.68-1.37,1.06-2.87,1.13-4.41c0-2.77-1.64-4.45-3.84-5.34V-269.27z"/>
<path class="st1" d="M-56.54-269.84l0,3.08c-3.57,0.37-6.92,2.11-6.92,6.07c0,3.89,1.68,5.84,3.61,7.69
	c-0.92,0.32-1.79,0.75-2.61,1.28c-0.09,0.06-0.19,0.12-0.28,0.19c-2.5-2.38-3.89-5.71-3.81-9.16
	C-66.53-265.78-62.58-269.33-56.54-269.84"/>
<path class="st2" d="M79.57-244.58c0.99,0.78,2.59,1.34,4.55,1.34c2.81,0,4.88-1.49,4.88-3.96c0-2-0.99-3.16-3.21-4.01l-2.29-0.9
	c-1.34-0.52-2.17-1.04-2.17-2.26c0-1.44,1.25-2.15,2.85-2.15c1.67,0,2.97,0.59,4.13,1.51v-1.96c-1.08-0.75-2.57-1.18-4.15-1.18
	c-2.5,0-4.64,1.3-4.64,3.8c0,2.29,1.56,3.25,3.25,3.91l2.12,0.83c1.53,0.64,2.31,1.16,2.31,2.43c0,1.49-1.23,2.29-3.09,2.29
	c-1.7,0-3.21-0.54-4.55-1.7V-244.58z M68.18-244.58c0.99,0.78,2.59,1.34,4.55,1.34c2.81,0,4.88-1.49,4.88-3.96
	c0-2-0.99-3.16-3.21-4.01l-2.29-0.9c-1.34-0.52-2.17-1.04-2.17-2.26c0-1.44,1.25-2.15,2.85-2.15c1.67,0,2.97,0.59,4.13,1.51v-1.96
	c-1.08-0.75-2.57-1.18-4.15-1.18c-2.5,0-4.64,1.3-4.64,3.8c0,2.29,1.56,3.25,3.25,3.91l2.12,0.83c1.53,0.64,2.31,1.16,2.31,2.43
	c0,1.49-1.23,2.29-3.09,2.29c-1.7,0-3.21-0.54-4.55-1.7V-244.58z M65.49-257.93h-1.86v14.48h1.86V-257.93z M55.83-243.45l5.59-14.48
	h-1.89l-4.55,12.03l-4.53-12.03h-1.96l5.59,14.48H55.83z M38.73-256.3h3.4c1.91,0,3.02,0.97,3.02,2.57c0,1.6-1.11,2.57-3.02,2.57
	h-3.4V-256.3z M41.3-249.58l4.15,6.13h2.12l-4.29-6.2c2.29-0.33,3.7-1.67,3.7-4.08c0-2.74-1.89-4.2-4.81-4.2h-5.31v14.48h1.86v-6.13
	H41.3z M24.72-257.93v14.48h9.22v-1.67h-7.38v-4.93h6.7v-1.65h-6.7v-4.57h7.38v-1.65H24.72z M12.63-244.58
	c0.99,0.78,2.59,1.34,4.55,1.34c2.81,0,4.88-1.49,4.88-3.96c0-2-0.99-3.16-3.21-4.01l-2.29-0.9c-1.34-0.52-2.17-1.04-2.17-2.26
	c0-1.44,1.25-2.15,2.85-2.15c1.67,0,2.97,0.59,4.13,1.51v-1.96c-1.08-0.75-2.57-1.18-4.15-1.18c-2.5,0-4.64,1.3-4.64,3.8
	c0,2.29,1.56,3.25,3.25,3.91l2.12,0.83c1.53,0.64,2.31,1.16,2.31,2.43c0,1.49-1.23,2.29-3.09,2.29c-1.7,0-3.21-0.54-4.55-1.7
	V-244.58z M6.14-257.93h-4.1l-2.69,4.13l-2.62-4.13h-4.22l4.65,7.07l-4.88,7.4h4.13l2.88-4.46l2.88,4.46h4.22l-4.88-7.4L6.14-257.93
	z M-11.33-252.93c0,1.08-0.61,1.82-1.98,1.82h-2.19v-3.63h2.19C-11.94-254.74-11.33-254.04-11.33-252.93z M-12.91-247.95
	c3.14,0,5.26-1.77,5.26-4.98c0-3.23-2.12-5-5.26-5h-6.34v14.48h3.75v-4.5H-12.91z M-31.27-243.45h10.28v-3.28h-6.48v-11.2h-3.8
	V-243.45z"/>
</svg>
