<?xml version="1.0" encoding="utf-8"?>
<!-- Generator: Adobe Illustrator 24.3.0, SVG Export Plug-In . SVG Version: 6.00 Build 0)  -->
<svg version="1.1" id="Layer_1" xmlns="http://www.w3.org/2000/svg" xmlns:xlink="http://www.w3.org/1999/xlink" x="0px" y="0px"
	 viewBox="0 0 197.1 68.5" style="enable-background:new 0 0 197.1 68.5;" xml:space="preserve">
<style type="text/css">
	.st0{opacity:0.75;fill-rule:evenodd;clip-rule:evenodd;fill:#06326E;enable-background:new    ;}
	.st1{fill:#FFFFFF;}
</style>
<rect class="st0" width="197.1" height="68.5"/>
<path class="st1" d="M41.2,35.1c2.5,2.4,3.9,5.7,3.8,9.2c0,5.1-4,8.6-10,9.2v-3.1c3.6-0.4,6.9-2.1,6.9-6.1c0-3.9-1.7-5.8-3.6-7.7
	c0.9-0.3,1.8-0.8,2.6-1.3C41,35.2,41.1,35.2,41.2,35.1"/>
<path class="st1" d="M34.2,11.9h1.5h0.8v7.9l0,0v8.3c0,0.8,0.2,1.6,0.5,2.3c-0.8,0.4-1.6,0.6-2.4,0.7c-0.1,0-0.3,0-0.6,0
	c-0.4-1-0.5-2-0.5-3.1V12.7l0,0v-0.8H34.2z"/>
<path class="st1" d="M38.1,15.7c4.3,1.3,6.9,4.4,6.9,8.6c0,2.8-1.2,7.3-4.9,9.7c-1.9,1.2-4.2,1.8-6.5,1.8c-1.6,0-3.1,0.3-4.5,1
	c-1.3,0.7-2.3,1.8-2.9,3.1c-0.7,1.4-1.1,2.9-1.1,4.4c0,2.8,1.6,4.5,3.8,5.3v3.2c-4.3-1.3-6.9-4.4-6.9-8.6c0-2.8,1.2-7.3,4.9-9.7
	c3.8-2.5,6.9-1.2,9.9-2.3c0.4-0.2,0.8-0.3,1.2-0.5c1.2-0.7,2.2-1.8,2.9-3c0.7-1.4,1.1-2.9,1.1-4.4c0-2.8-1.6-4.5-3.8-5.3
	C38.1,18.9,38.1,15.7,38.1,15.7z"/>
<path class="st1" d="M31.9,15.1v3.1c-3.6,0.4-6.9,2.1-6.9,6.1c0,3.9,1.7,5.8,3.6,7.7c-0.9,0.3-1.8,0.8-2.6,1.3
	c-0.1,0.1-0.2,0.1-0.3,0.2c-2.5-2.4-3.9-5.7-3.8-9.2C21.9,19.2,25.9,15.6,31.9,15.1"/>
<path class="st1" d="M32.9,37.3L32.9,37.3c0.4,1,0.6,2,0.5,3V53v2.7v0.8h-0.8h-1.5h-0.8v-0.8V40.4c0-0.8-0.2-1.6-0.5-2.3
	c0.8-0.4,1.6-0.6,2.5-0.7C32.5,37.4,32.7,37.4,32.9,37.3"/>
<path class="st1" d="M168,40.4c1,0.8,2.6,1.3,4.6,1.3c2.8,0,4.9-1.5,4.9-4c0-2-1-3.2-3.2-4l-2.3-0.9c-1.3-0.5-2.2-1-2.2-2.3
	c0-1.4,1.3-2.1,2.9-2.1c1.7,0,3,0.6,4.1,1.5v-2c-1.1-0.8-2.6-1.2-4.1-1.2c-2.5,0-4.6,1.3-4.6,3.8c0,2.3,1.6,3.3,3.3,3.9l2.1,0.8
	c1.5,0.6,2.3,1.2,2.3,2.4c0,1.5-1.2,2.3-3.1,2.3c-1.7,0-3.2-0.5-4.6-1.7L168,40.4L168,40.4z M156.6,40.4c1,0.8,2.6,1.3,4.6,1.3
	c2.8,0,4.9-1.5,4.9-4c0-2-1-3.2-3.2-4l-2.3-0.9c-1.3-0.5-2.2-1-2.2-2.3c0-1.4,1.3-2.1,2.9-2.1c1.7,0,3,0.6,4.1,1.5v-2
	c-1.1-0.8-2.6-1.2-4.1-1.2c-2.5,0-4.6,1.3-4.6,3.8c0,2.3,1.6,3.3,3.3,3.9l2.1,0.8c1.5,0.6,2.3,1.2,2.3,2.4c0,1.5-1.2,2.3-3.1,2.3
	c-1.7,0-3.2-0.5-4.6-1.7L156.6,40.4L156.6,40.4z M153.9,27H152v14.5h1.9V27z M144.3,41.5l5.6-14.5H148l-4.6,12l-4.5-12h-2l5.6,14.5
	H144.3z M127.2,28.6h3.4c1.9,0,3,1,3,2.6c0,1.6-1.1,2.6-3,2.6h-3.4C127.2,33.8,127.2,28.6,127.2,28.6z M129.7,35.4l4.2,6.1h2.1
	l-4.3-6.2c2.3-0.3,3.7-1.7,3.7-4.1c0-2.7-1.9-4.2-4.8-4.2h-5.3v14.5h1.9v-6.1H129.7z M113.2,27v14.5h9.2v-1.7H115v-4.9h6.7v-1.7H115
	v-4.6h7.4V27H113.2L113.2,27z M101.1,40.4c1,0.8,2.6,1.3,4.6,1.3c2.8,0,4.9-1.5,4.9-4c0-2-1-3.2-3.2-4l-2.3-0.9
	c-1.3-0.5-2.2-1-2.2-2.3c0-1.4,1.3-2.1,2.8-2.1c1.7,0,3,0.6,4.1,1.5v-2c-1.1-0.8-2.6-1.2-4.2-1.2c-2.5,0-4.6,1.3-4.6,3.8
	c0,2.3,1.6,3.3,3.3,3.9l2.1,0.8c1.5,0.6,2.3,1.2,2.3,2.4c0,1.5-1.2,2.3-3.1,2.3c-1.7,0-3.2-0.5-4.6-1.7L101.1,40.4L101.1,40.4z
	 M94.6,27h-4.1l-2.7,4.1L85.2,27H81l4.7,7.1l-4.9,7.4h4.1l2.9-4.5l2.9,4.5h4.2L90,34.1L94.6,27z M77.1,32c0,1.1-0.6,1.8-2,1.8h-2.2
	v-3.6h2.2C76.5,30.2,77.1,30.9,77.1,32z M75.5,37c3.1,0,5.3-1.8,5.3-5s-2.1-5-5.3-5h-6.3v14.5H73V37H75.5z M57.2,41.5h10.3v-3.3H61
	V27h-3.8V41.5z"/>
</svg>
