<?xml version="1.0" encoding="utf-8"?>
<!-- Generator: Adobe Illustrator 24.3.0, SVG Export Plug-In . SVG Version: 6.00 Build 0)  -->
<svg version="1.1" id="Layer_1" xmlns="http://www.w3.org/2000/svg" xmlns:xlink="http://www.w3.org/1999/xlink" x="0px" y="0px"
	 viewBox="0 0 197.1 68.5" style="enable-background:new 0 0 197.1 68.5;" xml:space="preserve">
<style type="text/css">
	.st0{opacity:0.75;fill-rule:evenodd;clip-rule:evenodd;fill:#06326E;enable-background:new    ;}
	.st1{fill:#FFFFFF;}
	.st2{fill-rule:evenodd;clip-rule:evenodd;fill:#1B3B68;}
	.st3{fill-rule:evenodd;clip-rule:evenodd;fill:#FEFEFE;}
	.st4{fill:#1B3B68;}
	.st5{fill:#2B2A29;}
</style>
<rect class="st0" width="197.1" height="68.5"/>
<path class="st1" d="M41.2,35.1c2.5,2.4,3.9,5.7,3.8,9.2c0,5.1-4,8.6-10,9.2v-3.1c3.6-0.4,6.9-2.1,6.9-6.1c0-3.9-1.7-5.8-3.6-7.7
	c0.9-0.3,1.8-0.8,2.6-1.3C41,35.2,41.1,35.2,41.2,35.1"/>
<path class="st1" d="M34.2,11.9h1.5h0.8v7.9l0,0v8.3c0,0.8,0.2,1.6,0.5,2.3c-0.8,0.4-1.6,0.6-2.4,0.7c-0.1,0-0.3,0-0.6,0
	c-0.4-1-0.5-2-0.5-3.1V12.7l0,0v-0.8H34.2z"/>
<path class="st1" d="M38.1,15.7c4.3,1.3,6.9,4.4,6.9,8.6c0,2.8-1.2,7.3-4.9,9.7c-1.9,1.2-4.2,1.8-6.5,1.8c-1.6,0-3.1,0.3-4.5,1
	c-1.3,0.7-2.3,1.8-2.9,3.1c-0.7,1.4-1.1,2.9-1.1,4.4c0,2.8,1.6,4.5,3.8,5.3v3.2c-4.3-1.3-6.9-4.4-6.9-8.6c0-2.8,1.2-7.3,4.9-9.7
	c3.8-2.5,6.9-1.2,9.9-2.3c0.4-0.2,0.8-0.3,1.2-0.5c1.2-0.7,2.2-1.8,2.9-3c0.7-1.4,1.1-2.9,1.1-4.4c0-2.8-1.6-4.5-3.8-5.3
	C38.1,18.9,38.1,15.7,38.1,15.7z"/>
<path class="st1" d="M31.9,15.1v3.1c-3.6,0.4-6.9,2.1-6.9,6.1c0,3.9,1.7,5.8,3.6,7.7c-0.9,0.3-1.8,0.8-2.6,1.3
	c-0.1,0.1-0.2,0.1-0.3,0.2c-2.5-2.4-3.9-5.7-3.8-9.2C21.9,19.2,25.9,15.6,31.9,15.1"/>
<path class="st1" d="M32.9,37.3L32.9,37.3c0.4,1,0.6,2,0.5,3V53v2.7v0.8h-0.8h-1.5h-0.8v-0.8V40.4c0-0.8-0.2-1.6-0.5-2.3
	c0.8-0.4,1.6-0.6,2.5-0.7C32.5,37.4,32.7,37.4,32.9,37.3"/>
<path class="st1" d="M168,40.4c1,0.8,2.6,1.3,4.6,1.3c2.8,0,4.9-1.5,4.9-4c0-2-1-3.2-3.2-4l-2.3-0.9c-1.3-0.5-2.2-1-2.2-2.3
	c0-1.4,1.3-2.1,2.9-2.1c1.7,0,3,0.6,4.1,1.5v-2c-1.1-0.8-2.6-1.2-4.1-1.2c-2.5,0-4.6,1.3-4.6,3.8c0,2.3,1.6,3.3,3.3,3.9l2.1,0.8
	c1.5,0.6,2.3,1.2,2.3,2.4c0,1.5-1.2,2.3-3.1,2.3c-1.7,0-3.2-0.5-4.6-1.7L168,40.4L168,40.4z M156.6,40.4c1,0.8,2.6,1.3,4.6,1.3
	c2.8,0,4.9-1.5,4.9-4c0-2-1-3.2-3.2-4l-2.3-0.9c-1.3-0.5-2.2-1-2.2-2.3c0-1.4,1.3-2.1,2.9-2.1c1.7,0,3,0.6,4.1,1.5v-2
	c-1.1-0.8-2.6-1.2-4.1-1.2c-2.5,0-4.6,1.3-4.6,3.8c0,2.3,1.6,3.3,3.3,3.9l2.1,0.8c1.5,0.6,2.3,1.2,2.3,2.4c0,1.5-1.2,2.3-3.1,2.3
	c-1.7,0-3.2-0.5-4.6-1.7L156.6,40.4L156.6,40.4z M153.9,27H152v14.5h1.9V27z M144.3,41.5l5.6-14.5H148l-4.6,12l-4.5-12h-2l5.6,14.5
	H144.3z M127.2,28.6h3.4c1.9,0,3,1,3,2.6c0,1.6-1.1,2.6-3,2.6h-3.4V28.6z M129.7,35.4l4.2,6.1h2.1l-4.3-6.2c2.3-0.3,3.7-1.7,3.7-4.1
	c0-2.7-1.9-4.2-4.8-4.2h-5.3v14.5h1.9v-6.1H129.7z M113.2,27v14.5h9.2v-1.7H115v-4.9h6.7v-1.7H115v-4.6h7.4V27H113.2L113.2,27z
	 M101.1,40.4c1,0.8,2.6,1.3,4.6,1.3c2.8,0,4.9-1.5,4.9-4c0-2-1-3.2-3.2-4l-2.3-0.9c-1.3-0.5-2.2-1-2.2-2.3c0-1.4,1.3-2.1,2.8-2.1
	c1.7,0,3,0.6,4.1,1.5v-2c-1.1-0.8-2.6-1.2-4.2-1.2c-2.5,0-4.6,1.3-4.6,3.8c0,2.3,1.6,3.3,3.3,3.9l2.1,0.8c1.5,0.6,2.3,1.2,2.3,2.4
	c0,1.5-1.2,2.3-3.1,2.3c-1.7,0-3.2-0.5-4.6-1.7L101.1,40.4L101.1,40.4z M94.6,27h-4.1l-2.7,4.1L85.2,27H81l4.7,7.1l-4.9,7.4h4.1
	l2.9-4.5l2.9,4.5h4.2L90,34.1L94.6,27z M77.1,32c0,1.1-0.6,1.8-2,1.8h-2.2v-3.6h2.2C76.5,30.2,77.1,30.9,77.1,32z M75.5,37
	c3.1,0,5.3-1.8,5.3-5s-2.1-5-5.3-5h-6.3v14.5H73V37H75.5z M57.2,41.5h10.3v-3.3H61V27h-3.8V41.5z"/>
<rect x="2062.4" y="15.4" class="st2" width="255.1" height="141.7"/>
<rect x="2062.4" y="-137.1" class="st3" width="255.1" height="141.7"/>
<polygon class="st4" points="2202.9,-61.5 2202.9,-54.1 2207.9,-54.1 2207.9,-55.5 2204.5,-55.5 2204.5,-57.3 2207.6,-57.3 
	2207.6,-58.6 2204.5,-58.6 2204.5,-60.2 2207.9,-60.2 2207.9,-61.5 "/>
<rect x="2209.1" y="-61.9" class="st4" width="1.5" height="7.8"/>
<polygon class="st4" points="2214.8,-54.1 2216.9,-59.5 2215.4,-59.5 2214.2,-55.9 2212.9,-59.5 2211.4,-59.5 2213.4,-54.1 "/>
<path class="st4" d="M2219.3-61c0-0.5-0.4-0.8-0.9-0.8s-0.9,0.4-0.9,0.8c0,0.5,0.4,0.8,0.9,0.8S2219.3-60.5,2219.3-61 M2219.2-59.5
	h-1.5v5.4h1.5V-59.5z"/>
<path class="st4" d="M2222.1-61c0-0.5-0.4-0.8-0.9-0.8s-0.9,0.4-0.9,0.8c0,0.5,0.4,0.8,0.9,0.8S2222.1-60.5,2222.1-61 M2222-59.5
	h-1.5v5.6c0,0.5-0.2,0.7-0.6,0.7c-0.1,0-0.2,0-0.3,0v1.2c0.1,0,0.4,0.1,0.6,0.1c1.2,0,1.9-0.7,1.9-1.9L2222-59.5L2222-59.5z"/>
<path class="st4" d="M2223-54.6c0.5,0.3,1.2,0.5,1.9,0.5c1.3,0,2.2-0.6,2.2-1.7c0-0.9-0.5-1.3-1.5-1.6l-0.6-0.2
	c-0.4-0.1-0.6-0.2-0.6-0.5s0.3-0.5,0.7-0.5c0.6,0,1.2,0.3,1.6,0.7v-1.4c-0.5-0.3-1-0.5-1.7-0.5c-1.2,0-2.1,0.6-2.1,1.7
	c0,0.9,0.6,1.4,1.5,1.6l0.5,0.1c0.4,0.1,0.6,0.2,0.6,0.5s-0.4,0.5-0.8,0.5c-0.6,0-1.3-0.3-1.9-0.7L2223-54.6L2223-54.6z"/>
<polygon class="st4" points="2236.1,-55.5 2232.7,-55.5 2236.2,-61.5 2236.2,-61.5 2230.5,-61.5 2230.5,-60.2 2233.8,-60.2 
	2230.3,-54.2 2230.3,-54.1 2236.1,-54.1 "/>
<path class="st4" d="M2238.8-61c0-0.5-0.4-0.8-0.9-0.8s-0.9,0.4-0.9,0.8c0,0.5,0.4,0.8,0.9,0.8S2238.8-60.5,2238.8-61 M2238.7-59.5
	h-1.5v5.4h1.5V-59.5z"/>
<path class="st4" d="M2242.2-58.4c0.6,0,0.9,0.4,0.9,1h-2C2241.3-58.1,2241.7-58.4,2242.2-58.4 M2244.5-56.5V-57
	c0-1.6-0.8-2.7-2.4-2.7c-1.5,0-2.5,1.2-2.5,2.8c0,1.7,1.1,2.8,2.8,2.8c0.7,0,1.3-0.1,1.8-0.5v-1.2c-0.5,0.3-0.9,0.5-1.5,0.5
	c-0.8,0-1.4-0.4-1.6-1.2C2241-56.5,2244.5-56.5,2244.5-56.5z"/>
<path class="st4" d="M2249-55.9c-0.2,0.4-0.6,0.6-1,0.6c-0.8,0-1.3-0.7-1.3-1.5c0-0.9,0.5-1.5,1.3-1.5c0.4,0,0.8,0.3,1,0.6V-55.9z
	 M2249-54.1h1.5v-7.8h-1.5v2.9c-0.2-0.3-0.8-0.6-1.3-0.6c-1.6,0-2.4,1.3-2.4,2.8s0.9,2.8,2.4,2.8c0.6,0,1.1-0.3,1.3-0.6V-54.1z"/>
<path class="st4" d="M2253.4-61c0-0.5-0.4-0.8-0.9-0.8s-0.9,0.4-0.9,0.8c0,0.5,0.4,0.8,0.9,0.8C2252.9-60.2,2253.4-60.5,2253.4-61
	 M2253.2-59.5h-1.5v5.4h1.5V-59.5z"/>
<path class="st4" d="M2254.5-54.1h1.5v-3.4c0.1-0.5,0.5-0.7,1-0.7c0.6,0,0.9,0.4,0.9,1v3.2h1.5v-3.5c0-1.2-0.7-2-1.9-2
	c-0.6,0-1.1,0.3-1.4,0.6v-0.5h-1.5v5.3H2254.5z M2256.2-51.4h0.9l0.3-0.5c0.2-0.3,0.4-0.6,0.4-0.9c0-0.5-0.4-0.8-0.8-0.8
	c-0.5,0-0.9,0.3-0.9,0.8c0,0.4,0.3,0.7,0.6,0.7L2256.2-51.4z"/>
<path class="st4" d="M2260.4-54.6c0.5,0.3,1.2,0.5,1.9,0.5c1.3,0,2.2-0.6,2.2-1.7c0-0.9-0.5-1.3-1.5-1.6l-0.6-0.2
	c-0.4-0.1-0.6-0.2-0.6-0.5s0.3-0.5,0.7-0.5c0.6,0,1.2,0.3,1.6,0.7v-1.4c-0.5-0.3-1-0.5-1.7-0.5c-1.2,0-2.1,0.6-2.1,1.7
	c0,0.9,0.6,1.4,1.5,1.6l0.5,0.1c0.4,0.1,0.6,0.2,0.6,0.5s-0.4,0.5-0.8,0.5c-0.6,0-1.3-0.3-1.9-0.7L2260.4-54.6L2260.4-54.6z
	 M2264.2-61.9h-1.2l-0.6,0.8l-0.6-0.8h-1.2l1.1,1.7h1.3L2264.2-61.9z"/>
<polygon class="st5" points="2205.2,-43.4 2207.4,-48.9 2206.6,-48.9 2204.9,-44.3 2203.2,-48.9 2202.4,-48.9 2204.5,-43.4 "/>
<path class="st5" d="M2209.9-44.4c-0.1,0.3-0.5,0.5-0.9,0.5c-0.5,0-0.9-0.2-0.9-0.7s0.5-0.7,0.9-0.7s0.8,0.2,0.9,0.5V-44.4z
	 M2209.9-45.5c-0.2-0.2-0.6-0.3-1-0.3c-0.9,0-1.5,0.5-1.5,1.3s0.7,1.3,1.5,1.3c0.5,0,0.9-0.2,1-0.4v0.3h0.7V-46
	c0-0.8-0.6-1.4-1.5-1.4c-0.5,0-1,0.1-1.2,0.3v0.6c0.3-0.2,0.7-0.3,1.1-0.3c0.6,0,0.9,0.3,0.9,0.8V-45.5L2209.9-45.5z"/>
<rect x="2211.7" y="-49.3" class="st5" width="0.7" height="5.8"/>
<path class="st5" d="M2216.3-44.6c-0.2,0.4-0.6,0.7-1,0.7c-0.8,0-1.2-0.6-1.2-1.5c0-0.8,0.4-1.5,1.2-1.5c0.4,0,0.8,0.2,1,0.7V-44.6z
	 M2216.3-43.4h0.7v-5.8h-0.7v2.3c-0.2-0.3-0.6-0.5-1.1-0.5c-1.2,0-1.8,1-1.8,2.1s0.6,2.1,1.8,2.1c0.5,0,0.9-0.3,1.1-0.5V-43.4z"/>
<path class="st5" d="M2219.7-46.9c0.6,0,0.9,0.5,1,1.1h-2.1C2218.7-46.5,2219.1-46.9,2219.7-46.9 M2221.3-45.3v-0.2
	c0-1.2-0.6-2-1.6-2c-1.1,0-1.8,0.9-1.8,2.1c0,1.3,0.8,2,1.9,2c0.5,0,0.9-0.1,1.2-0.3v-0.6c-0.4,0.3-0.7,0.4-1.1,0.4
	c-0.7,0-1.3-0.4-1.3-1.4C2218.5-45.3,2221.3-45.3,2221.3-45.3z"/>
<path class="st5" d="M2222-43.7c0.3,0.2,0.8,0.4,1.3,0.4c0.8,0,1.5-0.4,1.5-1.2c0-0.6-0.3-0.9-0.9-1.1l-0.6-0.2
	c-0.4-0.1-0.6-0.2-0.6-0.6c0-0.3,0.3-0.5,0.8-0.5s0.9,0.2,1.2,0.5v-0.7c-0.3-0.2-0.7-0.3-1.2-0.3c-0.8,0-1.4,0.4-1.4,1.1
	c0,0.7,0.4,0.9,1,1.1l0.6,0.2c0.4,0.1,0.6,0.3,0.6,0.6c0,0.4-0.4,0.6-0.8,0.6c-0.5,0-0.9-0.2-1.3-0.5L2222-43.7L2222-43.7z"/>
<path class="st5" d="M2228.4-46.2c0.2-0.4,0.6-0.7,1-0.7c0.8,0,1.2,0.6,1.2,1.5c0,0.8-0.4,1.5-1.2,1.5c-0.4,0-0.8-0.2-1-0.7V-46.2z
	 M2228.4-43.9c0.2,0.3,0.6,0.5,1.1,0.5c1.2,0,1.8-1,1.8-2.1s-0.6-2.1-1.8-2.1c-0.5,0-0.9,0.3-1.1,0.5v-0.5h-0.7v5.5h0.7V-43.9z"/>
<path class="st5" d="M2234.3-47.4c-0.1,0-0.2-0.1-0.4-0.1c-0.4,0-0.8,0.3-1,0.6v-0.5h-0.7v4h0.7v-2.7c0.1-0.5,0.5-0.8,0.9-0.8
	c0.2,0,0.3,0,0.4,0.1v-0.6H2234.3z"/>
<path class="st5" d="M2235.9-48.6c0-0.2-0.2-0.4-0.4-0.4s-0.4,0.2-0.4,0.4s0.2,0.4,0.4,0.4C2235.7-48.2,2235.9-48.4,2235.9-48.6
	 M2235.9-47.4h-0.7v4h0.7V-47.4z"/>
<path class="st5" d="M2238.5-46.9c0.6,0,0.9,0.5,1,1.1h-2.1C2237.6-46.5,2238-46.9,2238.5-46.9 M2240.2-45.3v-0.2c0-1.2-0.6-2-1.6-2
	c-1.1,0-1.8,0.9-1.8,2.1c0,1.3,0.8,2,1.9,2c0.5,0,0.9-0.1,1.2-0.3v-0.6c-0.4,0.3-0.7,0.4-1.1,0.4c-0.7,0-1.3-0.4-1.3-1.4
	C2237.4-45.3,2240.2-45.3,2240.2-45.3z"/>
<polygon class="st5" points="2242.5,-45.6 2244.4,-47.4 2243.5,-47.4 2241.8,-45.7 2241.8,-49.3 2241.1,-49.3 2241.1,-43.4 
	2241.8,-43.4 2241.8,-45.4 2243.6,-43.4 2244.5,-43.4 "/>
<path class="st5" d="M2244.9-43.7c0.3,0.2,0.8,0.4,1.3,0.4c0.8,0,1.5-0.4,1.5-1.2c0-0.6-0.3-0.9-0.9-1.1l-0.6-0.2
	c-0.4-0.1-0.6-0.2-0.6-0.6c0-0.3,0.3-0.5,0.8-0.5s0.9,0.2,1.2,0.5v-0.7c-0.3-0.2-0.7-0.3-1.2-0.3c-0.8,0-1.4,0.4-1.4,1.1
	c0,0.7,0.4,0.9,1,1.1l0.6,0.2c0.4,0.1,0.6,0.3,0.6,0.6c0,0.4-0.4,0.6-0.8,0.6c-0.5,0-0.9-0.2-1.3-0.5L2244.9-43.7L2244.9-43.7z
	 M2247.5-49.2h-0.6l-0.6,0.8l-0.6-0.8h-0.6l0.8,1.2h0.6L2247.5-49.2z"/>
<path class="st5" d="M2248.4-43.7c0.3,0.2,0.8,0.4,1.3,0.4c0.8,0,1.5-0.4,1.5-1.2c0-0.6-0.3-0.9-0.9-1.1l-0.6-0.2
	c-0.4-0.1-0.6-0.2-0.6-0.6c0-0.3,0.3-0.5,0.8-0.5s0.9,0.2,1.2,0.5v-0.7c-0.3-0.2-0.7-0.3-1.2-0.3c-0.8,0-1.4,0.4-1.4,1.1
	c0,0.7,0.4,0.9,1,1.1l0.6,0.2c0.4,0.1,0.6,0.3,0.6,0.6c0,0.4-0.4,0.6-0.8,0.6c-0.5,0-0.9-0.2-1.3-0.5L2248.4-43.7L2248.4-43.7z"/>
<path class="st5" d="M2252.8-48.2h1.9v-0.5h-1.9V-48.2z M2253.7-46.9c0.6,0,0.9,0.5,1,1.1h-2.1C2252.7-46.5,2253.2-46.9,2253.7-46.9
	z M2255.3-45.3v-0.2c0-1.2-0.6-2-1.6-2c-1.1,0-1.8,0.9-1.8,2.1c0,1.3,0.8,2,1.9,2c0.5,0,0.9-0.1,1.2-0.3v-0.6
	c-0.4,0.3-0.7,0.4-1.1,0.4c-0.7,0-1.3-0.4-1.3-1.4C2252.6-45.3,2255.3-45.3,2255.3-45.3z"/>
<path class="st5" d="M2258.9-44.6c-0.2,0.4-0.6,0.7-1,0.7c-0.8,0-1.2-0.6-1.2-1.5c0-0.8,0.4-1.5,1.2-1.5c0.4,0,0.8,0.2,1,0.7V-44.6z
	 M2258.9-43.4h0.7v-5.8h-0.7v2.3c-0.2-0.3-0.6-0.5-1.1-0.5c-1.2,0-1.8,1-1.8,2.1s0.6,2.1,1.8,2.1c0.5,0,0.9-0.3,1.1-0.5V-43.4z"/>
<path class="st5" d="M2261.3-48.2h1.9v-0.5h-1.9V-48.2z M2262.3-46.9c0.6,0,0.9,0.5,1,1.1h-2.1C2261.3-46.5,2261.7-46.9,2262.3-46.9
	z M2263.9-45.3v-0.2c0-1.2-0.6-2-1.6-2c-1.1,0-1.8,0.9-1.8,2.1c0,1.3,0.8,2,1.9,2c0.5,0,0.9-0.1,1.2-0.3v-0.6
	c-0.4,0.3-0.7,0.4-1.1,0.4c-0.7,0-1.3-0.4-1.3-1.4C2261.2-45.3,2263.9-45.3,2263.9-45.3z"/>
<polygon class="st5" points="2265.9,-46.8 2266.8,-46.8 2266.8,-47.4 2265.9,-47.4 2265.9,-48.4 2265.2,-48.4 2265.2,-47.4 
	2264.4,-47.4 2264.4,-46.8 2265.2,-46.8 2265.2,-43.4 2265.9,-43.4 "/>
<path class="st5" d="M2268-48.2h1.9v-0.5h-1.9V-48.2z M2269.8-44.4c-0.1,0.3-0.5,0.5-0.9,0.5c-0.5,0-0.9-0.2-0.9-0.7
	s0.5-0.7,0.9-0.7s0.8,0.2,0.9,0.5V-44.4z M2269.8-45.5c-0.2-0.2-0.6-0.3-1-0.3c-0.9,0-1.5,0.5-1.5,1.3s0.7,1.3,1.5,1.3
	c0.5,0,0.9-0.2,1-0.4v0.3h0.7V-46c0-0.8-0.6-1.4-1.5-1.4c-0.5,0-1,0.1-1.2,0.3v0.6c0.3-0.2,0.7-0.3,1.1-0.3c0.6,0,0.9,0.3,0.9,0.8
	V-45.5L2269.8-45.5z"/>
<path class="st5" d="M2272.4-48.6c0-0.2-0.2-0.4-0.4-0.4s-0.4,0.2-0.4,0.4s0.2,0.4,0.4,0.4C2272.2-48.2,2272.4-48.4,2272.4-48.6
	 M2272.2-47.4h-0.7v4.4c0,0.5-0.2,0.6-0.5,0.6c-0.1,0-0.2,0-0.2,0v0.6c0.1,0,0.2,0,0.3,0c0.8,0,1.2-0.4,1.2-1.2v-4.4H2272.2z"/>
<path class="st5" d="M2273.2-43.7c0.3,0.2,0.8,0.4,1.3,0.4c0.8,0,1.5-0.4,1.5-1.2c0-0.6-0.3-0.9-0.9-1.1l-0.6-0.2
	c-0.4-0.1-0.6-0.2-0.6-0.6c0-0.3,0.3-0.5,0.8-0.5s0.9,0.2,1.2,0.5v-0.7c-0.3-0.2-0.7-0.3-1.2-0.3c-0.8,0-1.4,0.4-1.4,1.1
	c0,0.7,0.4,0.9,1,1.1l0.6,0.2c0.4,0.1,0.6,0.3,0.6,0.6c0,0.4-0.4,0.6-0.8,0.6c-0.5,0-0.9-0.2-1.3-0.5L2273.2-43.7L2273.2-43.7z"/>
<path class="st4" d="M2094.5-103.2c1.8,1.7,2.7,4,2.7,6.4c0,3.6-2.8,6.1-7,6.4v-2.2c2.5-0.3,4.9-1.5,4.9-4.3c0-2.7-1.2-4.1-2.5-5.4
	c0.6-0.2,1.3-0.5,1.8-0.9C2094.3-103.1,2094.4-103.1,2094.5-103.2"/>
<path class="st4" d="M2089.6-119.4h1.1h0.5v5.5l0,0v5.8c0,0.6,0.1,1.1,0.3,1.6c-0.5,0.3-1.1,0.4-1.7,0.5c-0.1,0-0.2,0-0.4,0
	c-0.3-0.7-0.4-1.4-0.4-2.2V-119l0,0v-0.5L2089.6-119.4L2089.6-119.4z"/>
<path class="st4" d="M2092.3-116.8c3,0.9,4.9,3.1,4.9,6c0,1.9-0.8,5.1-3.5,6.8c-1.4,0.9-2.9,1.3-4.5,1.3c-1.1,0-2.2,0.2-3.2,0.7
	c-0.9,0.5-1.6,1.2-2.1,2.2s-0.7,2-0.8,3.1c0,1.9,1.1,3.1,2.7,3.8v2.3c-3-0.9-4.9-3.1-4.9-6c0-1.9,0.8-5.1,3.5-6.8
	c2.7-1.8,4.9-0.9,6.9-1.6c0.3-0.1,0.6-0.2,0.8-0.4c0.9-0.5,1.6-1.2,2-2.1c0.5-1,0.7-2,0.8-3.1c0-1.9-1.1-3.1-2.7-3.8v-2.4H2092.3z"
	/>
<path class="st4" d="M2088-117.2v2.2c-2.5,0.3-4.9,1.5-4.9,4.3c0,2.7,1.2,4.1,2.5,5.4c-0.6,0.2-1.3,0.5-1.8,0.9
	c-0.1,0-0.1,0.1-0.2,0.1c-1.8-1.7-2.7-4-2.7-6.4C2081-114.3,2083.7-116.8,2088-117.2"/>
<path class="st4" d="M2088.7-101.6L2088.7-101.6c0.3,0.7,0.4,1.4,0.4,2.1v8.9v1.9v0.5h-0.5h-1.1h-0.5v-0.5v-10.8
	c0-0.6-0.1-1.1-0.4-1.6c0.5-0.3,1.1-0.4,1.7-0.5C2088.4-101.6,2088.5-101.6,2088.7-101.6"/>
<polygon class="st5" points="2105.7,-98.7 2112.9,-98.7 2112.9,-101 2108.3,-101 2108.3,-108.8 2105.7,-108.8 "/>
<path class="st5" d="M2119.7-105.3c0,0.8-0.4,1.3-1.4,1.3h-1.5v-2.6h1.5C2119.2-106.6,2119.7-106.1,2119.7-105.3 M2118.5-101.8
	c2.2,0,3.7-1.2,3.7-3.5s-1.5-3.5-3.7-3.5h-4.4v10.2h2.6v-3.2H2118.5z"/>
<polygon class="st5" points="2131.9,-108.8 2129,-108.8 2127.1,-105.9 2125.3,-108.8 2122.4,-108.8 2125.6,-103.9 2122.2,-98.7 
	2125.1,-98.7 2127.1,-101.8 2129.1,-98.7 2132.1,-98.7 2128.7,-103.9 "/>
<path class="st5" d="M2136.5-99.5c0.7,0.6,1.8,0.9,3.2,0.9c2,0,3.4-1,3.4-2.8c0-1.4-0.7-2.2-2.3-2.8l-1.6-0.6
	c-0.9-0.4-1.5-0.7-1.5-1.6c0-1,0.9-1.5,2-1.5c1.2,0,2.1,0.4,2.9,1.1v-1.4c-0.8-0.5-1.8-0.8-2.9-0.8c-1.8,0-3.3,0.9-3.3,2.7
	c0,1.6,1.1,2.3,2.3,2.7l1.5,0.6c1.1,0.4,1.6,0.8,1.6,1.7c0,1-0.9,1.6-2.2,1.6c-1.2,0-2.3-0.4-3.2-1.2L2136.5-99.5L2136.5-99.5z"/>
<polygon class="st5" points="2144.9,-108.8 2144.9,-98.7 2151.4,-98.7 2151.4,-99.8 2146.2,-99.8 2146.2,-103.3 2150.9,-103.3 
	2150.9,-104.5 2146.2,-104.5 2146.2,-107.7 2151.4,-107.7 2151.4,-108.8 "/>
<path class="st5" d="M2154.7-107.7h2.4c1.3,0,2.1,0.7,2.1,1.8s-0.8,1.8-2.1,1.8h-2.4V-107.7z M2156.5-103l2.9,4.3h1.5l-3-4.3
	c1.6-0.2,2.6-1.2,2.6-2.9c0-1.9-1.3-2.9-3.4-2.9h-3.7v10.2h1.3v-4.3L2156.5-103L2156.5-103z"/>
<polygon class="st5" points="2166.7,-98.7 2170.7,-108.8 2169.3,-108.8 2166.1,-100.4 2163,-108.8 2161.6,-108.8 2165.5,-98.7 "/>
<rect x="2172.2" y="-108.8" class="st5" width="1.3" height="10.2"/>
<path class="st5" d="M2175.4-99.5c0.7,0.6,1.8,0.9,3.2,0.9c2,0,3.4-1,3.4-2.8c0-1.4-0.7-2.2-2.3-2.8l-1.6-0.6
	c-0.9-0.4-1.5-0.7-1.5-1.6c0-1,0.9-1.5,2-1.5c1.2,0,2.1,0.4,2.9,1.1v-1.4c-0.8-0.5-1.8-0.8-2.9-0.8c-1.8,0-3.3,0.9-3.3,2.7
	c0,1.6,1.1,2.3,2.3,2.7l1.5,0.6c1.1,0.4,1.6,0.8,1.6,1.7c0,1-0.9,1.6-2.2,1.6c-1.2,0-2.3-0.4-3.2-1.2L2175.4-99.5L2175.4-99.5z"/>
<path class="st5" d="M2183.4-99.5c0.7,0.6,1.8,0.9,3.2,0.9c2,0,3.4-1,3.4-2.8c0-1.4-0.7-2.2-2.3-2.8l-1.6-0.6
	c-0.9-0.4-1.5-0.7-1.5-1.6c0-1,0.9-1.5,2-1.5c1.2,0,2.1,0.4,2.9,1.1v-1.4c-0.8-0.5-1.8-0.8-2.9-0.8c-1.8,0-3.3,0.9-3.3,2.7
	c0,1.6,1.1,2.3,2.3,2.7l1.5,0.6c1.1,0.4,1.6,0.8,1.6,1.7c0,1-0.9,1.6-2.2,1.6c-1.2,0-2.3-0.4-3.2-1.2L2183.4-99.5L2183.4-99.5z"/>
<polygon class="st5" points="2204.2,-27.4 2204.2,-25.9 2202.8,-25.9 2202.8,-25.4 2204.2,-25.4 2204.2,-23.9 2204.8,-23.9 
	2204.8,-25.4 2206.3,-25.4 2206.3,-25.9 2204.8,-25.9 2204.8,-27.4 "/>
<path class="st5" d="M2207.1-27.9h2.2l-1.3,2l0,0c1,0,1.7,0.4,1.7,1.2c0,0.7-0.5,1.1-1.2,1.1c-0.5,0-1.1-0.2-1.5-0.6v0.8
	c0.4,0.3,0.8,0.5,1.5,0.5c1,0,1.9-0.7,1.9-1.8c0-0.9-0.6-1.5-1.4-1.6l1.4-2.2l0,0h-3.3L2207.1-27.9L2207.1-27.9z"/>
<polygon class="st5" points="2214.6,-28.5 2214.6,-28.5 2210.9,-28.5 2210.9,-27.9 2213.6,-27.9 2211.4,-23 2212.1,-23 "/>
<polygon class="st5" points="2217,-28.5 2216.6,-28.5 2214.9,-27.6 2214.9,-26.9 2216.3,-27.6 2216.3,-23 2217,-23 "/>
<path class="st5" d="M2221.1-23.6l1-1.2c0.6-0.8,1.1-1.4,1.1-2.2c0-1-0.6-1.6-1.6-1.6c-0.7,0-1.3,0.3-1.6,0.7v0.7
	c0.4-0.4,0.9-0.8,1.6-0.8c0.7,0,1,0.4,1,1c0,0.7-0.5,1.2-1,1.9l-1.7,2.1l0,0h3.5v-0.6H2221.1L2221.1-23.6z"/>
<path class="st5" d="M2225.5-26.4c-0.3,0-0.5,0-0.7,0.1v-1.5h2.3v-0.6h-2.9v2.9c0.4-0.1,0.7-0.3,1.2-0.3c0.8,0,1.4,0.4,1.4,1.2
	c0,0.7-0.6,1.2-1.4,1.2c-0.5,0-1-0.2-1.4-0.6v0.8c0.4,0.3,0.8,0.4,1.4,0.4c1.1,0,2-0.7,2-1.8C2227.4-25.8,2226.6-26.4,2225.5-26.4"
	/>
<polygon class="st5" points="2230.6,-28.5 2229.9,-28.5 2227.9,-24.2 2227.9,-24.2 2230.5,-24.2 2230.5,-23 2231.2,-23 
	2231.2,-24.2 2232.1,-24.2 2232.1,-24.8 2231.2,-24.8 2231.2,-26.1 2230.5,-26.1 2230.5,-24.8 2228.9,-24.8 "/>
<polygon class="st5" points="2235.1,-28.5 2234.5,-28.5 2232.5,-24.2 2232.5,-24.2 2235.1,-24.2 2235.1,-23 2235.8,-23 
	2235.8,-24.2 2236.7,-24.2 2236.7,-24.8 2235.8,-24.8 2235.8,-26.1 2235.1,-26.1 2235.1,-24.8 2233.5,-24.8 "/>
<path class="st5" d="M2238.2-23.6l1-1.2c0.6-0.8,1.1-1.4,1.1-2.2c0-1-0.6-1.6-1.6-1.6c-0.7,0-1.3,0.3-1.6,0.7v0.7
	c0.4-0.4,0.9-0.8,1.6-0.8c0.7,0,1,0.4,1,1c0,0.7-0.5,1.2-1,1.9L2237-23l0,0h3.5v-0.6H2238.2L2238.2-23.6z"/>
<path class="st5" d="M2241.8-26.7c0-0.7,0.5-1.3,1.2-1.3s1.2,0.5,1.2,1.3c0,0.7-0.5,1.3-1.2,1.3S2241.8-26,2241.8-26.7 M2243-28.6
	c-1.1,0-1.9,0.8-1.9,1.9s0.8,1.9,1.8,1.9c0.2,0,0.5-0.1,0.6-0.2l-1.2,2h0.7l1.3-2.2c0.4-0.6,0.5-1.1,0.5-1.5
	C2244.9-27.8,2244.1-28.6,2243-28.6z"/>
<path class="st5" d="M2247.6-27.9c0.9,0,1.4,0.9,1.4,2.2s-0.5,2.2-1.4,2.2s-1.4-0.9-1.4-2.2S2246.7-27.9,2247.6-27.9 M2247.6-22.9
	c1.2,0,2.1-1.2,2.1-2.8s-0.8-2.8-2.1-2.8s-2.1,1.2-2.1,2.8C2245.5-24,2246.3-22.9,2247.6-22.9z"/>
<path class="st5" d="M2252.2-22.9c1.1,0,1.9-0.6,1.9-1.6c0-0.7-0.5-1.2-1.1-1.4c0.5-0.2,0.9-0.6,0.9-1.2c0-0.9-0.8-1.5-1.7-1.5
	s-1.7,0.6-1.7,1.5c0,0.6,0.4,1.1,0.9,1.2c-0.6,0.2-1.1,0.7-1.1,1.4C2250.3-23.5,2251.1-22.9,2252.2-22.9 M2252.2-26.2
	c-0.6,0-1-0.4-1-0.9s0.4-0.9,1-0.9s1,0.4,1,0.9C2253.2-26.5,2252.8-26.2,2252.2-26.2z M2252.2-23.5c-0.7,0-1.2-0.4-1.2-1.1
	c0-0.6,0.5-1,1.2-1s1.2,0.4,1.2,1C2253.4-23.9,2252.9-23.5,2252.2-23.5z"/>
<path class="st5" d="M2204.2-16.6c0.6,0,0.9,0.5,1,1.1h-2.1C2203.2-16.3,2203.7-16.6,2204.2-16.6 M2205.8-15v-0.2c0-1.2-0.6-2-1.6-2
	c-1.1,0-1.8,0.9-1.8,2.1c0,1.3,0.8,2,1.9,2c0.5,0,0.9-0.1,1.2-0.4V-14c-0.4,0.3-0.7,0.4-1.1,0.4c-0.7,0-1.3-0.4-1.3-1.4
	C2203.1-15,2205.8-15,2205.8-15z"/>
<rect x="2206.8" y="-19" class="st5" width="0.7" height="5.9"/>
<polygon class="st5" points="2210.4,-13.1 2212,-17.1 2211.3,-17.1 2210.1,-14 2208.9,-17.1 2208.2,-17.1 2209.7,-13.1 "/>
<path class="st5" d="M2213.5-18.3c0-0.2-0.2-0.4-0.4-0.4s-0.4,0.2-0.4,0.4c0,0.2,0.2,0.4,0.4,0.4S2213.5-18.1,2213.5-18.3
	 M2213.4-17.1h-0.7v4h0.7V-17.1z"/>
<path class="st5" d="M2215.4-18.3c0-0.2-0.2-0.4-0.4-0.4s-0.4,0.2-0.4,0.4c0,0.2,0.2,0.4,0.4,0.4S2215.4-18.1,2215.4-18.3
	 M2215.3-17.1h-0.7v4.4c0,0.4-0.2,0.6-0.5,0.6c-0.1,0-0.2,0-0.2,0v0.6c0.1,0,0.2,0,0.3,0c0.8,0,1.2-0.4,1.2-1.1v-4.5H2215.3z"/>
<path class="st5" d="M2216.2-13.4c0.3,0.2,0.8,0.4,1.3,0.4c0.8,0,1.5-0.4,1.5-1.2c0-0.6-0.3-0.9-0.9-1.1l-0.6-0.2
	c-0.4-0.1-0.6-0.2-0.6-0.6c0-0.3,0.3-0.5,0.8-0.5s0.9,0.2,1.2,0.5v-0.7c-0.3-0.2-0.7-0.4-1.2-0.4c-0.8,0-1.4,0.4-1.4,1.1
	c0,0.6,0.4,0.9,1,1.1l0.6,0.2c0.4,0.1,0.6,0.3,0.6,0.6c0,0.4-0.4,0.6-0.8,0.6c-0.5,0-0.9-0.2-1.3-0.5L2216.2-13.4L2216.2-13.4z"/>
<path class="st5" d="M2219.7-13.5c0,0.3,0.2,0.5,0.5,0.5s0.5-0.2,0.5-0.5s-0.2-0.5-0.5-0.5S2219.7-13.8,2219.7-13.5"/>
<polygon class="st5" points="2224.5,-13.7 2222.3,-13.7 2224.5,-17.1 2224.5,-17.1 2221.4,-17.1 2221.4,-16.5 2223.4,-16.5 
	2221.3,-13.1 2221.3,-13.1 2224.5,-13.1 "/>
<path class="st5" d="M2226.2-18.3c0-0.2-0.2-0.4-0.4-0.4s-0.4,0.2-0.4,0.4c0,0.2,0.2,0.4,0.4,0.4C2226-17.9,2226.2-18.1,2226.2-18.3
	 M2226.1-17.1h-0.7v4h0.7V-17.1z"/>
<path class="st5" d="M2228.8-16.6c0.6,0,0.9,0.5,1,1.1h-2.1C2227.8-16.3,2228.3-16.6,2228.8-16.6 M2230.4-15v-0.2c0-1.2-0.6-2-1.6-2
	c-1.1,0-1.8,0.9-1.8,2.1c0,1.3,0.8,2,1.9,2c0.5,0,0.9-0.1,1.2-0.4V-14c-0.4,0.3-0.7,0.4-1.1,0.4c-0.7,0-1.3-0.4-1.3-1.4
	C2227.7-15,2230.4-15,2230.4-15z"/>
<path class="st5" d="M2234-14.3c-0.2,0.4-0.6,0.7-1,0.7c-0.8,0-1.2-0.6-1.2-1.5s0.4-1.5,1.2-1.5c0.4,0,0.8,0.2,1,0.7V-14.3z
	 M2234-13.1h0.7V-19h-0.7v2.3c-0.2-0.3-0.6-0.5-1.1-0.5c-1.2,0-1.8,1-1.8,2.1s0.6,2.1,1.8,2.1c0.5,0,0.9-0.3,1.1-0.6V-13.1z"/>
<path class="st5" d="M2236.6-18.3c0-0.2-0.2-0.4-0.4-0.4s-0.4,0.2-0.4,0.4c0,0.2,0.2,0.4,0.4,0.4S2236.6-18.1,2236.6-18.3
	 M2236.5-17.1h-0.7v4h0.7V-17.1z"/>
<path class="st5" d="M2237.7-13.1h0.7v-2.7c0.1-0.4,0.6-0.8,1-0.8c0.6,0,0.9,0.4,0.9,0.9v2.5h0.7v-2.6c0-0.9-0.5-1.5-1.4-1.5
	c-0.5,0-0.9,0.3-1.2,0.6v-0.5h-0.7V-13.1z"/>
<path class="st5" d="M2241.9-13.4c0.3,0.2,0.8,0.4,1.3,0.4c0.8,0,1.5-0.4,1.5-1.2c0-0.6-0.3-0.9-0.9-1.1l-0.6-0.2
	c-0.4-0.1-0.6-0.2-0.6-0.6c0-0.3,0.3-0.5,0.8-0.5s0.9,0.2,1.2,0.5v-0.7c-0.3-0.2-0.7-0.4-1.2-0.4c-0.8,0-1.4,0.4-1.4,1.1
	c0,0.6,0.4,0.9,1,1.1l0.6,0.2c0.4,0.1,0.6,0.3,0.6,0.6c0,0.4-0.4,0.6-0.8,0.6c-0.5,0-0.9-0.2-1.3-0.5L2241.9-13.4L2241.9-13.4z"/>
<path class="st5" d="M2249.2-14.5c-0.2,0.3-0.4,0.5-0.8,0.5c-0.4,0-0.7-0.3-0.7-0.8c0-0.6,0.4-1.3,1.1-1.3c0.3,0,0.6,0.2,0.7,0.5
	L2249.2-14.5z M2250.2-16.5h-0.6l-0.1,0.3c-0.1-0.2-0.4-0.4-0.8-0.4c-1,0-1.6,0.9-1.6,1.9c0,0.8,0.4,1.3,1.2,1.3
	c0.4,0,0.7-0.2,0.9-0.5c0.1,0.3,0.5,0.5,0.9,0.5c0.9,0,1.8-0.7,1.8-2.2s-1.2-2.7-3-2.7c-2,0-3.4,1.5-3.4,3.4c0,2.2,1.7,3.1,3.4,3.1
	c0.8,0,1.5-0.2,1.9-0.4v-0.5c-0.5,0.2-1.1,0.4-1.9,0.4c-1.4,0-2.9-0.7-2.9-2.6c0-1.7,1.2-2.9,2.9-2.9c1.4,0,2.4,0.9,2.4,2.1
	c0,1.1-0.5,1.7-1.1,1.7c-0.3,0-0.4-0.1-0.4-0.5L2250.2-16.5z"/>
<rect x="2252.7" y="-19" class="st5" width="0.7" height="5.9"/>
<path class="st5" d="M2255.2-15.9c0.2-0.4,0.6-0.7,1-0.7c0.8,0,1.2,0.6,1.2,1.5s-0.4,1.5-1.2,1.5c-0.4,0-0.8-0.2-1-0.7V-15.9z
	 M2255.2-13.6c0.2,0.3,0.6,0.6,1.1,0.6c1.2,0,1.8-1,1.8-2.1s-0.6-2.1-1.8-2.1c-0.5,0-0.9,0.3-1.1,0.5v-0.5h-0.7v5.5h0.7V-13.6z"/>
<polygon class="st5" points="2262.2,-17.1 2261.4,-17.1 2260.4,-15.7 2259.4,-17.1 2258.6,-17.1 2260,-15.1 2258.5,-13.1 
	2259.3,-13.1 2260.4,-14.7 2261.5,-13.1 2262.3,-13.1 2260.8,-15.2 "/>
<path class="st5" d="M2262.8-13.4c0.3,0.2,0.8,0.4,1.3,0.4c0.8,0,1.5-0.4,1.5-1.2c0-0.6-0.3-0.9-0.9-1.1l-0.6-0.2
	c-0.4-0.1-0.6-0.2-0.6-0.6c0-0.3,0.3-0.5,0.8-0.5s0.9,0.2,1.2,0.5v-0.7c-0.3-0.2-0.7-0.4-1.2-0.4c-0.8,0-1.4,0.4-1.4,1.1
	c0,0.6,0.4,0.9,1,1.1l0.6,0.2c0.4,0.1,0.6,0.3,0.6,0.6c0,0.4-0.4,0.6-0.8,0.6c-0.5,0-0.9-0.2-1.3-0.5L2262.8-13.4L2262.8-13.4z"/>
<path class="st5" d="M2268-16.6c0.6,0,0.9,0.5,1,1.1h-2.1C2267.1-16.3,2267.5-16.6,2268-16.6 M2269.7-15v-0.2c0-1.2-0.6-2-1.6-2
	c-1.1,0-1.8,0.9-1.8,2.1c0,1.3,0.8,2,1.9,2c0.5,0,0.9-0.1,1.2-0.4V-14c-0.4,0.3-0.7,0.4-1.1,0.4c-0.7,0-1.3-0.4-1.3-1.4
	C2266.9-15,2269.7-15,2269.7-15z"/>
<path class="st5" d="M2272.6-17.1c-0.1,0-0.2-0.1-0.4-0.1c-0.4,0-0.8,0.3-1,0.6v-0.5h-0.7v4h0.7v-2.7c0.1-0.5,0.5-0.8,0.9-0.8
	c0.2,0,0.3,0,0.4,0.1v-0.6H2272.6z"/>
<polygon class="st5" points="2275.2,-13.1 2276.8,-17.1 2276.1,-17.1 2274.9,-14 2273.8,-17.1 2273,-17.1 2274.6,-13.1 "/>
<path class="st5" d="M2278.3-18.3c0-0.2-0.2-0.4-0.4-0.4s-0.4,0.2-0.4,0.4c0,0.2,0.2,0.4,0.4,0.4
	C2278.2-17.9,2278.3-18.1,2278.3-18.3 M2278.2-17.1h-0.7v4h0.7V-17.1z"/>
<path class="st5" d="M2279.2-13.4c0.3,0.2,0.8,0.4,1.3,0.4c0.8,0,1.5-0.4,1.5-1.2c0-0.6-0.3-0.9-0.9-1.1l-0.6-0.2
	c-0.4-0.1-0.6-0.2-0.6-0.6c0-0.3,0.3-0.5,0.8-0.5s0.9,0.2,1.2,0.5v-0.7c-0.3-0.2-0.7-0.4-1.2-0.4c-0.8,0-1.4,0.4-1.4,1.1
	c0,0.6,0.4,0.9,1,1.1l0.6,0.2c0.4,0.1,0.6,0.3,0.6,0.6c0,0.4-0.4,0.6-0.8,0.6c-0.5,0-0.9-0.2-1.3-0.5L2279.2-13.4L2279.2-13.4z"/>
<path class="st5" d="M2282.7-13.4c0.3,0.2,0.8,0.4,1.3,0.4c0.8,0,1.5-0.4,1.5-1.2c0-0.6-0.3-0.9-0.9-1.1l-0.6-0.2
	c-0.4-0.1-0.6-0.2-0.6-0.6c0-0.3,0.3-0.5,0.8-0.5s0.9,0.2,1.2,0.5v-0.7c-0.3-0.2-0.7-0.4-1.2-0.4c-0.8,0-1.4,0.4-1.4,1.1
	c0,0.6,0.4,0.9,1,1.1l0.6,0.2c0.4,0.1,0.6,0.3,0.6,0.6c0,0.4-0.4,0.6-0.8,0.6c-0.5,0-0.9-0.2-1.3-0.5L2282.7-13.4L2282.7-13.4z"/>
<path class="st5" d="M2286.2-13.5c0,0.3,0.2,0.5,0.5,0.5s0.5-0.2,0.5-0.5s-0.2-0.5-0.5-0.5S2286.2-13.8,2286.2-13.5"/>
<rect x="2288.1" y="-19" class="st5" width="0.7" height="5.9"/>
<polygon class="st5" points="2291.7,-13.1 2293.3,-17.1 2292.6,-17.1 2291.4,-14 2290.2,-17.1 2289.5,-17.1 2291,-13.1 "/>
<path class="st5" d="M2094.8-23.4c0.4,0.3,1,0.5,1.7,0.5c1.1,0,1.9-0.6,1.9-1.5c0-0.8-0.4-1.2-1.2-1.5l-0.9-0.3
	c-0.5-0.2-0.8-0.4-0.8-0.9s0.5-0.8,1.1-0.8s1.1,0.2,1.6,0.6v-0.8c-0.4-0.3-1-0.5-1.6-0.5c-0.9,0-1.8,0.5-1.8,1.5
	c0,0.9,0.6,1.2,1.2,1.5l0.8,0.3c0.6,0.2,0.9,0.4,0.9,0.9c0,0.6-0.5,0.9-1.2,0.9c-0.6,0-1.2-0.2-1.7-0.6V-23.4L2094.8-23.4z"/>
<rect x="2099.5" y="-28.5" class="st5" width="0.7" height="5.5"/>
<path class="st5" d="M2103.5-27.6l0.9,2.4h-1.8L2103.5-27.6z M2103.2-28.5L2101-23h0.7l0.6-1.7h2.3l0.6,1.7h0.7l-2.2-5.5H2103.2z"/>
<path class="st5" d="M2110.9-28.5h-0.5l-0.5,0.8c-0.1,0.2-0.2,0.4-0.2,0.6c0,0.3,0.2,0.5,0.5,0.5s0.5-0.2,0.5-0.5s-0.2-0.4-0.4-0.5
	L2110.9-28.5z M2109.5-28.5h-0.5l-0.5,0.8c-0.1,0.2-0.2,0.4-0.2,0.6c0,0.3,0.2,0.5,0.5,0.5s0.5-0.2,0.5-0.5s-0.2-0.4-0.4-0.5
	L2109.5-28.5z"/>
<polygon class="st5" points="2111.7,-23 2115.2,-23 2115.2,-23.6 2112.4,-23.6 2112.4,-28.5 2111.7,-28.5 "/>
<path class="st5" d="M2119.5-26.8c0,0.6-0.4,1-1.1,1h-1.3v-2.1h1.3C2119-27.9,2119.5-27.5,2119.5-26.8 M2118.3-25.2
	c1.1,0,1.9-0.6,1.9-1.7s-0.7-1.7-1.9-1.7h-2v5.5h0.7v-2.2C2117-25.2,2118.3-25.2,2118.3-25.2z"/>
<polygon class="st5" points="2125.2,-28.5 2124.4,-28.5 2122.9,-26.3 2121.4,-28.5 2120.6,-28.5 2122.5,-25.8 2120.5,-23 
	2121.3,-23 2122.9,-25.2 2124.4,-23 2125.2,-23 2123.3,-25.8 "/>
<path class="st5" d="M2127.7-23.4c0.4,0.3,1,0.5,1.7,0.5c1.1,0,1.9-0.6,1.9-1.5c0-0.8-0.4-1.2-1.2-1.5l-0.9-0.3
	c-0.5-0.2-0.8-0.4-0.8-0.9s0.5-0.8,1.1-0.8s1.1,0.2,1.6,0.6v-0.8c-0.4-0.3-1-0.5-1.6-0.5c-0.9,0-1.8,0.5-1.8,1.5
	c0,0.9,0.6,1.2,1.2,1.5l0.8,0.3c0.6,0.2,0.9,0.4,0.9,0.9c0,0.6-0.5,0.9-1.2,0.9c-0.6,0-1.2-0.2-1.7-0.6V-23.4z"/>
<polygon class="st5" points="2132.4,-28.5 2132.4,-23 2135.9,-23 2135.9,-23.6 2133.1,-23.6 2133.1,-25.5 2135.6,-25.5 
	2135.6,-26.1 2133.1,-26.1 2133.1,-27.9 2135.9,-27.9 2135.9,-28.5 "/>
<path class="st5" d="M2137.7-27.9h1.3c0.7,0,1.1,0.4,1.1,1s-0.4,1-1.1,1h-1.3V-27.9z M2138.7-25.3l1.6,2.3h0.8l-1.6-2.4
	c0.9-0.1,1.4-0.6,1.4-1.6s-0.7-1.6-1.8-1.6h-2v5.5h0.7v-2.3C2137.7-25.3,2138.7-25.3,2138.7-25.3z"/>
<polygon class="st5" points="2144.2,-23 2146.4,-28.5 2145.6,-28.5 2143.9,-23.9 2142.2,-28.5 2141.4,-28.5 2143.6,-23 "/>
<rect x="2147.2" y="-28.5" class="st5" width="0.7" height="5.5"/>
<path class="st5" d="M2148.9-23.4c0.4,0.3,1,0.5,1.7,0.5c1.1,0,1.9-0.6,1.9-1.5c0-0.8-0.4-1.2-1.2-1.5l-0.9-0.3
	c-0.5-0.2-0.8-0.4-0.8-0.9s0.5-0.8,1.1-0.8s1.1,0.2,1.6,0.6v-0.8c-0.4-0.3-1-0.5-1.6-0.5c-0.9,0-1.8,0.5-1.8,1.5
	c0,0.9,0.6,1.2,1.2,1.5l0.8,0.3c0.6,0.2,0.9,0.4,0.9,0.9c0,0.6-0.5,0.9-1.2,0.9c-0.6,0-1.2-0.2-1.7-0.6V-23.4z"/>
<path class="st5" d="M2153.3-23.4c0.4,0.3,1,0.5,1.7,0.5c1.1,0,1.9-0.6,1.9-1.5c0-0.8-0.4-1.2-1.2-1.5l-0.9-0.3
	c-0.5-0.2-0.8-0.4-0.8-0.9s0.5-0.8,1.1-0.8s1.1,0.2,1.6,0.6v-0.8c-0.4-0.3-1-0.5-1.6-0.5c-0.9,0-1.8,0.5-1.8,1.5
	c0,0.9,0.6,1.2,1.2,1.5l0.8,0.3c0.6,0.2,0.9,0.4,0.9,0.9c0,0.6-0.5,0.9-1.2,0.9c-0.6,0-1.2-0.2-1.7-0.6V-23.4z"/>
<path class="st5" d="M2158.8-26.7h0.5l0.5-0.8c0.1-0.2,0.2-0.4,0.2-0.6c0-0.3-0.2-0.5-0.5-0.5s-0.5,0.2-0.5,0.5s0.2,0.4,0.4,0.5
	L2158.8-26.7z M2157.4-26.7h0.5l0.5-0.8c0.1-0.2,0.2-0.4,0.2-0.6c0-0.3-0.2-0.5-0.5-0.5s-0.5,0.2-0.5,0.5s0.2,0.4,0.4,0.5
	L2157.4-26.7z"/>
<polygon class="st5" points="2097.6,-17.1 2097,-17.1 2096.2,-14.1 2095.3,-17.1 2094.6,-17.1 2095.8,-13.1 2096.5,-13.1 
	2097.3,-16.1 2098.1,-13.1 2098.8,-13.1 2100,-17.1 2099.3,-17.1 2098.4,-14.1 "/>
<polygon class="st5" points="2103.3,-17.1 2102.7,-17.1 2101.9,-14.1 2101,-17.1 2100.3,-17.1 2101.5,-13.1 2102.1,-13.1 
	2103,-16.1 2103.8,-13.1 2104.5,-13.1 2105.6,-17.1 2105,-17.1 2104.1,-14.1 "/>
<polygon class="st5" points="2108.9,-17.1 2108.3,-17.1 2107.5,-14.1 2106.6,-17.1 2106,-17.1 2107.1,-13.1 2107.8,-13.1 
	2108.6,-16.1 2109.5,-13.1 2110.1,-13.1 2111.3,-17.1 2110.6,-17.1 2109.7,-14.1 "/>
<path class="st5" d="M2111.5-13.5c0,0.3,0.2,0.5,0.5,0.5s0.5-0.2,0.5-0.5s-0.2-0.5-0.5-0.5C2111.7-14,2111.5-13.8,2111.5-13.5"/>
<rect x="2113.3" y="-19" class="st5" width="0.7" height="5.9"/>
<path class="st5" d="M2115.9-15.9c0.2-0.4,0.6-0.7,1-0.7c0.8,0,1.2,0.6,1.2,1.5s-0.4,1.5-1.2,1.5c-0.4,0-0.8-0.2-1-0.7V-15.9z
	 M2115.9-13.6c0.2,0.3,0.6,0.6,1.1,0.6c1.2,0,1.8-1,1.8-2.1s-0.6-2.1-1.8-2.1c-0.5,0-0.9,0.3-1.1,0.5v-0.5h-0.7v5.5h0.7V-13.6z"/>
<polygon class="st5" points="2122.8,-17.1 2122.1,-17.1 2121.1,-15.7 2120,-17.1 2119.3,-17.1 2120.7,-15.1 2119.2,-13.1 
	2119.9,-13.1 2121,-14.7 2122.2,-13.1 2122.9,-13.1 2121.4,-15.2 "/>
<path class="st5" d="M2123.4-13.4c0.3,0.2,0.8,0.4,1.3,0.4c0.8,0,1.5-0.4,1.5-1.2c0-0.6-0.3-0.9-0.9-1.1l-0.6-0.2
	c-0.4-0.1-0.6-0.2-0.6-0.6c0-0.3,0.3-0.5,0.8-0.5s0.9,0.2,1.2,0.5v-0.7c-0.3-0.2-0.7-0.4-1.2-0.4c-0.8,0-1.4,0.4-1.4,1.1
	c0,0.6,0.4,0.9,1,1.1l0.6,0.2c0.4,0.1,0.6,0.3,0.6,0.6c0,0.4-0.4,0.6-0.8,0.6c-0.5,0-0.9-0.2-1.3-0.5L2123.4-13.4L2123.4-13.4z"/>
<path class="st5" d="M2128.7-16.6c0.6,0,0.9,0.5,1,1.1h-2.1C2127.7-16.3,2128.2-16.6,2128.7-16.6 M2130.3-15v-0.2c0-1.2-0.6-2-1.6-2
	c-1.1,0-1.8,0.9-1.8,2.1c0,1.3,0.8,2,1.9,2c0.5,0,0.9-0.1,1.2-0.4V-14c-0.4,0.3-0.7,0.4-1.1,0.4c-0.7,0-1.3-0.4-1.3-1.4
	C2127.6-15,2130.3-15,2130.3-15z"/>
<path class="st5" d="M2133.3-17.1c-0.1,0-0.2-0.1-0.4-0.1c-0.4,0-0.8,0.3-1,0.6v-0.5h-0.7v4h0.7v-2.7c0.1-0.5,0.5-0.8,0.9-0.8
	c0.2,0,0.3,0,0.4,0.1v-0.6H2133.3z"/>
<polygon class="st5" points="2135.9,-13.1 2137.5,-17.1 2136.7,-17.1 2135.6,-14 2134.4,-17.1 2133.7,-17.1 2135.2,-13.1 "/>
<path class="st5" d="M2139-18.3c0-0.2-0.2-0.4-0.4-0.4s-0.4,0.2-0.4,0.4c0,0.2,0.2,0.4,0.4,0.4S2139-18.1,2139-18.3 M2138.9-17.1
	h-0.7v4h0.7V-17.1z"/>
<path class="st5" d="M2139.9-13.4c0.3,0.2,0.8,0.4,1.3,0.4c0.8,0,1.5-0.4,1.5-1.2c0-0.6-0.3-0.9-0.9-1.1l-0.6-0.2
	c-0.4-0.1-0.6-0.2-0.6-0.6c0-0.3,0.3-0.5,0.8-0.5s0.9,0.2,1.2,0.5v-0.7c-0.3-0.2-0.7-0.4-1.2-0.4c-0.8,0-1.4,0.4-1.4,1.1
	c0,0.6,0.4,0.9,1,1.1l0.6,0.2c0.4,0.1,0.6,0.3,0.6,0.6c0,0.4-0.4,0.6-0.8,0.6c-0.5,0-0.9-0.2-1.3-0.5L2139.9-13.4L2139.9-13.4z"/>
<path class="st5" d="M2143.4-13.4c0.3,0.2,0.8,0.4,1.3,0.4c0.8,0,1.5-0.4,1.5-1.2c0-0.6-0.3-0.9-0.9-1.1l-0.6-0.2
	c-0.4-0.1-0.6-0.2-0.6-0.6c0-0.3,0.3-0.5,0.8-0.5s0.9,0.2,1.2,0.5v-0.7c-0.3-0.2-0.7-0.4-1.2-0.4c-0.8,0-1.4,0.4-1.4,1.1
	c0,0.6,0.4,0.9,1,1.1l0.6,0.2c0.4,0.1,0.6,0.3,0.6,0.6c0,0.4-0.4,0.6-0.8,0.6c-0.5,0-0.9-0.2-1.3-0.5L2143.4-13.4L2143.4-13.4z"/>
<path class="st5" d="M2146.9-13.5c0,0.3,0.2,0.5,0.5,0.5s0.5-0.2,0.5-0.5s-0.2-0.5-0.5-0.5S2146.9-13.8,2146.9-13.5"/>
<rect x="2148.7" y="-19" class="st5" width="0.7" height="5.9"/>
<polygon class="st5" points="2152.4,-13.1 2153.9,-17.1 2153.2,-17.1 2152,-14 2150.9,-17.1 2150.2,-17.1 2151.7,-13.1 "/>
<rect x="2086.9" y="-28.6" class="st2" width="2.2" height="15.5"/>
<path class="st1" d="M2141.3,86.9c2.1,2,3.2,4.8,3.2,7.6c0,4.3-3.3,7.2-8.3,7.6v-2.6c3-0.3,5.8-1.8,5.8-5.1c0-3.2-1.4-4.9-3-6.4
	c0.8-0.3,1.5-0.6,2.2-1.1C2141.1,87.1,2141.2,87,2141.3,86.9"/>
<path class="st1" d="M2135.5,67.7h1.3h0.6v6.6l0,0v6.9c0,0.7,0.1,1.3,0.4,1.9c-0.6,0.3-1.3,0.5-2,0.6c-0.1,0-0.3,0-0.5,0
	c-0.3-0.8-0.5-1.7-0.4-2.6V68.3l0,0v-0.6C2134.9,67.7,2135.5,67.7,2135.5,67.7z"/>
<path class="st1" d="M2138.7,70.8c3.6,1.1,5.8,3.7,5.8,7.2c0,2.3-1,6-4.1,8.1c-1.6,1-3.5,1.5-5.4,1.5c-1.3,0-2.6,0.3-3.8,0.8
	c-1.1,0.6-1.9,1.5-2.4,2.6c-0.6,1.1-0.9,2.4-0.9,3.7c0,2.3,1.4,3.7,3.2,4.4v2.7c-3.6-1.1-5.8-3.7-5.8-7.2c0-2.3,1-6,4.1-8.1
	c3.2-2.1,5.8-1,8.2-1.9c0.3-0.1,0.7-0.3,1-0.4c1-0.6,1.9-1.4,2.4-2.5c0.6-1.1,0.9-2.4,0.9-3.7c0-2.3-1.4-3.7-3.2-4.4V70.8
	L2138.7,70.8z"/>
<path class="st1" d="M2133.5,70.3v2.6c-3,0.3-5.8,1.8-5.8,5.1c0,3.2,1.4,4.9,3,6.4c-0.8,0.3-1.5,0.6-2.2,1.1
	c-0.1,0.1-0.1,0.1-0.2,0.2c-2.1-2-3.2-4.8-3.2-7.6C2125.2,73.7,2128.5,70.7,2133.5,70.3"/>
<path class="st1" d="M2134.4,88.8L2134.4,88.8c0.3,0.8,0.5,1.7,0.4,2.5v10.6v2.3v0.6h-0.6h-1.3h-0.6v-0.6V91.4
	c0-0.7-0.1-1.3-0.4-1.9c0.6-0.3,1.3-0.5,2.1-0.6C2134,88.9,2134.2,88.8,2134.4,88.8"/>
<polygon class="st1" points="2154.6,92.3 2163.2,92.3 2163.2,89.6 2157.7,89.6 2157.7,80.2 2154.6,80.2 "/>
<path class="st1" d="M2171.2,84.4c0,0.9-0.5,1.5-1.6,1.5h-1.8v-3h1.8C2170.7,82.9,2171.2,83.5,2171.2,84.4 M2169.9,88.5
	c2.6,0,4.4-1.5,4.4-4.1c0-2.7-1.8-4.2-4.4-4.2h-5.3v12.1h3.1v-3.8H2169.9L2169.9,88.5z"/>
<polygon class="st1" points="2185.8,80.2 2182.3,80.2 2180.1,83.7 2177.9,80.2 2174.4,80.2 2178.3,86.1 2174.2,92.3 2177.7,92.3 
	2180,88.6 2182.4,92.3 2186,92.3 2181.9,86.1 "/>
<path class="st1" d="M2191.2,91.3c0.8,0.7,2.2,1.1,3.8,1.1c2.3,0,4.1-1.2,4.1-3.3c0-1.7-0.8-2.6-2.7-3.3l-1.9-0.8
	c-1.1-0.4-1.8-0.9-1.8-1.9c0-1.2,1-1.8,2.4-1.8s2.5,0.5,3.4,1.3V81c-0.9-0.6-2.1-1-3.5-1c-2.1,0-3.9,1.1-3.9,3.2
	c0,1.9,1.3,2.7,2.7,3.3l1.8,0.7c1.3,0.5,1.9,1,1.9,2c0,1.2-1,1.9-2.6,1.9c-1.4,0-2.7-0.4-3.8-1.4L2191.2,91.3L2191.2,91.3z"/>
<polygon class="st1" points="2201.2,80.2 2201.2,92.3 2208.9,92.3 2208.9,90.9 2202.8,90.9 2202.8,86.8 2208.3,86.8 2208.3,85.4 
	2202.8,85.4 2202.8,81.6 2208.9,81.6 2208.9,80.2 "/>
<path class="st1" d="M2212.9,81.6h2.8c1.6,0,2.5,0.8,2.5,2.1s-0.9,2.1-2.5,2.1h-2.8V81.6z M2215,87.2l3.5,5.1h1.8l-3.6-5.2
	c1.9-0.3,3.1-1.4,3.1-3.4c0-2.3-1.6-3.5-4-3.5h-4.4v12.1h1.6v-5.1H2215z"/>
<polygon class="st1" points="2227.1,92.3 2231.8,80.2 2230.2,80.2 2226.4,90.2 2222.7,80.2 2221,80.2 2225.7,92.3 "/>
<rect x="2233.6" y="80.2" class="st1" width="1.6" height="12.1"/>
<path class="st1" d="M2237.4,91.3c0.8,0.7,2.2,1.1,3.8,1.1c2.3,0,4.1-1.2,4.1-3.3c0-1.7-0.8-2.6-2.7-3.3l-1.9-0.8
	c-1.1-0.4-1.8-0.9-1.8-1.9c0-1.2,1-1.8,2.4-1.8s2.5,0.5,3.4,1.3V81c-0.9-0.6-2.1-1-3.5-1c-2.1,0-3.9,1.1-3.9,3.2
	c0,1.9,1.3,2.7,2.7,3.3l1.8,0.7c1.3,0.5,1.9,1,1.9,2c0,1.2-1,1.9-2.6,1.9c-1.4,0-2.7-0.4-3.8-1.4L2237.4,91.3L2237.4,91.3z"/>
<path class="st1" d="M2246.9,91.3c0.8,0.7,2.2,1.1,3.8,1.1c2.3,0,4.1-1.2,4.1-3.3c0-1.7-0.8-2.6-2.7-3.3l-1.9-0.8
	c-1.1-0.4-1.8-0.9-1.8-1.9c0-1.2,1-1.8,2.4-1.8s2.5,0.5,3.4,1.3V81c-0.9-0.6-2.1-1-3.5-1c-2.1,0-3.9,1.1-3.9,3.2
	c0,1.9,1.3,2.7,2.7,3.3l1.8,0.7c1.3,0.5,1.9,1,1.9,2c0,1.2-1,1.9-2.6,1.9c-1.4,0-2.7-0.4-3.8-1.4L2246.9,91.3L2246.9,91.3z"/>
<rect x="2311.9" y="-119.4" class="st2" width="5.6" height="106.2"/>
<rect x="2311.9" y="33.2" class="st3" width="5.6" height="106.2"/>
<g>
	<path class="st4" d="M3016.8-33.6c3.6,3.4,5.6,8.2,5.5,13.1c0,7.3-5.7,12.4-14.3,13.1v-4.4c5.1-0.5,9.9-3,9.9-8.7
		c0-5.6-2.4-8.4-5.2-11c1.3-0.5,2.6-1.1,3.7-1.8C3016.5-33.4,3016.7-33.5,3016.8-33.6"/>
	<path class="st4" d="M3006.8-66.8h2.2h1.1v11.3l0,0v11.9c0,1.1,0.2,2.3,0.7,3.3c-1.1,0.6-2.3,0.9-3.5,1c-0.2,0-0.5,0-0.8,0.1
		c-0.5-1.4-0.8-2.9-0.8-4.4v-22.1l0,0v-1.1L3006.8-66.8L3006.8-66.8z"/>
	<path class="st4" d="M3012.3-61.5c6.1,1.8,9.9,6.3,9.9,12.3c0,4-1.7,10.4-7.1,14c-2.8,1.8-6,2.7-9.3,2.6c-2.3-0.1-4.5,0.4-6.5,1.5
		c-1.8,1-3.3,2.5-4.2,4.4c-1,2-1.5,4.1-1.6,6.3c0,4,2.4,6.4,5.5,7.7v4.6c-6.1-1.8-9.9-6.3-9.9-12.3c0-4,1.7-10.4,7.1-14
		c5.5-3.6,10-1.8,14.2-3.3c0.6-0.2,1.2-0.5,1.7-0.8c1.8-1,3.2-2.5,4.1-4.3c1-2,1.5-4.1,1.6-6.3c0-4-2.4-6.4-5.5-7.7V-61.5z"/>
	<path class="st4" d="M3003.5-62.3v4.4c-5.1,0.5-9.9,3-9.9,8.7c0,5.6,2.4,8.4,5.2,11c-1.3,0.5-2.6,1.1-3.7,1.8
		c-0.1,0.1-0.3,0.2-0.4,0.3c-3.6-3.4-5.6-8.2-5.5-13.2C2989.2-56.5,2994.8-61.6,3003.5-62.3"/>
	<path class="st4" d="M3004.9-30.4L3004.9-30.4c0.5,1.4,0.8,2.9,0.8,4.4v18.2v3.9v1.1h-1.1h-2.2h-1.1v-1.1V-26
		c0-1.1-0.2-2.3-0.7-3.3c1.1-0.6,2.3-0.9,3.5-1C3004.3-30.3,3004.6-30.4,3004.9-30.4"/>
</g>
</svg>
