<?xml version="1.0" encoding="utf-8"?>
<!-- Generator: Adobe Illustrator 24.3.0, SVG Export Plug-In . SVG Version: 6.00 Build 0)  -->
<svg version="1.1" id="Layer_1" xmlns="http://www.w3.org/2000/svg" xmlns:xlink="http://www.w3.org/1999/xlink" x="0px" y="0px"
	 viewBox="0 0 178 68.5" style="enable-background:new 0 0 178 68.5;" xml:space="preserve">
<style type="text/css">
	.st0{fill-rule:evenodd;clip-rule:evenodd;fill:#E6E6E6;}
	.st1{fill:#06326E;}
	.st2{fill:#141414;}
	.st3{opacity:0.75;fill-rule:evenodd;clip-rule:evenodd;fill:#06326E;}
	.st4{fill:#FFFFFF;}
	.st5{fill-rule:evenodd;clip-rule:evenodd;fill:#141414;}
	.st6{fill:none;}
	.st7{clip-path:url(#SVGID_2_);fill:#06326E;}
	.st8{clip-path:url(#SVGID_4_);fill:#06326E;}
	.st9{clip-path:url(#SVGID_6_);fill:#06326E;}
	.st10{clip-path:url(#SVGID_8_);fill:#06326E;}
	.st11{clip-path:url(#SVGID_10_);fill:#06326E;}
	.st12{clip-path:url(#SVGID_12_);fill:#06326E;}
	.st13{clip-path:url(#SVGID_14_);fill:#06326E;}
	.st14{clip-path:url(#SVGID_16_);fill:#06326E;}
	.st15{clip-path:url(#SVGID_18_);fill:#06326E;}
	.st16{clip-path:url(#SVGID_20_);fill:#06326E;}
	.st17{fill-rule:evenodd;clip-rule:evenodd;fill:#1B3B68;}
	.st18{fill-rule:evenodd;clip-rule:evenodd;fill:#FEFEFE;}
	.st19{fill:#1B3B68;}
	.st20{fill:#2B2A29;}
</style>
<rect x="860.8" y="-58.5" class="st0" width="178" height="68.5"/>
<path class="st1" d="M892.4-91.9c2.5,2.4,3.9,5.7,3.8,9.2c0,5.1-4,8.7-10,9.2v-3.1c3.6-0.4,6.9-2.1,6.9-6.1c0-3.9-1.7-5.8-3.6-7.7
	c0.9-0.3,1.8-0.8,2.6-1.3C892.2-91.8,892.3-91.9,892.4-91.9"/>
<path class="st1" d="M885.5-115.1h1.5h0.8v7.9l0,0v8.3c0,0.8,0.2,1.6,0.5,2.3c-0.8,0.4-1.6,0.6-2.4,0.7c-0.1,0-0.3,0-0.6,0.1
	c-0.4-1-0.5-2-0.5-3.1v-15.4v0v-0.8L885.5-115.1L885.5-115.1z"/>
<path class="st1" d="M889.3-111.3c4.3,1.3,6.9,4.4,6.9,8.6c0,2.8-1.2,7.3-4.9,9.7c-1.9,1.2-4.2,1.8-6.5,1.8c-1.6-0.1-3.1,0.3-4.5,1
	c-1.3,0.7-2.3,1.8-2.9,3.1c-0.7,1.4-1.1,2.9-1.1,4.4c0,2.8,1.6,4.4,3.8,5.3v3.2c-4.3-1.3-6.9-4.4-6.9-8.6c0-2.8,1.2-7.3,4.9-9.7
	c3.8-2.5,7-1.2,9.9-2.3c0.4-0.2,0.8-0.3,1.2-0.5c1.2-0.7,2.2-1.8,2.9-3c0.7-1.4,1.1-2.9,1.1-4.4c0-2.8-1.6-4.4-3.8-5.3V-111.3z"/>
<path class="st1" d="M883.1-111.9v3.1c-3.6,0.4-6.9,2.1-6.9,6.1c0,3.9,1.7,5.8,3.6,7.7c-0.9,0.3-1.8,0.8-2.6,1.3
	c-0.1,0.1-0.2,0.1-0.3,0.2c-2.5-2.4-3.9-5.7-3.8-9.2C873.2-107.8,877.1-111.4,883.1-111.9"/>
<path class="st1" d="M884.1-89.7L884.1-89.7c0.4,1,0.6,2,0.5,3.1v12.7v2.7v0.8h-0.8h-1.5h-0.8v-0.8v-15.4c0-0.8-0.2-1.6-0.5-2.3
	c0.8-0.4,1.6-0.6,2.5-0.7C883.7-89.6,883.9-89.7,884.1-89.7"/>
<path class="st2" d="M1019.3-86.7c1,0.8,2.6,1.3,4.5,1.3c2.8,0,4.9-1.5,4.9-4c0-2-1-3.2-3.2-4l-2.3-0.9c-1.3-0.5-2.2-1-2.2-2.3
	c0-1.4,1.3-2.2,2.8-2.2c1.7,0,3,0.6,4.1,1.5v-2c-1.1-0.8-2.6-1.2-4.2-1.2c-2.5,0-4.6,1.3-4.6,3.8c0,2.3,1.6,3.3,3.3,3.9l2.1,0.8
	c1.5,0.6,2.3,1.2,2.3,2.4c0,1.5-1.2,2.3-3.1,2.3c-1.7,0-3.2-0.5-4.5-1.7L1019.3-86.7L1019.3-86.7z M1007.9-86.7
	c1,0.8,2.6,1.3,4.5,1.3c2.8,0,4.9-1.5,4.9-4c0-2-1-3.2-3.2-4l-2.3-0.9c-1.3-0.5-2.2-1-2.2-2.3c0-1.4,1.3-2.2,2.8-2.2
	c1.7,0,3,0.6,4.1,1.5v-2c-1.1-0.8-2.6-1.2-4.2-1.2c-2.5,0-4.6,1.3-4.6,3.8c0,2.3,1.6,3.3,3.3,3.9l2.1,0.8c1.5,0.6,2.3,1.2,2.3,2.4
	c0,1.5-1.2,2.3-3.1,2.3c-1.7,0-3.2-0.5-4.5-1.7L1007.9-86.7L1007.9-86.7z M1005.2-100h-1.9v14.5h1.9V-100z M995.5-85.5l5.6-14.5
	h-1.9l-4.5,12l-4.5-12h-2l5.6,14.5C993.8-85.5,995.5-85.5,995.5-85.5z M978.4-98.4h3.4c1.9,0,3,1,3,2.6s-1.1,2.6-3,2.6h-3.4V-98.4z
	 M981-91.7l4.2,6.1h2.1l-4.3-6.2c2.3-0.3,3.7-1.7,3.7-4.1c0-2.7-1.9-4.2-4.8-4.2h-5.3v14.5h1.9v-6.1H981z M964.4-100v14.5h9.2v-1.7
	h-7.4v-4.9h6.7v-1.7h-6.7v-4.6h7.4v-1.7H964.4z M952.3-86.7c1,0.8,2.6,1.3,4.5,1.3c2.8,0,4.9-1.5,4.9-4c0-2-1-3.2-3.2-4l-2.3-0.9
	c-1.3-0.5-2.2-1-2.2-2.3c0-1.4,1.3-2.2,2.8-2.2c1.7,0,3,0.6,4.1,1.5v-2c-1.1-0.8-2.6-1.2-4.2-1.2c-2.5,0-4.6,1.3-4.6,3.8
	c0,2.3,1.6,3.3,3.3,3.9l2.1,0.8c1.5,0.6,2.3,1.2,2.3,2.4c0,1.5-1.2,2.3-3.1,2.3c-1.7,0-3.2-0.5-4.5-1.7L952.3-86.7L952.3-86.7z
	 M945.8-100h-4.1l-2.7,4.1l-2.6-4.1h-4.2l4.7,7.1l-4.9,7.4h4.1L939-90l2.9,4.5h4.2l-4.9-7.4L945.8-100z M928.3-95
	c0,1.1-0.6,1.8-2,1.8h-2.2v-3.6h2.2C927.7-96.8,928.3-96.1,928.3-95z M926.8-90c3.1,0,5.3-1.8,5.3-5c0-3.2-2.1-5-5.3-5h-6.3v14.5
	h3.8V-90C924.2-90,926.8-90,926.8-90z M908.4-85.5h10.3v-3.3h-6.5V-100h-3.8L908.4-85.5L908.4-85.5z"/>
<path class="st1" d="M892.4-23.4c2.5,2.4,3.9,5.7,3.8,9.2c0,5.1-4,8.6-10,9.2v-3.1c3.6-0.4,6.9-2.1,6.9-6.1c0-3.9-1.7-5.8-3.6-7.7
	c0.9-0.3,1.8-0.8,2.6-1.3C892.2-23.3,892.3-23.4,892.4-23.4"/>
<path class="st1" d="M885.5-46.6h1.5h0.8v7.9l0,0v8.3c0,0.8,0.2,1.6,0.5,2.3c-0.8,0.4-1.6,0.6-2.4,0.7c-0.1,0-0.3,0-0.6,0
	c-0.4-1-0.5-2-0.5-3.1v-15.4v0v-0.8L885.5-46.6L885.5-46.6z"/>
<path class="st1" d="M889.3-42.8c4.3,1.3,6.9,4.4,6.9,8.6c0,2.8-1.2,7.3-4.9,9.7c-1.9,1.2-4.2,1.8-6.5,1.8c-1.6,0-3.1,0.3-4.5,1
	c-1.3,0.7-2.3,1.8-2.9,3.1c-0.7,1.4-1.1,2.9-1.1,4.4c0,2.8,1.6,4.4,3.8,5.3v3.2c-4.3-1.3-6.9-4.4-6.9-8.6c0-2.8,1.2-7.3,4.9-9.7
	c3.8-2.5,7-1.2,9.9-2.3c0.4-0.1,0.8-0.3,1.2-0.5c1.2-0.7,2.2-1.8,2.9-3c0.7-1.4,1.1-2.9,1.1-4.4c0-2.8-1.6-4.5-3.8-5.3V-42.8z"/>
<path class="st1" d="M883.1-43.4v3.1c-3.6,0.4-6.9,2.1-6.9,6.1c0,3.9,1.7,5.8,3.6,7.7c-0.9,0.3-1.8,0.8-2.6,1.3
	c-0.1,0.1-0.2,0.1-0.3,0.2c-2.5-2.4-3.9-5.7-3.8-9.2C873.2-39.3,877.1-42.9,883.1-43.4"/>
<path class="st1" d="M884.1-21.2L884.1-21.2c0.4,1,0.6,2,0.5,3v12.7v2.7V-2h-0.8h-1.5h-0.8v-0.8v-15.4c0-0.8-0.2-1.6-0.5-2.3
	c0.8-0.4,1.6-0.6,2.5-0.7C883.7-21.1,883.9-21.1,884.1-21.2"/>
<path class="st2" d="M1019.3-18.1c1,0.8,2.6,1.3,4.5,1.3c2.8,0,4.9-1.5,4.9-4c0-2-1-3.2-3.2-4l-2.3-0.9c-1.3-0.5-2.2-1-2.2-2.3
	c0-1.4,1.3-2.1,2.8-2.1c1.7,0,3,0.6,4.1,1.5v-2c-1.1-0.8-2.6-1.2-4.2-1.2c-2.5,0-4.6,1.3-4.6,3.8c0,2.3,1.6,3.3,3.3,3.9l2.1,0.8
	c1.5,0.6,2.3,1.2,2.3,2.4c0,1.5-1.2,2.3-3.1,2.3c-1.7,0-3.2-0.5-4.5-1.7L1019.3-18.1L1019.3-18.1z M1007.9-18.1
	c1,0.8,2.6,1.3,4.5,1.3c2.8,0,4.9-1.5,4.9-4c0-2-1-3.2-3.2-4l-2.3-0.9c-1.3-0.5-2.2-1-2.2-2.3c0-1.4,1.3-2.1,2.8-2.1
	c1.7,0,3,0.6,4.1,1.5v-2c-1.1-0.8-2.6-1.2-4.2-1.2c-2.5,0-4.6,1.3-4.6,3.8c0,2.3,1.6,3.3,3.3,3.9l2.1,0.8c1.5,0.6,2.3,1.2,2.3,2.4
	c0,1.5-1.2,2.3-3.1,2.3c-1.7,0-3.2-0.5-4.5-1.7L1007.9-18.1L1007.9-18.1z M1005.2-31.5h-1.9V-17h1.9V-31.5z M995.5-17l5.6-14.5h-1.9
	l-4.5,12l-4.5-12h-2l5.6,14.5H995.5z M978.4-29.9h3.4c1.9,0,3,1,3,2.6s-1.1,2.6-3,2.6h-3.4V-29.9z M981-23.1l4.2,6.1h2.1l-4.3-6.2
	c2.3-0.3,3.7-1.7,3.7-4.1c0-2.7-1.9-4.2-4.8-4.2h-5.3V-17h1.9v-6.1C978.4-23.2,981-23.2,981-23.1z M964.4-31.5V-17h9.2v-1.7h-7.4
	v-4.9h6.7v-1.6h-6.7v-4.6h7.4v-1.6L964.4-31.5L964.4-31.5z M952.3-18.1c1,0.8,2.6,1.3,4.5,1.3c2.8,0,4.9-1.5,4.9-4c0-2-1-3.2-3.2-4
	l-2.3-0.9c-1.3-0.5-2.2-1-2.2-2.3c0-1.4,1.3-2.1,2.8-2.1c1.7,0,3,0.6,4.1,1.5v-2c-1.1-0.8-2.6-1.2-4.2-1.2c-2.5,0-4.6,1.3-4.6,3.8
	c0,2.3,1.6,3.3,3.3,3.9l2.1,0.8c1.5,0.6,2.3,1.2,2.3,2.4c0,1.5-1.2,2.3-3.1,2.3c-1.7,0-3.2-0.5-4.5-1.7L952.3-18.1L952.3-18.1z
	 M945.8-31.5h-4.1l-2.7,4.1l-2.6-4.1h-4.2l4.7,7.1L932-17h4.1l2.9-4.5l2.9,4.5h4.2l-4.9-7.4L945.8-31.5z M928.3-26.5
	c0,1.1-0.6,1.8-2,1.8h-2.2v-3.6h2.2C927.7-28.3,928.3-27.6,928.3-26.5z M926.8-21.5c3.1,0,5.3-1.8,5.3-5c0-3.2-2.1-5-5.3-5h-6.3V-17
	h3.8v-4.5H926.8z M908.4-17h10.3v-3.3h-6.5v-11.2h-3.8L908.4-17L908.4-17z"/>
<rect class="st3" width="178" height="68.5"/>
<path class="st4" d="M31.6,35.1c2.5,2.4,3.9,5.7,3.8,9.2c0,5.1-4,8.6-10,9.2v-3.1c3.6-0.4,6.9-2.1,6.9-6.1c0-3.9-1.7-5.8-3.6-7.7
	c0.9-0.3,1.8-0.8,2.6-1.3C31.4,35.2,31.5,35.2,31.6,35.1"/>
<path class="st4" d="M24.6,11.9h1.5h0.8v7.9l0,0v8.3c0,0.8,0.2,1.6,0.5,2.3c-0.8,0.4-1.6,0.6-2.4,0.7c-0.1,0-0.3,0-0.6,0
	c-0.4-1-0.5-2-0.5-3.1V12.7v0v-0.8H24.6z"/>
<path class="st4" d="M28.5,15.7c4.3,1.3,6.9,4.4,6.9,8.6c0,2.8-1.2,7.3-4.9,9.7c-1.9,1.2-4.2,1.8-6.5,1.8c-1.6,0-3.1,0.3-4.5,1
	c-1.3,0.7-2.3,1.8-2.9,3.1c-0.7,1.4-1.1,2.9-1.1,4.4c0,2.8,1.6,4.5,3.8,5.3v3.2c-4.3-1.3-6.9-4.4-6.9-8.6c0-2.8,1.2-7.3,4.9-9.7
	c3.8-2.5,6.9-1.2,9.9-2.3c0.4-0.2,0.8-0.3,1.2-0.5c1.2-0.7,2.2-1.8,2.9-3c0.7-1.4,1.1-2.9,1.1-4.4c0-2.8-1.6-4.5-3.8-5.3
	C28.5,18.9,28.5,15.7,28.5,15.7z"/>
<path class="st4" d="M22.3,15.1v3.1c-3.6,0.4-6.9,2.1-6.9,6.1c0,3.9,1.7,5.8,3.6,7.7c-0.9,0.3-1.8,0.8-2.6,1.3
	c-0.1,0.1-0.2,0.1-0.3,0.2c-2.5-2.4-3.9-5.7-3.8-9.2C12.3,19.2,16.3,15.6,22.3,15.1"/>
<path class="st4" d="M23.3,37.3L23.3,37.3c0.4,1,0.6,2,0.5,3v12.7v2.7v0.8h-0.8h-1.5h-0.8v-0.8V40.4c0-0.8-0.2-1.6-0.5-2.3
	c0.8-0.4,1.6-0.6,2.5-0.7C22.9,37.4,23.1,37.4,23.3,37.3"/>
<path class="st4" d="M158.4,40.4c1,0.8,2.6,1.3,4.6,1.3c2.8,0,4.9-1.5,4.9-4c0-2-1-3.2-3.2-4l-2.3-0.9c-1.3-0.5-2.2-1-2.2-2.3
	c0-1.4,1.3-2.1,2.9-2.1c1.7,0,3,0.6,4.1,1.5v-2c-1.1-0.8-2.6-1.2-4.1-1.2c-2.5,0-4.6,1.3-4.6,3.8c0,2.3,1.6,3.3,3.3,3.9l2.1,0.8
	c1.5,0.6,2.3,1.2,2.3,2.4c0,1.5-1.2,2.3-3.1,2.3c-1.7,0-3.2-0.5-4.6-1.7L158.4,40.4L158.4,40.4z M147,40.4c1,0.8,2.6,1.3,4.6,1.3
	c2.8,0,4.9-1.5,4.9-4c0-2-1-3.2-3.2-4l-2.3-0.9c-1.3-0.5-2.2-1-2.2-2.3c0-1.4,1.3-2.1,2.9-2.1c1.7,0,3,0.6,4.1,1.5v-2
	c-1.1-0.8-2.6-1.2-4.1-1.2c-2.5,0-4.6,1.3-4.6,3.8c0,2.3,1.6,3.3,3.3,3.9l2.1,0.8c1.5,0.6,2.3,1.2,2.3,2.4c0,1.5-1.2,2.3-3.1,2.3
	c-1.7,0-3.2-0.5-4.6-1.7L147,40.4L147,40.4z M144.3,27h-1.9v14.5h1.9V27z M134.7,41.5l5.6-14.5h-1.9l-4.6,12l-4.5-12h-2l5.6,14.5
	H134.7z M117.6,28.6h3.4c1.9,0,3,1,3,2.6c0,1.6-1.1,2.6-3,2.6h-3.4V28.6z M120.1,35.4l4.2,6.1h2.1l-4.3-6.2c2.3-0.3,3.7-1.7,3.7-4.1
	c0-2.7-1.9-4.2-4.8-4.2h-5.3v14.5h1.9v-6.1H120.1z M103.6,27v14.5h9.2v-1.7h-7.4v-4.9h6.7v-1.7h-6.7v-4.6h7.4V27L103.6,27L103.6,27z
	 M91.5,40.4c1,0.8,2.6,1.3,4.6,1.3c2.8,0,4.9-1.5,4.9-4c0-2-1-3.2-3.2-4l-2.3-0.9c-1.3-0.5-2.2-1-2.2-2.3c0-1.4,1.3-2.1,2.8-2.1
	c1.7,0,3,0.6,4.1,1.5v-2c-1.1-0.8-2.6-1.2-4.2-1.2c-2.5,0-4.6,1.3-4.6,3.8c0,2.3,1.6,3.3,3.3,3.9l2.1,0.8c1.5,0.6,2.3,1.2,2.3,2.4
	c0,1.5-1.2,2.3-3.1,2.3c-1.7,0-3.2-0.5-4.6-1.7L91.5,40.4L91.5,40.4z M85,27h-4.1l-2.7,4.1L75.6,27h-4.2l4.7,7.1l-4.9,7.4h4.1
	l2.9-4.5l2.9,4.5h4.2l-4.9-7.4L85,27z M67.5,32c0,1.1-0.6,1.8-2,1.8h-2.2v-3.6h2.2C66.9,30.2,67.5,30.9,67.5,32z M65.9,37
	c3.1,0,5.3-1.8,5.3-5c0-3.2-2.1-5-5.3-5h-6.3v14.5h3.8V37H65.9z M47.6,41.5h10.3v-3.3h-6.5V27h-3.8V41.5z"/>
<rect x="860.8" y="78.5" class="st5" width="178" height="68.5"/>
<path class="st4" d="M892.4,113.6c2.5,2.4,3.9,5.7,3.8,9.2c0,5.1-4,8.6-10,9.2v-3.1c3.6-0.4,6.9-2.1,6.9-6.1c0-3.9-1.7-5.8-3.6-7.7
	c0.9-0.3,1.8-0.8,2.6-1.3C892.2,113.7,892.3,113.6,892.4,113.6"/>
<path class="st4" d="M885.5,90.4h1.5h0.8v7.9l0,0v8.3c0,0.8,0.2,1.6,0.5,2.3c-0.8,0.4-1.6,0.6-2.4,0.7c-0.1,0-0.3,0-0.6,0.1
	c-0.4-1-0.5-2-0.5-3.1V91.2v0v-0.8H885.5z"/>
<path class="st4" d="M889.3,94.2c4.3,1.3,6.9,4.4,6.9,8.6c0,2.8-1.2,7.3-4.9,9.7c-1.9,1.2-4.2,1.8-6.5,1.8c-1.6-0.1-3.1,0.3-4.5,1
	c-1.3,0.7-2.3,1.8-2.9,3.1c-0.7,1.4-1.1,2.9-1.1,4.4c0,2.8,1.6,4.4,3.8,5.3v3.2c-4.3-1.3-6.9-4.4-6.9-8.6c0-2.8,1.2-7.3,4.9-9.7
	c3.8-2.5,7-1.2,9.9-2.3c0.4-0.2,0.8-0.3,1.2-0.5c1.2-0.7,2.2-1.8,2.9-3c0.7-1.4,1.1-2.9,1.1-4.4c0-2.8-1.6-4.4-3.8-5.3V94.2z"/>
<path class="st4" d="M883.1,93.6v3.1c-3.6,0.4-6.9,2.1-6.9,6.1c0,3.9,1.7,5.8,3.6,7.7c-0.9,0.3-1.8,0.8-2.6,1.3
	c-0.1,0.1-0.2,0.1-0.3,0.2c-2.5-2.4-3.9-5.7-3.8-9.2C873.2,97.7,877.1,94.1,883.1,93.6"/>
<path class="st4" d="M884.1,115.8L884.1,115.8c0.4,1,0.6,2,0.5,3.1v12.7v2.7v0.8h-0.8h-1.5h-0.8v-0.8v-15.4c0-0.8-0.2-1.6-0.5-2.3
	c0.8-0.4,1.6-0.6,2.5-0.7C883.7,115.9,883.9,115.8,884.1,115.8"/>
<path class="st4" d="M1019.3,118.8c1,0.8,2.6,1.3,4.5,1.3c2.8,0,4.9-1.5,4.9-4c0-2-1-3.2-3.2-4l-2.3-0.9c-1.3-0.5-2.2-1-2.2-2.3
	c0-1.4,1.3-2.2,2.8-2.2c1.7,0,3,0.6,4.1,1.5v-2c-1.1-0.8-2.6-1.2-4.2-1.2c-2.5,0-4.6,1.3-4.6,3.8c0,2.3,1.6,3.3,3.3,3.9l2.1,0.8
	c1.5,0.6,2.3,1.2,2.3,2.4c0,1.5-1.2,2.3-3.1,2.3c-1.7,0-3.2-0.5-4.5-1.7L1019.3,118.8L1019.3,118.8z M1007.9,118.8
	c1,0.8,2.6,1.3,4.5,1.3c2.8,0,4.9-1.5,4.9-4c0-2-1-3.2-3.2-4l-2.3-0.9c-1.3-0.5-2.2-1-2.2-2.3c0-1.4,1.3-2.2,2.8-2.2
	c1.7,0,3,0.6,4.1,1.5v-2c-1.1-0.8-2.6-1.2-4.2-1.2c-2.5,0-4.6,1.3-4.6,3.8c0,2.3,1.6,3.3,3.3,3.9l2.1,0.8c1.5,0.6,2.3,1.2,2.3,2.4
	c0,1.5-1.2,2.3-3.1,2.3c-1.7,0-3.2-0.5-4.5-1.7L1007.9,118.8L1007.9,118.8z M1005.2,105.5h-1.9V120h1.9V105.5z M995.5,120l5.6-14.5
	h-1.9l-4.5,12l-4.5-12h-2l5.6,14.5C993.8,120,995.5,120,995.5,120z M978.4,107.1h3.4c1.9,0,3,1,3,2.6s-1.1,2.6-3,2.6h-3.4V107.1z
	 M981,113.8l4.2,6.1h2.1l-4.3-6.2c2.3-0.3,3.7-1.7,3.7-4.1c0-2.7-1.9-4.2-4.8-4.2h-5.3V120h1.9v-6.1H981z M964.4,105.5V120h9.2v-1.7
	h-7.4v-4.9h6.7v-1.7h-6.7v-4.6h7.4v-1.7L964.4,105.5L964.4,105.5z M952.3,118.8c1,0.8,2.6,1.3,4.5,1.3c2.8,0,4.9-1.5,4.9-4
	c0-2-1-3.2-3.2-4l-2.3-0.9c-1.3-0.5-2.2-1-2.2-2.3c0-1.4,1.3-2.2,2.8-2.2c1.7,0,3,0.6,4.1,1.5v-2c-1.1-0.8-2.6-1.2-4.2-1.2
	c-2.5,0-4.6,1.3-4.6,3.8c0,2.3,1.6,3.3,3.3,3.9l2.1,0.8c1.5,0.6,2.3,1.2,2.3,2.4c0,1.5-1.2,2.3-3.1,2.3c-1.7,0-3.2-0.5-4.5-1.7
	L952.3,118.8L952.3,118.8z M945.8,105.5h-4.1l-2.7,4.1l-2.6-4.1h-4.2l4.7,7.1L932,120h4.1l2.9-4.5l2.9,4.5h4.2l-4.9-7.4L945.8,105.5
	z M928.3,110.5c0,1.1-0.6,1.8-2,1.8h-2.2v-3.6h2.2C927.7,108.7,928.3,109.4,928.3,110.5z M926.8,115.5c3.1,0,5.3-1.8,5.3-5
	c0-3.2-2.1-5-5.3-5h-6.3V120h3.8v-4.5C924.2,115.5,926.8,115.5,926.8,115.5z M908.4,120h10.3v-3.3h-6.5v-11.2h-3.8L908.4,120
	L908.4,120z"/>
<rect x="652.4" y="-411" class="st6" width="595.3" height="841.9"/>
<g>
	<g>
		<g>
			<defs>
				<rect id="SVGID_1_" x="1267.7" y="-411" width="595.3" height="841.9"/>
			</defs>
			<clipPath id="SVGID_2_">
				<use xlink:href="#SVGID_1_"  style="overflow:visible;"/>
			</clipPath>
			<path class="st7" d="M1597.5,22.2c0.6,0.5,1.7,0.9,2.9,0.9c1.8,0,3.1-1,3.1-2.5c0-1.3-0.6-2-2.1-2.6l-1.5-0.6
				c-0.9-0.3-1.4-0.7-1.4-1.4c0-0.9,0.8-1.4,1.8-1.4c1.1,0,1.9,0.4,2.6,1v-1.3c-0.7-0.5-1.6-0.8-2.7-0.8c-1.6,0-3,0.8-3,2.4
				c0,1.5,1,2.1,2.1,2.5l1.4,0.5c1,0.4,1.5,0.7,1.5,1.5c0,1-0.8,1.5-2,1.5c-1.1,0-2.1-0.4-2.9-1.1L1597.5,22.2L1597.5,22.2z
				 M1590.2,22.2c0.6,0.5,1.7,0.9,2.9,0.9c1.8,0,3.1-1,3.1-2.5c0-1.3-0.6-2-2.1-2.6l-1.5-0.6c-0.9-0.3-1.4-0.7-1.4-1.4
				c0-0.9,0.8-1.4,1.8-1.4c1.1,0,1.9,0.4,2.6,1v-1.3c-0.7-0.5-1.6-0.8-2.7-0.8c-1.6,0-3,0.8-3,2.4c0,1.5,1,2.1,2.1,2.5l1.4,0.5
				c1,0.4,1.5,0.7,1.5,1.5c0,1-0.8,1.5-2,1.5c-1.1,0-2.1-0.4-2.9-1.1L1590.2,22.2L1590.2,22.2z M1588.5,13.7h-1.2V23h1.2V13.7z
				 M1582.3,23l3.6-9.3h-1.2l-2.9,7.7l-2.9-7.7h-1.3l3.6,9.3H1582.3z M1571.4,14.7h2.2c1.2,0,1.9,0.6,1.9,1.6s-0.7,1.6-1.9,1.6h-2.2
				V14.7z M1573.1,19l2.7,3.9h1.4l-2.7-4c1.5-0.2,2.4-1.1,2.4-2.6c0-1.8-1.2-2.7-3.1-2.7h-3.4V23h1.2V19H1573.1z M1562.5,13.7V23
				h5.9v-1.1h-4.7v-3.1h4.3v-1h-4.3v-2.9h4.7v-1.1H1562.5z M1554.8,22.2c0.6,0.5,1.7,0.9,2.9,0.9c1.8,0,3.1-1,3.1-2.5
				c0-1.3-0.6-2-2.1-2.6l-1.5-0.6c-0.9-0.3-1.4-0.7-1.4-1.4c0-0.9,0.8-1.4,1.8-1.4c1.1,0,1.9,0.4,2.6,1v-1.3
				c-0.7-0.5-1.6-0.8-2.7-0.8c-1.6,0-3,0.8-3,2.4c0,1.5,1,2.1,2.1,2.5l1.4,0.5c1,0.4,1.5,0.7,1.5,1.5c0,1-0.8,1.5-2,1.5
				c-1.1,0-2.1-0.4-2.9-1.1L1554.8,22.2L1554.8,22.2z M1550.6,13.7h-2.6l-1.7,2.6l-1.7-2.6h-2.7l3,4.5l-3.1,4.7h2.6l1.8-2.9l1.8,2.9
				h2.7l-3.1-4.7L1550.6,13.7z M1539.4,16.9c0,0.7-0.4,1.2-1.3,1.2h-1.4v-2.3h1.4C1539.1,15.7,1539.4,16.2,1539.4,16.9z
				 M1538.4,20.1c2,0,3.4-1.1,3.4-3.2c0-2.1-1.4-3.2-3.4-3.2h-4.1v9.3h2.4v-2.9H1538.4z M1526.7,23h6.6v-2.1h-4.1v-7.2h-2.4
				L1526.7,23L1526.7,23z"/>
		</g>
		<g>
			<defs>
				<rect id="SVGID_3_" x="1267.7" y="-411" width="595.3" height="841.9"/>
			</defs>
			<clipPath id="SVGID_4_">
				<use xlink:href="#SVGID_3_"  style="overflow:visible;"/>
			</clipPath>
			<path class="st8" d="M1569.4-5.7c1.4,1.3,2.1,3.2,2.1,5.1c0,2.8-2.2,4.8-5.5,5.1V2.7c2-0.2,3.8-1.2,3.8-3.3c0-2.1-0.9-3.2-2-4.2
				c0.5-0.2,1-0.4,1.4-0.7C1569.3-5.7,1569.3-5.7,1569.4-5.7"/>
		</g>
		<g>
			<defs>
				<rect id="SVGID_5_" x="1267.7" y="-411" width="595.3" height="841.9"/>
			</defs>
			<clipPath id="SVGID_6_">
				<use xlink:href="#SVGID_5_"  style="overflow:visible;"/>
			</clipPath>
			<path class="st9" d="M1565.5-18.5h0.8h0.4v4.3l0,0v4.6c0,0.4,0.1,0.9,0.3,1.3c-0.4,0.2-0.9,0.3-1.3,0.4c-0.1,0-0.2,0-0.3,0
				c-0.2-0.5-0.3-1.1-0.3-1.7V-18v0v-0.4L1565.5-18.5L1565.5-18.5z"/>
		</g>
		<g>
			<defs>
				<rect id="SVGID_7_" x="1267.7" y="-411" width="595.3" height="841.9"/>
			</defs>
			<clipPath id="SVGID_8_">
				<use xlink:href="#SVGID_7_"  style="overflow:visible;"/>
			</clipPath>
			<path class="st10" d="M1567.7-16.4c2.4,0.7,3.8,2.4,3.8,4.7c0,1.5-0.6,4-2.7,5.4c-1.1,0.7-2.3,1-3.6,1c-0.9,0-1.7,0.2-2.5,0.6
				c-0.7,0.4-1.3,1-1.6,1.7c-0.4,0.8-0.6,1.6-0.6,2.4c0,1.5,0.9,2.5,2.1,2.9v1.8c-2.4-0.7-3.8-2.4-3.8-4.7c0-1.5,0.6-4,2.7-5.4
				c2.1-1.4,3.8-0.7,5.4-1.3c0.2-0.1,0.4-0.2,0.7-0.3c0.7-0.4,1.2-1,1.6-1.7c0.4-0.8,0.6-1.6,0.6-2.4c0-1.5-0.9-2.4-2.1-2.9V-16.4z"
				/>
		</g>
		<g>
			<defs>
				<rect id="SVGID_9_" x="1267.7" y="-411" width="595.3" height="841.9"/>
			</defs>
			<clipPath id="SVGID_10_">
				<use xlink:href="#SVGID_9_"  style="overflow:visible;"/>
			</clipPath>
			<path class="st11" d="M1564.3-16.7v1.7c-2,0.2-3.8,1.2-3.8,3.3c0,2.1,0.9,3.2,2,4.2c-0.5,0.2-1,0.4-1.4,0.7
				c-0.1,0-0.1,0.1-0.2,0.1c-1.4-1.3-2.1-3.2-2.1-5C1558.8-14.5,1560.9-16.5,1564.3-16.7"/>
		</g>
		<g>
			<defs>
				<rect id="SVGID_11_" x="1267.7" y="-411" width="595.3" height="841.9"/>
			</defs>
			<clipPath id="SVGID_12_">
				<use xlink:href="#SVGID_11_"  style="overflow:visible;"/>
			</clipPath>
			<path class="st12" d="M1564.8-4.5L1564.8-4.5c0.2,0.5,0.3,1.1,0.3,1.7v7v1.5v0.4h-0.4h-0.8h-0.4V5.7v-8.5c0-0.4-0.1-0.9-0.3-1.3
				c0.4-0.2,0.9-0.3,1.4-0.4C1564.6-4.5,1564.7-4.5,1564.8-4.5"/>
		</g>
		<g>
			<defs>
				<rect id="SVGID_13_" x="1267.7" y="-411" width="595.3" height="841.9"/>
			</defs>
			<clipPath id="SVGID_14_">
				<use xlink:href="#SVGID_13_"  style="overflow:visible;"/>
			</clipPath>
			<path class="st13" d="M1564.8,59.1c-0.8,0.9-1,2.8-2.8,3c0.8,0.7,3.3,0.2,4.3-1c0.8-1.2,0.4-1.9,1.9-3.4
				C1568.1,57.5,1565.9,57.7,1564.8,59.1 M1561.2-39c0.7-1,0.8-2.8,2.5-3.2c-0.9-0.6-3.3,0.1-4.2,1.4c-0.7,1.3-0.2,1.9-1.6,3.6
				C1558-37.1,1560.2-37.4,1561.2-39z M1569.1,59c-0.7,1-0.8,2.8-2.5,3.2c0.9,0.6,3.3-0.1,4.2-1.4c0.7-1.3,0.2-1.9,1.6-3.6
				C1572.2,57.1,1570.1,57.4,1569.1,59z M1556.9-38.5c0.6-1,0.5-2.9,2.2-3.4c-0.9-0.5-3.3,0.4-4,1.7c-0.6,1.3-0.1,1.9-1.3,3.7
				C1554-36.3,1556.1-36.8,1556.9-38.5z M1573.3,58.4c-0.6,1-0.5,2.9-2.2,3.4c0.9,0.5,3.3-0.4,4-1.7c0.6-1.3,0.1-1.9,1.3-3.7
				C1576.3,56.3,1574.2,56.8,1573.3,58.4z M1552.7-37.5c0.5-1.1,0.3-2.9,1.9-3.6c-1-0.5-3.3,0.7-3.8,2.1c-0.5,1.4,0.1,1.9-1,3.8
				C1550-35.2,1552-35.9,1552.7-37.5z M1577.5,57.5c-0.5,1.1-0.3,2.9-1.9,3.6c1,0.5,3.3-0.7,3.8-2.1c0.5-1.4-0.1-1.9,1-3.8
				C1580.3,55.2,1578.2,55.8,1577.5,57.5z M1545.9-33.8c0.2,0.1,2.2-0.8,2.7-2.5c0.4-1.1,0-2.9,1.6-3.8c-1-0.4-3.2,0.9-3.7,2.4
				C1546.2-36.2,1546.8-35.7,1545.9-33.8z M1584.3,53.7c-0.2-0.1-2.2,0.8-2.7,2.5c-0.4,1.1,0,2.9-1.6,3.8c1,0.4,3.2-0.9,3.7-2.4
				C1584.1,56.2,1583.4,55.7,1584.3,53.7z M1544.7-34.7c0.3-1.2-0.3-2.9,1.3-3.9c-1-0.3-3.1,1.2-3.4,2.7c-0.3,1.4,0.4,1.9-0.3,3.9
				C1542.4-31.9,1544.3-32.9,1544.7-34.7z M1585.6,54.7c-0.3,1.2,0.3,2.9-1.3,3.9c1,0.3,3.1-1.2,3.4-2.7c0.3-1.4-0.4-1.9,0.3-3.9
				C1587.9,51.8,1586,52.9,1585.6,54.7z M1538.6-29.8c0.2,0,2-1.1,2.2-3c0.2-1.2-0.5-2.9,0.9-4c-1.1-0.2-3,1.5-3.2,3
				C1538.4-32.2,1539.2-31.9,1538.6-29.8z M1591.6,49.7c-0.2,0-2,1.1-2.2,3c-0.2,1.2,0.5,2.9-0.9,4c1.1,0.2,3-1.5,3.2-3
				C1591.8,52.2,1591.1,51.8,1591.6,49.7z M1535.2-27.3c0.2,0,1.9-1.3,2-3.1c0.1-1.2-0.8-2.8,0.6-4c-1.1-0.1-2.8,1.7-2.9,3.3
				C1534.9-29.8,1535.6-29.4,1535.2-27.3z M1595,47.3c-0.2,0-1.9,1.3-2,3.1c-0.1,1.2,0.8,2.8-0.6,4c1.1,0.1,2.8-1.7,2.9-3.3
				C1595.4,49.7,1594.6,49.4,1595,47.3z M1532.1-24.5c0.2,0,1.8-1.5,1.7-3.3c0-1.2-1-2.8,0.2-4.1c-1.1,0-2.7,2-2.6,3.5
				C1531.5-27,1532.3-26.7,1532.1-24.5z M1598.1,44.5c-0.2,0-1.8,1.5-1.7,3.3c0,1.2,1,2.8-0.2,4.1c1.1,0,2.7-2,2.6-3.5
				C1598.7,46.9,1597.9,46.7,1598.1,44.5z M1529.2-21.5c0.2,0,1.6-1.6,1.4-3.4c-0.1-1.2-1.2-2.6-0.2-4.1c-1.1,0.1-2.5,2.2-2.3,3.7
				C1528.4-23.9,1529.2-23.7,1529.2-21.5z M1601,41.5c-0.2,0-1.6,1.6-1.4,3.4c0.1,1.2,1.2,2.7,0.2,4.1c1.1-0.1,2.5-2.2,2.3-3.7
				C1601.8,43.9,1601,43.7,1601,41.5z M1526.6-18.3c0.2,0,1.5-1.8,1.1-3.5c-0.2-1.2-1.5-2.5-0.5-4c-1.1,0.2-2.3,2.4-2,3.9
				C1525.6-20.6,1526.4-20.5,1526.6-18.3z M1603.6,38.3c-0.2,0-1.5,1.8-1.1,3.5c0.2,1.2,1.5,2.5,0.5,4c1.1-0.2,2.3-2.4,2-3.9
				C1604.6,40.5,1603.8,40.4,1603.6,38.3z M1524.3-14.8c0.2,0,1.3-1.9,0.8-3.6c-0.3-1.1-1.7-2.4-0.9-4c-1,0.3-2.1,2.6-1.6,4.1
				C1523.1-17,1523.9-17,1524.3-14.8z M1606,34.8c-0.2,0-1.3,1.9-0.8,3.6c0.3,1.1,1.7,2.4,0.9,4c1-0.3,2.1-2.6,1.6-4.1
				C1607.1,37,1606.3,36.9,1606,34.8z M1522.3-11.2c0.2-0.1,1.2-2,0.5-3.7c-0.4-1.1-1.9-2.2-1.2-3.9c-1,0.4-1.8,2.8-1.3,4.2
				C1520.9-13.2,1521.7-13.3,1522.3-11.2z M1608,31.1c-0.2,0.1-1.2,2-0.5,3.7c0.4,1.1,1.9,2.2,1.2,3.9c1-0.4,1.8-2.8,1.3-4.2
				C1609.3,33.2,1608.5,33.3,1608,31.1z M1520.6-7.3c0.2-0.1,1-2.1,0.1-3.7c-0.5-1.1-2.1-2.1-1.5-3.8c-1,0.4-1.6,2.9-0.9,4.3
				C1519-9.3,1519.9-9.4,1520.6-7.3z M1609.7,27.3c-0.2,0.1-1,2.1-0.1,3.7c0.5,1.1,2.1,2.1,1.5,3.8c1-0.4,1.6-2.9,0.9-4.3
				C1611.2,29.3,1610.4,29.4,1609.7,27.3z M1519.3-3.4c0.2-0.1,0.8-2.2-0.2-3.7c-0.6-1-2.2-1.9-1.9-3.6c-0.9,0.5-1.3,3-0.5,4.3
				C1517.5-5.2,1518.3-5.4,1519.3-3.4z M1611,23.4c-0.2,0.1-0.8,2.2,0.2,3.7c0.6,1,2.2,1.9,1.9,3.6c0.9-0.5,1.3-3,0.5-4.3
				C1612.7,25.2,1611.9,25.4,1611,23.4z M1518.3,0.6c0.2-0.1,0.6-2.2-0.5-3.7c-0.7-1-2.4-1.7-2.2-3.4c-0.9,0.6-1.1,3.2-0.1,4.4
				C1516.4-1,1517.2-1.2,1518.3,0.6z M1612,19.3c-0.2,0.1-0.6,2.2,0.5,3.7c0.7,1,2.4,1.7,2.2,3.5c0.9-0.6,1.1-3.1,0.1-4.4
				C1613.8,21,1613.1,21.2,1612,19.3z M1517.6,4.8c0.2-0.1,0.4-2.3-0.8-3.6c-0.8-0.9-2.5-1.5-2.5-3.3c-0.8,0.7-0.8,3.2,0.3,4.4
				C1515.6,3.3,1516.4,3,1517.6,4.8z M1612.6,15.2c-0.2,0.1-0.4,2.3,0.8,3.6c0.8,0.9,2.5,1.5,2.5,3.3c0.8-0.7,0.8-3.2-0.3-4.4
				C1614.6,16.7,1613.8,17,1612.6,15.2z M1517.3,8.9c0.2-0.1,0.2-2.3-1.1-3.5c-0.8-0.8-2.7-1.2-2.7-3c-0.8,0.8-0.5,3.3,0.6,4.3
				C1515.2,7.6,1516,7.3,1517.3,8.9z M1612.9,11.1c-0.2,0.1-0.2,2.3,1.1,3.5c0.8,0.8,2.7,1.2,2.7,3c0.8-0.8,0.5-3.3-0.6-4.3
				C1615,12.4,1614.3,12.7,1612.9,11.1z M1514,11.1c1.2,0.8,1.9,0.4,3.4,1.9c0.2-0.2,0-2.3-1.4-3.4c-0.9-0.8-2.8-1-3-2.8
				C1512.3,7.7,1512.8,10.2,1514,11.1z M1616.2,8.8c-1.2-0.8-1.9-0.4-3.4-1.9c-0.2,0.2,0,2.3,1.4,3.4c0.9,0.8,2.8,1,3,2.8
				C1617.9,12.3,1617.4,9.8,1616.2,8.8z M1514.3,15.6c1.3,0.7,1.9,0.2,3.6,1.6c0.1-0.2-0.2-2.3-1.7-3.3c-1-0.7-2.8-0.8-3.2-2.5
				C1512.3,12.3,1513,14.8,1514.3,15.6z M1615.9,4.4c-1.3-0.7-1.9-0.2-3.6-1.6c-0.1,0.2,0.2,2.3,1.7,3.3c1,0.7,2.8,0.8,3.2,2.5
				C1617.9,7.7,1617.2,5.2,1615.9,4.4z M1515,20c1.3,0.6,1.9,0.1,3.7,1.3c0.1-0.2-0.4-2.3-2-3.1c-1-0.6-2.9-0.5-3.4-2.2
				C1512.7,16.9,1513.6,19.3,1515,20z M1615.3,0c-1.3-0.6-1.9-0.1-3.7-1.3c-0.1,0.2,0.4,2.3,2,3.1c1,0.6,2.9,0.5,3.4,2.2
				C1617.5,3.1,1616.6,0.7,1615.3,0z M1516.1,24.3c1.4,0.5,1.9-0.1,3.8,1c0.1-0.2-0.6-2.2-2.3-2.9c-1.1-0.5-2.9-0.3-3.6-1.9
				C1513.5,21.5,1514.6,23.8,1516.1,24.3z M1614.2-4.3c-1.4-0.5-1.9,0.1-3.8-1c-0.1,0.2,0.6,2.2,2.3,2.9c1.1,0.5,2.9,0.3,3.6,1.9
				C1616.7-1.5,1615.6-3.8,1614.2-4.3z M1521.4,29.2c0.1-0.2-0.8-2.2-2.5-2.7c-1.1-0.4-2.9,0-3.8-1.6c-0.4,1,0.9,3.2,2.4,3.6
				C1518.9,28.9,1519.4,28.3,1521.4,29.2z M1608.9-9.2c-0.1,0.2,0.8,2.2,2.5,2.7c1.1,0.4,2.9,0,3.8,1.6c0.4-1-0.9-3.2-2.4-3.7
				C1611.3-8.9,1610.8-8.3,1608.9-9.2z M1523.2,33c0.1-0.2-1-2.1-2.8-2.5c-1.2-0.3-2.9,0.3-3.9-1.3c-0.3,1,1.2,3.1,2.7,3.4
				C1520.7,32.9,1521.2,32.2,1523.2,33z M1607-13c-0.1,0.2,1,2.1,2.8,2.5c1.2,0.3,2.9-0.3,3.9,1.3c0.3-1-1.2-3.1-2.7-3.4
				C1609.5-12.9,1609.1-12.2,1607-13z M1525.4,36.5c0.1-0.2-1.1-2-3-2.2c-1.2-0.2-2.9,0.5-4-0.9c-0.2,1.1,1.5,3,3,3.2
				C1522.9,36.7,1523.3,36,1525.4,36.5z M1604.9-16.5c-0.1,0.2,1.1,2,3,2.2c1.2,0.2,2.9-0.5,4,0.9c0.2-1.1-1.5-3-3-3.2
				C1607.3-16.7,1607-16,1604.9-16.5z M1527.8,39.9c0-0.2-1.3-1.9-3.1-2c-1.2-0.1-2.8,0.8-4-0.6c-0.1,1.1,1.7,2.8,3.3,2.9
				C1525.4,40.3,1525.7,39.5,1527.8,39.9z M1605.6-17.9c1.2,0.1,2.8-0.8,4,0.6c0.1-1.1-1.7-2.8-3.3-2.9c-1.5,0-1.8,0.8-3.9,0.4
				C1602.4-19.7,1603.7-18,1605.6-17.9z M1530.6,43c0-0.2-1.5-1.8-3.3-1.7c-1.2,0-2.8,1-4.1-0.2c0,1.1,2,2.7,3.5,2.6
				C1528.2,43.6,1528.4,42.8,1530.6,43z M1599.7-23c0,0.2,1.5,1.8,3.3,1.7c1.2,0,2.8-1,4.1,0.2c0-1.1-2-2.7-3.5-2.6
				C1602.1-23.6,1601.8-22.8,1599.7-23z M1529.8,47c1.4-0.3,1.6-1,3.8-1c0-0.2-1.6-1.6-3.4-1.4c-1.2,0.1-2.7,1.2-4.1,0.2
				C1526.2,45.7,1528.3,47.2,1529.8,47z M1604.2-24.7c-0.1-1.1-2.2-2.5-3.7-2.3c-1.4,0.3-1.6,1-3.8,1c0,0.2,1.6,1.6,3.4,1.4
				C1601.3-24.6,1602.7-25.8,1604.2-24.7z M1536.8,48.5c0-0.2-1.8-1.5-3.6-1.1c-1.2,0.2-2.5,1.5-4.1,0.5c0.2,1.1,2.4,2.3,3.9,2
				C1534.6,49.5,1534.7,48.7,1536.8,48.5z M1593.4-28.5c0,0.2,1.8,1.5,3.6,1.1c1.2-0.2,2.5-1.5,4.1-0.5c-0.2-1.1-2.4-2.3-3.9-2
				C1595.7-29.5,1595.6-28.7,1593.4-28.5z M1540.3,50.8c0-0.2-1.9-1.3-3.6-0.8c-1.1,0.3-2.4,1.7-4,0.9c0.3,1,2.6,2.1,4.1,1.6
				C1538.1,52,1538.2,51.2,1540.3,50.8z M1597.6-30.9c-0.3-1-2.6-2.1-4.1-1.6c-1.4,0.5-1.4,1.3-3.6,1.7c0,0.2,1.9,1.3,3.6,0.8
				C1594.7-30.4,1596-31.8,1597.6-30.9z M1544,52.8c-0.1-0.2-2-1.2-3.7-0.5c-1.1,0.4-2.2,1.9-3.9,1.2c0.4,1,2.8,1.8,4.2,1.3
				C1541.9,54.2,1541.9,53.4,1544,52.8z M1586.3-32.9c0.1,0.2,2,1.2,3.7,0.5c1.1-0.4,2.2-1.9,3.9-1.2c-0.4-1-2.8-1.8-4.2-1.3
				C1588.3-34.2,1588.4-33.4,1586.3-32.9z M1547.8,54.5c-0.1-0.2-2.1-1-3.7-0.1c-1.1,0.5-2.1,2.1-3.8,1.5c0.4,1,2.9,1.6,4.3,0.9
				C1545.8,56.1,1545.7,55.3,1547.8,54.5z M1582.5-34.5c0.1,0.2,2.1,1,3.7,0.1c1.1-0.5,2.1-2.1,3.8-1.5c-0.4-1-2.9-1.6-4.3-0.9
				C1584.4-36.1,1584.5-35.3,1582.5-34.5z M1566.2-37.8c0.1,0.2,2.3,0.2,3.5-1.1c0.8-0.8,1.2-2.7,3-2.7c-0.8-0.8-3.3-0.5-4.3,0.6
				C1567.5-39.9,1567.8-39.2,1566.2-37.8z M1564.1,57.8c-0.1-0.2-2.3-0.2-3.5,1.1c-0.8,0.8-1.2,2.7-3,2.7c0.8,0.8,3.3,0.5,4.3-0.6
				C1562.8,59.9,1562.4,59.2,1564.1,57.8z M1570.3-37.5c0.1,0.2,2.3,0.4,3.6-0.8c0.9-0.8,1.5-2.5,3.3-2.5c-0.7-0.8-3.2-0.8-4.4,0.3
				C1571.8-39.5,1572.1-38.7,1570.3-37.5z M1559.9,57.5c-0.1-0.2-2.3-0.4-3.6,0.8c-0.9,0.8-1.5,2.5-3.3,2.5c0.7,0.8,3.2,0.8,4.4-0.3
				C1558.4,59.5,1558.1,58.7,1559.9,57.5z M1574.5-36.9c0.1,0.2,2.2,0.6,3.7-0.5c1-0.7,1.7-2.4,3.4-2.2c-0.6-0.9-3.2-1.1-4.4-0.1
				C1576.1-38.7,1576.3-38,1574.5-36.9z M1555.8,56.9c-0.1-0.2-2.2-0.6-3.7,0.5c-1,0.7-1.7,2.4-3.4,2.2c0.6,0.9,3.2,1.1,4.4,0.1
				C1554.1,58.7,1553.9,57.9,1555.8,56.9z M1578.5-35.9c0.1,0.2,2.2,0.8,3.7-0.2c1-0.6,1.9-2.2,3.6-1.9c-0.5-0.9-3-1.3-4.3-0.5
				C1580.3-37.6,1580.5-36.8,1578.5-35.9z M1551.7,55.9c-0.1-0.2-2.2-0.8-3.7,0.2c-1,0.6-1.9,2.2-3.6,1.9c0.5,0.9,3,1.3,4.3,0.5
				C1549.9,57.6,1549.8,56.8,1551.7,55.9z M1565.4-39.1c0.8-0.9,1-2.8,2.8-3c-0.8-0.7-3.3-0.2-4.3,1c-0.8,1.2-0.4,1.9-1.9,3.4
				C1562.2-37.5,1564.3-37.7,1565.4-39.1z"/>
		</g>
		<g>
			<defs>
				<rect id="SVGID_15_" x="1267.7" y="-411" width="595.3" height="841.9"/>
			</defs>
			<clipPath id="SVGID_16_">
				<use xlink:href="#SVGID_15_"  style="overflow:visible;"/>
			</clipPath>
			<path class="st14" d="M1603.5,3.7c0.2,1,0.9,1.5,2,1.3l2.6-0.5l-0.1-0.5l-2.5,0.5c-0.9,0.2-1.4-0.2-1.5-0.9s0.2-1.2,1.1-1.4
				l2.5-0.5l-0.1-0.5l-2.6,0.5C1603.8,2,1603.3,2.8,1603.5,3.7 M1604.4-1.5l0.3,1c0.2,0.6,0,0.9-0.5,1.1c-0.4,0.1-0.8-0.1-0.9-0.7
				l-0.3-1L1604.4-1.5z M1604.8-1.7l1.3-0.4l0.2,0.8c0.2,0.6,0,0.9-0.4,1c-0.4,0.1-0.8-0.1-0.9-0.7L1604.8-1.7z M1605.1,0
				c0.2,0.3,0.6,0.5,1.1,0.4c0.7-0.2,0.9-0.8,0.7-1.7l-0.4-1.4l-4.1,1.2l0.4,1.5c0.2,0.9,0.8,1.3,1.6,1
				C1604.8,0.9,1605.1,0.5,1605.1,0z M1606.1-5l0.5,1.4l0.4-0.1l-0.5-1.4L1606.1-5z M1606.1-3.9l-0.2-0.5l-4.1,1.4l0.2,0.5
				L1606.1-3.9z M1600.2-6.9l0.6,1.3c0.5,1.2,1.6,1.6,2.8,1s1.6-1.6,1.1-2.8l-0.6-1.3L1600.2-6.9z M1600.9-6.6l3-1.4l0.3,0.8
				c0.4,0.9,0,1.7-0.9,2.1c-0.9,0.4-1.7,0.2-2.1-0.7L1600.9-6.6z M1598.5-10l1.4,2.4l0.4-0.3l-1.1-1.9l3.3-1.9l-0.3-0.5L1598.5-10z
				 M1601.6-13.2l-0.3-0.5l-3.6,2.3l0.3,0.5L1601.6-13.2z M1597.3-15.2l0.6,0.8c0.4,0.4,0.3,0.9,0,1.2c-0.3,0.3-0.8,0.2-1.1-0.2
				l-0.6-0.8L1597.3-15.2z M1597.7-15.5l1.1-0.9l0.6,0.7c0.4,0.4,0.4,0.8,0,1.1c-0.4,0.3-0.7,0.2-1.1-0.3L1597.7-15.5z M1598.6-14.1
				c0.3,0.2,0.7,0.2,1.1-0.1c0.6-0.5,0.6-1.1,0-1.8l-0.9-1.1l-3.4,2.7l1,1.2c0.6,0.7,1.2,0.9,1.8,0.4
				C1598.7-13.1,1598.8-13.6,1598.6-14.1z M1595.4-20.2l1,1.1l-2.8,2.6l0.4,0.4l2.8-2.6l1,1.1l0.3-0.3l-2.5-2.6L1595.4-20.2z
				 M1593.6-21.6l-0.7,1.8l-1.1-0.9L1593.6-21.6z M1593.8-22.3l-4.1,2.1l0.4,0.4l1.2-0.7l1.3,1.2l-0.5,1.3l0.4,0.4l1.6-4.4
				L1593.8-22.3z M1586.6-22.4c0.8,0.5,1.7,0.4,2.4-0.6l1.4-2.2l-0.5-0.3l-1.4,2.1c-0.5,0.8-1.1,0.9-1.7,0.5c-0.6-0.4-0.7-1-0.2-1.7
				l1.4-2.1l-0.5-0.3l-1.4,2.2C1585.6-23.8,1585.8-22.9,1586.6-22.4z M1583.3-28.7l1.3,0.7l-1.7,3.4l0.5,0.3l1.7-3.4l1.3,0.7
				l0.2-0.4l-3.2-1.6L1583.3-28.7z M1581.6-27.6c-0.4,0.9-1.2,1.4-1.9,1.1s-1-1.2-0.7-2.1s1.2-1.4,1.9-1.1
				C1581.8-29.4,1582-28.5,1581.6-27.6z M1582.2-27.4c0.5-1.2,0.1-2.4-1-2.8c-1.1-0.4-2.1,0.1-2.6,1.3c-0.5,1.2-0.1,2.4,1,2.8
				C1580.6-25.7,1581.7-26.2,1582.2-27.4z M1577.5-27.5l-2.3-0.6l3.3-3l0,0l-3-0.9l-0.1,0.5l2.2,0.6l-3.3,3l0,0l3.1,0.9L1577.5-27.5
				z M1576.9-31.9l0.5,0.1l0.8-0.6l-0.5-0.1l-0.5,0.4l-0.3-0.6l-0.5-0.1L1576.9-31.9z M1571.8-32.7l-0.8,4.2l2.7,0.5l0.1-0.5
				l-2.2-0.4l0.3-1.4l2,0.4l0.1-0.5l-2-0.4l0.3-1.3l2.2,0.4l0.1-0.5L1571.8-32.7z M1567.9-30.8l1,0.1c0.6,0,0.9,0.4,0.8,0.8
				c0,0.5-0.4,0.7-0.9,0.7l-1-0.1L1567.9-30.8z M1568-31.2l0.1-1.4l0.9,0.1c0.6,0,0.9,0.3,0.8,0.8c0,0.5-0.4,0.7-0.9,0.6L1568-31.2z
				 M1569.6-30.9c0.3-0.1,0.7-0.4,0.7-0.9c0.1-0.7-0.4-1.2-1.3-1.2l-1.4-0.1l-0.3,4.3l1.6,0.1c0.9,0.1,1.5-0.3,1.5-1.1
				C1570.4-30.3,1570.1-30.7,1569.6-30.9z M1565.9-31.1c0,1-0.5,1.7-1.3,1.8s-1.4-0.7-1.4-1.7c0-1,0.5-1.7,1.3-1.8
				C1565.3-32.8,1565.8-32.1,1565.9-31.1z M1566.4-31.1c0-1.3-0.9-2.2-2-2.1c-1.1,0-1.9,1-1.9,2.3c0,1.3,0.9,2.2,2,2.1
				S1566.5-29.8,1566.4-31.1z M1559.1-32.3l1-0.1c0.6-0.1,0.9,0.2,1,0.6c0.1,0.5-0.2,0.8-0.8,0.9l-1,0.1L1559.1-32.3z M1560.1-30.4
				l1.4,1.7l0.6-0.1l-1.5-1.7c0.7-0.2,1-0.6,0.9-1.3c-0.1-0.8-0.7-1.2-1.6-1.1l-1.6,0.2l0.5,4.3l0.6-0.1l-0.2-1.8L1560.1-30.4z
				 M1554.5-31.9l1,4.2l2.7-0.6l-0.1-0.5l-2.1,0.5l-0.3-1.4l1.9-0.5l-0.1-0.5l-1.9,0.5l-0.3-1.3l2.1-0.5l-0.1-0.5L1554.5-31.9z
				 M1553.4-31.6l-0.5,0.1l1.2,4.1l0.5-0.1L1553.4-31.6z M1548-29.2l0.9-0.4c0.5-0.2,0.9-0.1,1.1,0.4c0.2,0.4,0,0.8-0.6,1l-0.9,0.4
				L1548-29.2z M1549.5-27.6l1.8,1.3l0.6-0.2l-1.8-1.3c0.6-0.3,0.8-0.9,0.6-1.5c-0.3-0.8-1-1-1.8-0.6l-1.5,0.6l1.6,4l0.5-0.2
				l-0.7-1.7L1549.5-27.6z M1545-27.5l1.4,1.3l-1.3,0.6L1545-27.5z M1544.4-28l0.4,4.6l0.5-0.3l-0.1-1.4l1.6-0.8l1,0.9l0.5-0.3
				l-3.4-3.1L1544.4-28z M1539.5-24l1.7,1l-1.1,0.9L1539.5-24z M1538.9-24.4l1.4,4.4l0.4-0.4l-0.4-1.3l1.4-1.1l1.2,0.7l0.4-0.4
				l-4-2.3L1538.9-24.4z M1536.8-19.5l0.7-0.7c0.4-0.4,0.8-0.4,1.2-0.1c0.3,0.3,0.3,0.8-0.1,1.1l-0.7,0.7L1536.8-19.5z M1536.5-19.8
				l-1-1l0.6-0.6c0.4-0.4,0.8-0.5,1.1-0.1c0.3,0.3,0.3,0.7-0.2,1.1L1536.5-19.8z M1537.8-20.9c0.2-0.3,0.2-0.7-0.2-1.1
				c-0.5-0.5-1.2-0.5-1.8,0.2l-1,1l3,3.1l1.1-1.1c0.6-0.6,0.7-1.3,0.2-1.9C1538.8-21,1538.3-21.1,1537.8-20.9z M1533-19.5l1-1.1
				l-0.3-0.3l-1,1.1L1533-19.5z M1534-20l-0.4,0.4l3.1,3l0.4-0.4L1534-20z M1531.6-16.6l0.7-0.8c0.4-0.4,0.8-0.5,1.2-0.2
				s0.4,0.8,0,1.2l-0.7,0.8L1531.6-16.6z M1533.6-15.9l2.2,0.3l0.4-0.5l-2.2-0.3c0.4-0.6,0.3-1.2-0.2-1.6c-0.6-0.5-1.3-0.4-1.9,0.3
				l-1,1.2l3.2,2.8l0.4-0.4l-1.4-1.2L1533.6-15.9z M1531.8-10.2l0.8-1.2c0.7-1.1,0.4-2.2-0.7-2.9c-1.1-0.7-2.3-0.5-2.9,0.6l-0.8,1.2
				L1531.8-10.2z M1531.7-10.9l-2.8-1.8l0.4-0.7c0.5-0.8,1.4-0.9,2.2-0.4c0.8,0.6,1.1,1.4,0.6,2.2L1531.7-10.9z M1526.2-8.9l3.8,1.9
				l1.2-2.4l-0.4-0.2l-1,2l-1.3-0.7l0.9-1.8l-0.4-0.2l-0.9,1.8l-1.2-0.6l1-1.9l-0.4-0.2L1526.2-8.9z M1525.7-7.8l-0.2,0.5l3.9,1.8
				l0.2-0.5L1525.7-7.8z M1526.4-3.3l0.4-0.9c0.2-0.5,0.6-0.7,1-0.6s0.6,0.6,0.4,1.1l-0.4,0.9L1526.4-3.3z M1525.9-3.5l-1.3-0.5
				l0.3-0.8c0.2-0.5,0.5-0.7,1-0.6s0.5,0.6,0.3,1.1L1525.9-3.5z M1526.8-4.9c0-0.3-0.2-0.7-0.6-0.9c-0.7-0.3-1.3,0.1-1.6,0.9
				l-0.5,1.3l4,1.6l0.6-1.4c0.3-0.8,0.1-1.5-0.6-1.8C1527.5-5.5,1527-5.3,1526.8-4.9z M1523.8-0.4l1.9-0.3l-0.3,1.4L1523.8-0.4z
				 M1523.1-0.3l3.8,2.6l0.1-0.5l-1.2-0.8l0.4-1.7l1.4-0.2l0.1-0.6l-4.6,0.7L1523.1-0.3z M1526,5.4c0.3-0.3,0.5-0.7,0.6-1.3
				c0.2-0.8-0.2-1.5-0.9-1.6c-0.6-0.1-1,0.1-1.3,0.7l-0.4,0.6c-0.2,0.4-0.4,0.6-0.8,0.5c-0.4-0.1-0.6-0.5-0.5-1
				c0.1-0.5,0.3-0.8,0.7-1.1l-0.6-0.1c-0.3,0.3-0.5,0.7-0.6,1.1c-0.1,0.7,0.1,1.4,0.9,1.6c0.7,0.1,1-0.3,1.3-0.7l0.4-0.6
				c0.3-0.4,0.5-0.6,0.8-0.5c0.4,0.1,0.6,0.5,0.5,1c-0.1,0.5-0.3,0.9-0.7,1.2L1526,5.4z"/>
		</g>
		<g>
			<defs>
				<rect id="SVGID_17_" x="1267.7" y="-411" width="595.3" height="841.9"/>
			</defs>
			<clipPath id="SVGID_18_">
				<use xlink:href="#SVGID_17_"  style="overflow:visible;"/>
			</clipPath>
			<path class="st15" d="M1590.3,41.3l1.7,1l-1.1,0.9L1590.3,41.3z M1589.7,40.9l1.4,4.4l0.4-0.3l-0.4-1.3l1.4-1.1l1.2,0.7l0.4-0.3
				l-4-2.3L1589.7,40.9z M1586.2,43.4l-0.5,0.3l2.3,3.6l0.5-0.3l-1.1-1.7l2.8,0.7l0.6-0.4l-3-0.7l0.7-2.9l-0.6,0.4l-0.6,2.7
				L1586.2,43.4z M1584.8,44.3l-0.5,0.3l2.2,3.7l0.5-0.3L1584.8,44.3z M1583.3,49.9l2.5-1.2l-0.2-0.5l-2,1l-1.7-3.4l-0.5,0.2
				L1583.3,49.9z M1579.4,49.3l0.9-0.4c0.5-0.2,0.9,0,1.1,0.4c0.2,0.4,0,0.8-0.6,1l-0.9,0.4L1579.4,49.3z M1579.3,48.9l-0.5-1.3
				l0.8-0.3c0.5-0.2,0.9-0.1,1.1,0.3c0.2,0.4,0,0.8-0.6,1L1579.3,48.9z M1580.9,48.5c0.3-0.2,0.4-0.6,0.3-1.1
				c-0.3-0.7-0.9-0.9-1.7-0.6l-1.3,0.5l1.5,4l1.4-0.5c0.8-0.3,1.2-0.9,0.9-1.6C1581.8,48.7,1581.3,48.4,1580.9,48.5z M1577,52.3
				c0.9-0.3,1.5-1,1.2-2.2l-0.7-2.5l-0.5,0.2l0.7,2.4c0.2,0.9-0.1,1.4-0.7,1.6c-0.7,0.2-1.2-0.1-1.4-1l-0.7-2.4l-0.5,0.2l0.7,2.5
				C1575.2,52.1,1576,52.5,1577,52.3z M1573.4,50c0.1,0.5-0.2,0.8-0.7,1l-1,0.2l-0.3-1.6l1-0.2C1573,49.2,1573.3,49.5,1573.4,50z
				 M1572.8,51.4c0.8-0.2,1.3-0.7,1.2-1.5c-0.2-0.8-0.8-1.2-1.7-1l-1.6,0.3l0.8,4.2l0.5-0.1l-0.3-1.7L1572.8,51.4z M1567.5,49.4
				l0.3,4.3l2.7-0.2l0-0.5l-2.2,0.2l-0.1-1.5l2-0.2l0-0.5l-2,0.2l-0.1-1.3l2.2-0.2l0-0.5L1567.5,49.4z M1564.2,50l1,0
				c0.6,0,0.9,0.3,0.9,0.7c0,0.5-0.3,0.8-0.9,0.8l-1,0L1564.2,50z M1565.1,52l1.3,1.8l0.6,0l-1.3-1.8c0.7-0.1,1.1-0.5,1.1-1.3
				c0-0.8-0.6-1.2-1.5-1.2l-1.6,0.1l0.2,4.3l0.6,0l-0.1-1.8L1565.1,52z M1558.7,53c0.3,0.3,0.7,0.5,1.3,0.5c0.8,0.1,1.5-0.3,1.6-1
				c0.1-0.6-0.2-1-0.8-1.3l-0.6-0.3c-0.4-0.2-0.6-0.4-0.6-0.7c0.1-0.4,0.4-0.6,0.9-0.5c0.5,0.1,0.9,0.3,1.2,0.6l0.1-0.6
				c-0.3-0.3-0.7-0.4-1.2-0.5c-0.7-0.1-1.4,0.2-1.5,1c-0.1,0.7,0.3,1,0.8,1.3l0.6,0.3c0.4,0.2,0.6,0.4,0.6,0.8
				c-0.1,0.4-0.4,0.6-1,0.6c-0.5-0.1-0.9-0.3-1.3-0.7L1558.7,53z M1557,49.4l0.3,2l-1.4-0.3L1557,49.4z M1556.9,48.7l-2.6,3.8
				l0.6,0.1l0.8-1.2l1.7,0.4l0.2,1.4l0.6,0.1l-0.7-4.6L1556.9,48.7z M1551.7,51.5c0.1,0.2,0.4,0.4,0.7,0.5c0.8,0.2,1.3-0.1,1.6-1.1
				l0.8-2.8l-0.5-0.1l-0.8,2.8c-0.2,0.7-0.5,0.9-1,0.8c-0.3-0.1-0.5-0.3-0.7-0.5L1551.7,51.5z M1552.2,47.3l-0.5-0.2l-1.3,4.1
				l0.5,0.2L1552.2,47.3z M1548,50.3l3.3-3.3l-0.5-0.2l-2.7,2.7l0.2-3.8l-0.5-0.2l-0.2,4.6L1548,50.3z M1544.4,44.2l1.3,0.8
				l-1.9,3.3l0.5,0.3l1.9-3.3l1.3,0.8l0.3-0.4l-3.1-1.8L1544.4,44.2z M1542.8,43.5l-0.5,1.9l-1.1-0.8L1542.8,43.5z M1543,42.8
				l-3.9,2.5l0.5,0.3l1.2-0.8l1.4,1l-0.3,1.3l0.5,0.3l1.1-4.5L1543,42.8z M1536.5,43.3l2.2,1.7l0.3-0.4l-1.7-1.3l2.3-3l-0.4-0.3
				L1536.5,43.3z"/>
		</g>
		<g>
			<defs>
				<rect id="SVGID_19_" x="1267.7" y="-411" width="595.3" height="841.9"/>
			</defs>
			<clipPath id="SVGID_20_">
				<use xlink:href="#SVGID_19_"  style="overflow:visible;"/>
			</clipPath>
			<path class="st16" d="M1591.5,30.5c0,0.5-0.4,0.9-0.9,0.9c-0.5,0-0.9-0.4-0.9-0.9c0-0.5,0.4-0.9,0.9-0.9
				C1591.1,29.6,1591.5,30,1591.5,30.5 M1590.6,31.9c0.8,0,1.3-0.6,1.3-1.4c0-0.8-0.6-1.4-1.3-1.4c-0.2,0-0.3,0-0.4,0.1l0.8-1.5
				h-0.5l-0.9,1.6c-0.3,0.5-0.3,0.8-0.3,1.1C1589.3,31.3,1589.8,31.9,1590.6,31.9z M1587.2,31.4l0.7-0.9c0.4-0.5,0.8-1,0.8-1.6
				c0-0.7-0.5-1.1-1.2-1.1c-0.5,0-0.9,0.2-1.2,0.5v0.5c0.3-0.3,0.7-0.5,1.1-0.5c0.5,0,0.7,0.3,0.7,0.7c0,0.5-0.3,0.9-0.7,1.4
				l-1.2,1.5v0h2.6v-0.5L1587.2,31.4L1587.2,31.4z M1583.7,29.1c0-0.5,0.4-0.9,0.9-0.9c0.5,0,0.9,0.4,0.9,0.9c0,0.5-0.4,0.9-0.9,0.9
				C1584.1,30,1583.7,29.6,1583.7,29.1z M1584.6,27.8c-0.8,0-1.3,0.6-1.3,1.4s0.6,1.4,1.3,1.4c0.2,0,0.3,0,0.4-0.1l-0.8,1.5h0.5
				l0.9-1.6c0.3-0.5,0.3-0.8,0.3-1.1C1586,28.4,1585.4,27.8,1584.6,27.8z M1580.5,28.3h1.6l-0.9,1.4v0c0.7,0,1.2,0.3,1.2,0.9
				c0,0.5-0.4,0.8-0.9,0.8c-0.4,0-0.8-0.1-1.1-0.4v0.5c0.3,0.2,0.6,0.3,1.1,0.3c0.7,0,1.3-0.5,1.3-1.3c0-0.6-0.4-1.1-1-1.2l1-1.6v0
				h-2.4L1580.5,28.3L1580.5,28.3z M1578.6,29.3c-0.2,0-0.4,0-0.5,0.1v-1.1h1.7v-0.5h-2.1v2.1c0.3-0.1,0.5-0.2,0.8-0.2
				c0.5,0,1,0.3,1,0.8c0,0.5-0.4,0.9-1,0.9c-0.4,0-0.7-0.1-1-0.4v0.5c0.3,0.2,0.6,0.3,1,0.3c0.8,0,1.4-0.5,1.4-1.3
				C1580,29.8,1579.4,29.3,1578.6,29.3z M1575.4,31.4l0.7-0.9c0.4-0.5,0.8-1,0.8-1.6c0-0.7-0.5-1.1-1.2-1.1c-0.5,0-0.9,0.2-1.2,0.5
				v0.5c0.3-0.3,0.7-0.5,1.1-0.5c0.5,0,0.7,0.3,0.7,0.7c0,0.5-0.3,0.9-0.7,1.4l-1.2,1.5v0h2.6v-0.5L1575.4,31.4L1575.4,31.4z
				 M1571.8,28.3h1.6l-0.9,1.4v0c0.7,0,1.2,0.3,1.2,0.9c0,0.5-0.4,0.8-0.9,0.8c-0.4,0-0.8-0.1-1.1-0.4v0.5c0.3,0.2,0.6,0.3,1.1,0.3
				c0.7,0,1.3-0.5,1.3-1.3c0-0.6-0.4-1.1-1-1.2l1-1.6v0h-2.4L1571.8,28.3L1571.8,28.3z M1569.9,28.2c0.6,0,1,0.7,1,1.6
				s-0.3,1.6-1,1.6s-1-0.7-1-1.6S1569.2,28.2,1569.9,28.2z M1569.9,31.9c0.9,0,1.5-0.8,1.5-2c0-1.2-0.6-2-1.5-2s-1.5,0.8-1.5,2
				C1568.4,31,1569,31.9,1569.9,31.9z M1566.3,31.4l0.7-0.9c0.4-0.5,0.8-1,0.8-1.6c0-0.7-0.5-1.1-1.2-1.1c-0.5,0-0.9,0.2-1.2,0.5
				v0.5c0.3-0.3,0.7-0.5,1.1-0.5c0.5,0,0.7,0.3,0.7,0.7c0,0.5-0.3,0.9-0.7,1.4l-1.2,1.5v0h2.6v-0.5L1566.3,31.4L1566.3,31.4z
				 M1563.6,28.2c0.6,0,1,0.7,1,1.6s-0.3,1.6-1,1.6s-1-0.7-1-1.6S1562.9,28.2,1563.6,28.2z M1563.6,31.9c0.9,0,1.5-0.8,1.5-2
				c0-1.2-0.6-2-1.5-2s-1.5,0.8-1.5,2C1562.1,31,1562.7,31.9,1563.6,31.9z M1560.6,27.8h-0.5l-1.4,3.1v0h1.9v0.9h0.5v-0.9h0.7v-0.4
				h-0.7v-1h-0.5v1h-1.2L1560.6,27.8z M1556.2,31.5c0,0.2,0.2,0.4,0.3,0.4s0.3-0.1,0.3-0.4s-0.2-0.4-0.3-0.4
				C1556.3,31.1,1556.2,31.3,1556.2,31.5z M1556.1,28.9c-0.1,0-0.2,0-0.3,0c-0.3,0-0.6,0.2-0.7,0.4v-0.4h-0.5v2.9h0.5v-1.9
				c0.1-0.3,0.4-0.5,0.7-0.5c0.1,0,0.3,0,0.3,0.1V28.9z M1553.7,27.8h-0.5v3l-2.1-3h-0.5v4h0.5v-3.2l2.2,3.2h0.4L1553.7,27.8
				L1553.7,27.8z M1547.7,31.5c0,0.2,0.2,0.4,0.3,0.4s0.3-0.1,0.3-0.4s-0.2-0.4-0.3-0.4C1547.9,31.1,1547.7,31.3,1547.7,31.5z
				 M1546.6,30.9c-0.2,0.3-0.4,0.5-0.7,0.5c-0.6,0-0.9-0.4-0.9-1s0.3-1,0.9-1c0.3,0,0.6,0.2,0.7,0.5V30.9z M1546.6,31.6
				c0,0.6-0.4,0.9-0.9,0.9c-0.3,0-0.6-0.1-0.9-0.4v0.5c0.2,0.2,0.6,0.3,0.9,0.3c0.7,0,1.4-0.4,1.4-1.4v-2.6h-0.5v0.3
				c-0.1-0.2-0.4-0.4-0.8-0.4c-0.8,0-1.3,0.7-1.3,1.5s0.4,1.5,1.3,1.5c0.4,0,0.7-0.2,0.8-0.4V31.6z M1546.3,27.4h-0.3l-0.2,0.3
				c-0.1,0.1-0.1,0.2-0.1,0.4c0,0.2,0.1,0.3,0.3,0.3c0.2,0,0.3-0.1,0.3-0.3c0-0.2-0.1-0.3-0.3-0.3L1546.3,27.4z M1542.9,29.3
				c0.5,0,0.7,0.4,0.7,0.8h-1.5C1542.2,29.5,1542.5,29.3,1542.9,29.3z M1544.1,30.5v-0.2c0-0.9-0.4-1.4-1.2-1.4
				c-0.8,0-1.3,0.6-1.3,1.5c0,0.9,0.6,1.5,1.4,1.5c0.3,0,0.6-0.1,0.9-0.3v-0.5c-0.3,0.2-0.5,0.3-0.8,0.3c-0.5,0-0.9-0.3-1-1H1544.1z
				 M1538.8,28.3h0.9c0.5,0,0.8,0.3,0.8,0.7s-0.3,0.7-0.8,0.7h-0.9V28.3z M1539.5,30.1l1.1,1.7h0.6l-1.2-1.7c0.6-0.1,1-0.5,1-1.1
				c0-0.8-0.5-1.2-1.3-1.2h-1.5v4h0.5v-1.7C1538.8,30.1,1539.5,30.1,1539.5,30.1z"/>
		</g>
	</g>
</g>
<rect x="2052.8" y="15.4" class="st17" width="255.1" height="141.7"/>
<rect x="2052.8" y="-137.1" class="st18" width="255.1" height="141.7"/>
<polygon class="st19" points="2193.3,-61.5 2193.3,-54.1 2198.3,-54.1 2198.3,-55.5 2194.9,-55.5 2194.9,-57.3 2198,-57.3 
	2198,-58.6 2194.9,-58.6 2194.9,-60.2 2198.3,-60.2 2198.3,-61.5 "/>
<rect x="2199.5" y="-61.9" class="st19" width="1.5" height="7.8"/>
<polygon class="st19" points="2205.2,-54.1 2207.3,-59.5 2205.8,-59.5 2204.6,-55.9 2203.3,-59.5 2201.8,-59.5 2203.8,-54.1 "/>
<path class="st19" d="M2209.7-61c0-0.5-0.4-0.8-0.9-0.8c-0.5,0-0.9,0.4-0.9,0.8c0,0.5,0.4,0.8,0.9,0.8S2209.7-60.5,2209.7-61
	 M2209.6-59.5h-1.5v5.4h1.5V-59.5z"/>
<path class="st19" d="M2212.5-61c0-0.5-0.4-0.8-0.9-0.8c-0.5,0-0.9,0.4-0.9,0.8c0,0.5,0.4,0.8,0.9,0.8
	C2212.1-60.2,2212.5-60.5,2212.5-61 M2212.4-59.5h-1.5v5.6c0,0.5-0.2,0.7-0.6,0.7c-0.1,0-0.2,0-0.3,0v1.2c0.1,0,0.4,0.1,0.6,0.1
	c1.2,0,1.9-0.7,1.9-1.9L2212.4-59.5L2212.4-59.5z"/>
<path class="st19" d="M2213.4-54.6c0.5,0.3,1.2,0.5,1.9,0.5c1.3,0,2.2-0.6,2.2-1.7c0-0.9-0.5-1.3-1.5-1.6l-0.6-0.2
	c-0.4-0.1-0.6-0.2-0.6-0.5c0-0.3,0.3-0.5,0.7-0.5c0.6,0,1.2,0.3,1.6,0.7v-1.4c-0.5-0.3-1-0.5-1.7-0.5c-1.2,0-2.1,0.6-2.1,1.7
	c0,0.9,0.6,1.4,1.5,1.6l0.5,0.1c0.4,0.1,0.6,0.2,0.6,0.5c0,0.3-0.4,0.5-0.8,0.5c-0.6,0-1.3-0.3-1.9-0.7L2213.4-54.6L2213.4-54.6z"/>
<polygon class="st19" points="2226.5,-55.5 2223.1,-55.5 2226.6,-61.5 2226.6,-61.5 2220.9,-61.5 2220.9,-60.2 2224.2,-60.2 
	2220.7,-54.2 2220.7,-54.1 2226.5,-54.1 "/>
<path class="st19" d="M2229.2-61c0-0.5-0.4-0.8-0.9-0.8c-0.5,0-0.9,0.4-0.9,0.8c0,0.5,0.4,0.8,0.9,0.8S2229.2-60.5,2229.2-61
	 M2229.1-59.5h-1.5v5.4h1.5V-59.5z"/>
<path class="st19" d="M2232.6-58.4c0.6,0,0.9,0.4,0.9,1h-2C2231.7-58.1,2232.1-58.4,2232.6-58.4 M2234.9-56.5V-57
	c0-1.6-0.8-2.7-2.4-2.7c-1.5,0-2.5,1.2-2.5,2.8c0,1.7,1.1,2.8,2.8,2.8c0.7,0,1.3-0.1,1.8-0.5v-1.2c-0.5,0.3-0.9,0.5-1.5,0.5
	c-0.8,0-1.4-0.4-1.6-1.2C2231.4-56.5,2234.9-56.5,2234.9-56.5z"/>
<path class="st19" d="M2239.4-55.9c-0.2,0.4-0.6,0.6-1,0.6c-0.8,0-1.3-0.7-1.3-1.5c0-0.9,0.5-1.5,1.3-1.5c0.4,0,0.8,0.3,1,0.6V-55.9
	z M2239.4-54.1h1.5v-7.8h-1.5v2.9c-0.2-0.3-0.8-0.6-1.3-0.6c-1.6,0-2.4,1.3-2.4,2.8s0.9,2.8,2.4,2.8c0.6,0,1.1-0.3,1.3-0.6V-54.1z"
	/>
<path class="st19" d="M2243.8-61c0-0.5-0.4-0.8-0.9-0.8c-0.5,0-0.9,0.4-0.9,0.8c0,0.5,0.4,0.8,0.9,0.8
	C2243.3-60.2,2243.8-60.5,2243.8-61 M2243.6-59.5h-1.5v5.4h1.5V-59.5z"/>
<path class="st19" d="M2244.9-54.1h1.5v-3.4c0.1-0.5,0.5-0.7,1-0.7c0.6,0,0.9,0.4,0.9,1v3.2h1.5v-3.5c0-1.2-0.7-2-1.9-2
	c-0.6,0-1.1,0.3-1.4,0.6v-0.5h-1.5V-54.1z M2246.6-51.4h0.9l0.3-0.5c0.2-0.3,0.4-0.6,0.4-0.9c0-0.5-0.4-0.8-0.8-0.8
	c-0.5,0-0.9,0.3-0.9,0.8c0,0.4,0.3,0.7,0.6,0.7L2246.6-51.4z"/>
<path class="st19" d="M2250.8-54.6c0.5,0.3,1.2,0.5,1.9,0.5c1.3,0,2.2-0.6,2.2-1.7c0-0.9-0.5-1.3-1.5-1.6l-0.6-0.2
	c-0.4-0.1-0.6-0.2-0.6-0.5c0-0.3,0.3-0.5,0.7-0.5c0.6,0,1.2,0.3,1.6,0.7v-1.4c-0.5-0.3-1-0.5-1.7-0.5c-1.2,0-2.1,0.6-2.1,1.7
	c0,0.9,0.6,1.4,1.5,1.6l0.5,0.1c0.4,0.1,0.6,0.2,0.6,0.5c0,0.3-0.4,0.5-0.8,0.5c-0.6,0-1.3-0.3-1.9-0.7L2250.8-54.6L2250.8-54.6z
	 M2254.6-61.9h-1.2l-0.6,0.8l-0.6-0.8h-1.2l1.1,1.7h1.3L2254.6-61.9z"/>
<polygon class="st20" points="2195.6,-43.4 2197.8,-48.9 2197,-48.9 2195.3,-44.3 2193.6,-48.9 2192.8,-48.9 2194.9,-43.4 "/>
<path class="st20" d="M2200.3-44.4c-0.1,0.3-0.5,0.5-0.9,0.5c-0.5,0-0.9-0.2-0.9-0.7s0.5-0.7,0.9-0.7c0.4,0,0.8,0.2,0.9,0.5V-44.4z
	 M2200.3-45.5c-0.2-0.2-0.6-0.3-1-0.3c-0.9,0-1.5,0.5-1.5,1.3c0,0.8,0.7,1.3,1.5,1.3c0.5,0,0.9-0.2,1-0.4v0.3h0.7v-2.7
	c0-0.8-0.6-1.4-1.5-1.4c-0.5,0-1,0.1-1.2,0.3v0.6c0.3-0.2,0.7-0.3,1.1-0.3c0.6,0,0.9,0.3,0.9,0.8L2200.3-45.5L2200.3-45.5z"/>
<rect x="2202.1" y="-49.3" class="st20" width="0.7" height="5.8"/>
<path class="st20" d="M2206.7-44.6c-0.2,0.4-0.6,0.7-1,0.7c-0.8,0-1.2-0.6-1.2-1.5c0-0.8,0.4-1.5,1.2-1.5c0.4,0,0.8,0.2,1,0.7V-44.6
	z M2206.7-43.4h0.7v-5.8h-0.7v2.3c-0.2-0.3-0.6-0.5-1.1-0.5c-1.2,0-1.8,1-1.8,2.1c0,1.1,0.6,2.1,1.8,2.1c0.5,0,0.9-0.3,1.1-0.5
	V-43.4z"/>
<path class="st20" d="M2210.1-46.9c0.6,0,0.9,0.5,1,1.1h-2.1C2209.1-46.5,2209.5-46.9,2210.1-46.9 M2211.7-45.3v-0.2
	c0-1.2-0.6-2-1.6-2c-1.1,0-1.8,0.9-1.8,2.1c0,1.3,0.8,2,1.9,2c0.5,0,0.9-0.1,1.2-0.3v-0.6c-0.4,0.3-0.7,0.4-1.1,0.4
	c-0.7,0-1.3-0.4-1.3-1.4C2208.9-45.3,2211.7-45.3,2211.7-45.3z"/>
<path class="st20" d="M2212.4-43.7c0.3,0.2,0.8,0.4,1.3,0.4c0.8,0,1.5-0.4,1.5-1.2c0-0.6-0.3-0.9-0.9-1.1l-0.6-0.2
	c-0.4-0.1-0.6-0.2-0.6-0.6c0-0.3,0.3-0.5,0.8-0.5c0.5,0,0.9,0.2,1.2,0.5v-0.7c-0.3-0.2-0.7-0.3-1.2-0.3c-0.8,0-1.4,0.4-1.4,1.1
	c0,0.7,0.4,0.9,1,1.1l0.6,0.2c0.4,0.1,0.6,0.3,0.6,0.6c0,0.4-0.4,0.6-0.8,0.6c-0.5,0-0.9-0.2-1.3-0.5L2212.4-43.7L2212.4-43.7z"/>
<path class="st20" d="M2218.8-46.2c0.2-0.4,0.6-0.7,1-0.7c0.8,0,1.2,0.6,1.2,1.5c0,0.8-0.4,1.5-1.2,1.5c-0.4,0-0.8-0.2-1-0.7V-46.2z
	 M2218.8-43.9c0.2,0.3,0.6,0.5,1.1,0.5c1.2,0,1.8-1,1.8-2.1c0-1.1-0.6-2.1-1.8-2.1c-0.5,0-0.9,0.3-1.1,0.5v-0.5h-0.7v5.5h0.7V-43.9z
	"/>
<path class="st20" d="M2224.7-47.4c-0.1,0-0.2-0.1-0.4-0.1c-0.4,0-0.8,0.3-1,0.6v-0.5h-0.7v4h0.7v-2.7c0.1-0.5,0.5-0.8,0.9-0.8
	c0.2,0,0.3,0,0.4,0.1V-47.4z"/>
<path class="st20" d="M2226.3-48.6c0-0.2-0.2-0.4-0.4-0.4c-0.2,0-0.4,0.2-0.4,0.4c0,0.2,0.2,0.4,0.4,0.4
	C2226.1-48.2,2226.3-48.4,2226.3-48.6 M2226.3-47.4h-0.7v4h0.7V-47.4z"/>
<path class="st20" d="M2228.9-46.9c0.6,0,0.9,0.5,1,1.1h-2.1C2228-46.5,2228.4-46.9,2228.9-46.9 M2230.6-45.3v-0.2
	c0-1.2-0.6-2-1.6-2c-1.1,0-1.8,0.9-1.8,2.1c0,1.3,0.8,2,1.9,2c0.5,0,0.9-0.1,1.2-0.3v-0.6c-0.4,0.3-0.7,0.4-1.1,0.4
	c-0.7,0-1.3-0.4-1.3-1.4C2227.8-45.3,2230.6-45.3,2230.6-45.3z"/>
<polygon class="st20" points="2232.9,-45.6 2234.8,-47.4 2233.9,-47.4 2232.2,-45.7 2232.2,-49.3 2231.5,-49.3 2231.5,-43.4 
	2232.2,-43.4 2232.2,-45.4 2234,-43.4 2234.9,-43.4 "/>
<path class="st20" d="M2235.3-43.7c0.3,0.2,0.8,0.4,1.3,0.4c0.8,0,1.5-0.4,1.5-1.2c0-0.6-0.3-0.9-0.9-1.1l-0.6-0.2
	c-0.4-0.1-0.6-0.2-0.6-0.6c0-0.3,0.3-0.5,0.8-0.5c0.5,0,0.9,0.2,1.2,0.5v-0.7c-0.3-0.2-0.7-0.3-1.2-0.3c-0.8,0-1.4,0.4-1.4,1.1
	c0,0.7,0.4,0.9,1,1.1l0.6,0.2c0.4,0.1,0.6,0.3,0.6,0.6c0,0.4-0.4,0.6-0.8,0.6c-0.5,0-0.9-0.2-1.3-0.5L2235.3-43.7L2235.3-43.7z
	 M2237.9-49.2h-0.6l-0.6,0.8l-0.6-0.8h-0.6l0.8,1.2h0.6L2237.9-49.2z"/>
<path class="st20" d="M2238.8-43.7c0.3,0.2,0.8,0.4,1.3,0.4c0.8,0,1.5-0.4,1.5-1.2c0-0.6-0.3-0.9-0.9-1.1l-0.6-0.2
	c-0.4-0.1-0.6-0.2-0.6-0.6c0-0.3,0.3-0.5,0.8-0.5c0.5,0,0.9,0.2,1.2,0.5v-0.7c-0.3-0.2-0.7-0.3-1.2-0.3c-0.8,0-1.4,0.4-1.4,1.1
	c0,0.7,0.4,0.9,1,1.1l0.6,0.2c0.4,0.1,0.6,0.3,0.6,0.6c0,0.4-0.4,0.6-0.8,0.6c-0.5,0-0.9-0.2-1.3-0.5L2238.8-43.7L2238.8-43.7z"/>
<path class="st20" d="M2243.2-48.2h1.9v-0.5h-1.9V-48.2z M2244.1-46.9c0.6,0,0.9,0.5,1,1.1h-2.1
	C2243.1-46.5,2243.6-46.9,2244.1-46.9z M2245.7-45.3v-0.2c0-1.2-0.6-2-1.6-2c-1.1,0-1.8,0.9-1.8,2.1c0,1.3,0.8,2,1.9,2
	c0.5,0,0.9-0.1,1.2-0.3v-0.6c-0.4,0.3-0.7,0.4-1.1,0.4c-0.7,0-1.3-0.4-1.3-1.4C2243-45.3,2245.7-45.3,2245.7-45.3z"/>
<path class="st20" d="M2249.3-44.6c-0.2,0.4-0.6,0.7-1,0.7c-0.8,0-1.2-0.6-1.2-1.5c0-0.8,0.4-1.5,1.2-1.5c0.4,0,0.8,0.2,1,0.7V-44.6
	z M2249.3-43.4h0.7v-5.8h-0.7v2.3c-0.2-0.3-0.6-0.5-1.1-0.5c-1.2,0-1.8,1-1.8,2.1c0,1.1,0.6,2.1,1.8,2.1c0.5,0,0.9-0.3,1.1-0.5
	V-43.4z"/>
<path class="st20" d="M2251.7-48.2h1.9v-0.5h-1.9V-48.2z M2252.7-46.9c0.6,0,0.9,0.5,1,1.1h-2.1
	C2251.7-46.5,2252.1-46.9,2252.7-46.9z M2254.3-45.3v-0.2c0-1.2-0.6-2-1.6-2c-1.1,0-1.8,0.9-1.8,2.1c0,1.3,0.8,2,1.9,2
	c0.5,0,0.9-0.1,1.2-0.3v-0.6c-0.4,0.3-0.7,0.4-1.1,0.4c-0.7,0-1.3-0.4-1.3-1.4C2251.6-45.3,2254.3-45.3,2254.3-45.3z"/>
<polygon class="st20" points="2256.3,-46.8 2257.2,-46.8 2257.2,-47.4 2256.3,-47.4 2256.3,-48.4 2255.6,-48.4 2255.6,-47.4 
	2254.8,-47.4 2254.8,-46.8 2255.6,-46.8 2255.6,-43.4 2256.3,-43.4 "/>
<path class="st20" d="M2258.4-48.2h1.9v-0.5h-1.9V-48.2z M2260.2-44.4c-0.1,0.3-0.5,0.5-0.9,0.5c-0.5,0-0.9-0.2-0.9-0.7
	s0.5-0.7,0.9-0.7c0.4,0,0.8,0.2,0.9,0.5V-44.4z M2260.2-45.5c-0.2-0.2-0.6-0.3-1-0.3c-0.9,0-1.5,0.5-1.5,1.3c0,0.8,0.7,1.3,1.5,1.3
	c0.5,0,0.9-0.2,1-0.4v0.3h0.7v-2.7c0-0.8-0.6-1.4-1.5-1.4c-0.5,0-1,0.1-1.2,0.3v0.6c0.3-0.2,0.7-0.3,1.1-0.3c0.6,0,0.9,0.3,0.9,0.8
	L2260.2-45.5L2260.2-45.5z"/>
<path class="st20" d="M2262.8-48.6c0-0.2-0.2-0.4-0.4-0.4c-0.2,0-0.4,0.2-0.4,0.4c0,0.2,0.2,0.4,0.4,0.4
	C2262.6-48.2,2262.8-48.4,2262.8-48.6 M2262.6-47.4h-0.7v4.4c0,0.5-0.2,0.6-0.5,0.6c-0.1,0-0.2,0-0.2,0v0.6c0.1,0,0.2,0,0.3,0
	c0.8,0,1.2-0.4,1.2-1.2V-47.4z"/>
<path class="st20" d="M2263.6-43.7c0.3,0.2,0.8,0.4,1.3,0.4c0.8,0,1.5-0.4,1.5-1.2c0-0.6-0.3-0.9-0.9-1.1l-0.6-0.2
	c-0.4-0.1-0.6-0.2-0.6-0.6c0-0.3,0.3-0.5,0.8-0.5c0.5,0,0.9,0.2,1.2,0.5v-0.7c-0.3-0.2-0.7-0.3-1.2-0.3c-0.8,0-1.4,0.4-1.4,1.1
	c0,0.7,0.4,0.9,1,1.1l0.6,0.2c0.4,0.1,0.6,0.3,0.6,0.6c0,0.4-0.4,0.6-0.8,0.6c-0.5,0-0.9-0.2-1.3-0.5L2263.6-43.7L2263.6-43.7z"/>
<path class="st19" d="M2084.9-103.2c1.8,1.7,2.7,4,2.7,6.4c0,3.6-2.8,6.1-7,6.4v-2.2c2.5-0.3,4.9-1.5,4.9-4.3c0-2.7-1.2-4.1-2.5-5.4
	c0.6-0.2,1.3-0.5,1.8-0.9C2084.7-103.1,2084.8-103.1,2084.9-103.2"/>
<path class="st19" d="M2080-119.4h1.1h0.5v5.5l0,0v5.8c0,0.6,0.1,1.1,0.3,1.6c-0.5,0.3-1.1,0.4-1.7,0.5c-0.1,0-0.2,0-0.4,0
	c-0.3-0.7-0.4-1.4-0.4-2.2v-10.8v0v-0.5H2080z"/>
<path class="st19" d="M2082.7-116.8c3,0.9,4.9,3.1,4.9,6c0,1.9-0.8,5.1-3.5,6.8c-1.4,0.9-2.9,1.3-4.5,1.3c-1.1,0-2.2,0.2-3.2,0.7
	c-0.9,0.5-1.6,1.2-2.1,2.2c-0.5,1-0.7,2-0.8,3.1c0,1.9,1.1,3.1,2.7,3.8v2.3c-3-0.9-4.9-3.1-4.9-6c0-1.9,0.8-5.1,3.5-6.8
	c2.7-1.8,4.9-0.9,6.9-1.6c0.3-0.1,0.6-0.2,0.8-0.4c0.9-0.5,1.6-1.2,2-2.1c0.5-1,0.7-2,0.8-3.1c0-1.9-1.1-3.1-2.7-3.8V-116.8z"/>
<path class="st19" d="M2078.4-117.2v2.2c-2.5,0.3-4.9,1.5-4.9,4.3c0,2.7,1.2,4.1,2.5,5.4c-0.6,0.2-1.3,0.5-1.8,0.9
	c-0.1,0-0.1,0.1-0.2,0.1c-1.8-1.7-2.7-4-2.7-6.4C2071.4-114.3,2074.1-116.8,2078.4-117.2"/>
<path class="st19" d="M2079.1-101.6L2079.1-101.6c0.3,0.7,0.4,1.4,0.4,2.1v8.9v1.9v0.5h-0.5h-1.1h-0.5v-0.5v-10.8
	c0-0.6-0.1-1.1-0.4-1.6c0.5-0.3,1.1-0.4,1.7-0.5C2078.8-101.6,2078.9-101.6,2079.1-101.6"/>
<polygon class="st20" points="2096.1,-98.7 2103.3,-98.7 2103.3,-101 2098.7,-101 2098.7,-108.8 2096.1,-108.8 "/>
<path class="st20" d="M2110.1-105.3c0,0.8-0.4,1.3-1.4,1.3h-1.5v-2.6h1.5C2109.6-106.6,2110.1-106.1,2110.1-105.3 M2108.9-101.8
	c2.2,0,3.7-1.2,3.7-3.5c0-2.3-1.5-3.5-3.7-3.5h-4.4v10.2h2.6v-3.2H2108.9z"/>
<polygon class="st20" points="2122.3,-108.8 2119.4,-108.8 2117.5,-105.9 2115.7,-108.8 2112.8,-108.8 2116,-103.9 2112.6,-98.7 
	2115.5,-98.7 2117.5,-101.8 2119.5,-98.7 2122.5,-98.7 2119.1,-103.9 "/>
<path class="st20" d="M2126.9-99.5c0.7,0.6,1.8,0.9,3.2,0.9c2,0,3.4-1,3.4-2.8c0-1.4-0.7-2.2-2.3-2.8l-1.6-0.6
	c-0.9-0.4-1.5-0.7-1.5-1.6c0-1,0.9-1.5,2-1.5c1.2,0,2.1,0.4,2.9,1.1v-1.4c-0.8-0.5-1.8-0.8-2.9-0.8c-1.8,0-3.3,0.9-3.3,2.7
	c0,1.6,1.1,2.3,2.3,2.7l1.5,0.6c1.1,0.4,1.6,0.8,1.6,1.7c0,1-0.9,1.6-2.2,1.6c-1.2,0-2.3-0.4-3.2-1.2L2126.9-99.5L2126.9-99.5z"/>
<polygon class="st20" points="2135.3,-108.8 2135.3,-98.7 2141.8,-98.7 2141.8,-99.8 2136.6,-99.8 2136.6,-103.3 2141.3,-103.3 
	2141.3,-104.5 2136.6,-104.5 2136.6,-107.7 2141.8,-107.7 2141.8,-108.8 "/>
<path class="st20" d="M2145.1-107.7h2.4c1.3,0,2.1,0.7,2.1,1.8s-0.8,1.8-2.1,1.8h-2.4V-107.7z M2146.9-103l2.9,4.3h1.5l-3-4.3
	c1.6-0.2,2.6-1.2,2.6-2.9c0-1.9-1.3-2.9-3.4-2.9h-3.7v10.2h1.3v-4.3H2146.9z"/>
<polygon class="st20" points="2157.1,-98.7 2161.1,-108.8 2159.7,-108.8 2156.5,-100.4 2153.4,-108.8 2152,-108.8 2155.9,-98.7 "/>
<rect x="2162.6" y="-108.8" class="st20" width="1.3" height="10.2"/>
<path class="st20" d="M2165.8-99.5c0.7,0.6,1.8,0.9,3.2,0.9c2,0,3.4-1,3.4-2.8c0-1.4-0.7-2.2-2.3-2.8l-1.6-0.6
	c-0.9-0.4-1.5-0.7-1.5-1.6c0-1,0.9-1.5,2-1.5c1.2,0,2.1,0.4,2.9,1.1v-1.4c-0.8-0.5-1.8-0.8-2.9-0.8c-1.8,0-3.3,0.9-3.3,2.7
	c0,1.6,1.1,2.3,2.3,2.7l1.5,0.6c1.1,0.4,1.6,0.8,1.6,1.7c0,1-0.9,1.6-2.2,1.6c-1.2,0-2.3-0.4-3.2-1.2L2165.8-99.5L2165.8-99.5z"/>
<path class="st20" d="M2173.8-99.5c0.7,0.6,1.8,0.9,3.2,0.9c2,0,3.4-1,3.4-2.8c0-1.4-0.7-2.2-2.3-2.8l-1.6-0.6
	c-0.9-0.4-1.5-0.7-1.5-1.6c0-1,0.9-1.5,2-1.5c1.2,0,2.1,0.4,2.9,1.1v-1.4c-0.8-0.5-1.8-0.8-2.9-0.8c-1.8,0-3.3,0.9-3.3,2.7
	c0,1.6,1.1,2.3,2.3,2.7l1.5,0.6c1.1,0.4,1.6,0.8,1.6,1.7c0,1-0.9,1.6-2.2,1.6c-1.2,0-2.3-0.4-3.2-1.2L2173.8-99.5L2173.8-99.5z"/>
<polygon class="st20" points="2194.6,-27.4 2194.6,-25.9 2193.2,-25.9 2193.2,-25.4 2194.6,-25.4 2194.6,-23.9 2195.2,-23.9 
	2195.2,-25.4 2196.7,-25.4 2196.7,-25.9 2195.2,-25.9 2195.2,-27.4 "/>
<path class="st20" d="M2197.5-27.9h2.2l-1.3,2v0c1,0,1.7,0.4,1.7,1.2c0,0.7-0.5,1.1-1.2,1.1c-0.5,0-1.1-0.2-1.5-0.6v0.8
	c0.4,0.3,0.8,0.5,1.5,0.5c1,0,1.9-0.7,1.9-1.8c0-0.9-0.6-1.5-1.4-1.6l1.4-2.2v0h-3.3V-27.9z"/>
<polygon class="st20" points="2205,-28.5 2205,-28.5 2201.3,-28.5 2201.3,-27.9 2204,-27.9 2201.8,-23 2202.5,-23 "/>
<polygon class="st20" points="2207.4,-28.5 2207,-28.5 2205.3,-27.6 2205.3,-26.9 2206.7,-27.6 2206.7,-23 2207.4,-23 "/>
<path class="st20" d="M2211.5-23.6l1-1.2c0.6-0.8,1.1-1.4,1.1-2.2c0-1-0.6-1.6-1.6-1.6c-0.7,0-1.3,0.3-1.6,0.7v0.7
	c0.4-0.4,0.9-0.8,1.6-0.8c0.7,0,1,0.4,1,1c0,0.7-0.5,1.2-1,1.9l-1.7,2.1v0h3.5v-0.6L2211.5-23.6L2211.5-23.6z"/>
<path class="st20" d="M2215.9-26.4c-0.3,0-0.5,0-0.7,0.1v-1.5h2.3v-0.6h-2.9v2.9c0.4-0.1,0.7-0.3,1.2-0.3c0.8,0,1.4,0.4,1.4,1.2
	c0,0.7-0.6,1.2-1.4,1.2c-0.5,0-1-0.2-1.4-0.6v0.8c0.4,0.3,0.8,0.4,1.4,0.4c1.1,0,2-0.7,2-1.8C2217.8-25.8,2217-26.4,2215.9-26.4"/>
<polygon class="st20" points="2221,-28.5 2220.3,-28.5 2218.3,-24.2 2218.3,-24.2 2220.9,-24.2 2220.9,-23 2221.6,-23 2221.6,-24.2 
	2222.5,-24.2 2222.5,-24.8 2221.6,-24.8 2221.6,-26.1 2220.9,-26.1 2220.9,-24.8 2219.3,-24.8 "/>
<polygon class="st20" points="2225.5,-28.5 2224.9,-28.5 2222.9,-24.2 2222.9,-24.2 2225.5,-24.2 2225.5,-23 2226.2,-23 
	2226.2,-24.2 2227.1,-24.2 2227.1,-24.8 2226.2,-24.8 2226.2,-26.1 2225.5,-26.1 2225.5,-24.8 2223.9,-24.8 "/>
<path class="st20" d="M2228.6-23.6l1-1.2c0.6-0.8,1.1-1.4,1.1-2.2c0-1-0.6-1.6-1.6-1.6c-0.7,0-1.3,0.3-1.6,0.7v0.7
	c0.4-0.4,0.9-0.8,1.6-0.8c0.7,0,1,0.4,1,1c0,0.7-0.5,1.2-1,1.9l-1.7,2.1v0h3.5v-0.6L2228.6-23.6L2228.6-23.6z"/>
<path class="st20" d="M2232.2-26.7c0-0.7,0.5-1.3,1.2-1.3s1.2,0.5,1.2,1.3c0,0.7-0.5,1.3-1.2,1.3S2232.2-26,2232.2-26.7
	 M2233.4-28.6c-1.1,0-1.9,0.8-1.9,1.9c0,1.1,0.8,1.9,1.8,1.9c0.2,0,0.5-0.1,0.6-0.2l-1.2,2h0.7l1.3-2.2c0.4-0.6,0.5-1.1,0.5-1.5
	C2235.3-27.8,2234.5-28.6,2233.4-28.6z"/>
<path class="st20" d="M2238-27.9c0.9,0,1.4,0.9,1.4,2.2s-0.5,2.2-1.4,2.2c-0.9,0-1.4-0.9-1.4-2.2C2236.6-27,2237.1-27.9,2238-27.9
	 M2238-22.9c1.2,0,2.1-1.2,2.1-2.8s-0.8-2.8-2.1-2.8s-2.1,1.2-2.1,2.8C2235.9-24,2236.7-22.9,2238-22.9z"/>
<path class="st20" d="M2242.6-22.9c1.1,0,1.9-0.6,1.9-1.6c0-0.7-0.5-1.2-1.1-1.4c0.5-0.2,0.9-0.6,0.9-1.2c0-0.9-0.8-1.5-1.7-1.5
	s-1.7,0.6-1.7,1.5c0,0.6,0.4,1.1,0.9,1.2c-0.6,0.2-1.1,0.7-1.1,1.4C2240.7-23.5,2241.5-22.9,2242.6-22.9 M2242.6-26.2
	c-0.6,0-1-0.4-1-0.9c0-0.5,0.4-0.9,1-0.9c0.6,0,1,0.4,1,0.9C2243.6-26.5,2243.2-26.2,2242.6-26.2z M2242.6-23.5
	c-0.7,0-1.2-0.4-1.2-1.1c0-0.6,0.5-1,1.2-1s1.2,0.4,1.2,1C2243.8-23.9,2243.3-23.5,2242.6-23.5z"/>
<path class="st20" d="M2194.6-16.6c0.6,0,0.9,0.5,1,1.1h-2.1C2193.6-16.3,2194.1-16.6,2194.6-16.6 M2196.2-15v-0.2
	c0-1.2-0.6-2-1.6-2c-1.1,0-1.8,0.9-1.8,2.1c0,1.3,0.8,2,1.9,2c0.5,0,0.9-0.1,1.2-0.4V-14c-0.4,0.3-0.7,0.4-1.1,0.4
	c-0.7,0-1.3-0.4-1.3-1.4C2193.5-15,2196.2-15,2196.2-15z"/>
<rect x="2197.2" y="-19" class="st20" width="0.7" height="5.9"/>
<polygon class="st20" points="2200.8,-13.1 2202.4,-17.1 2201.7,-17.1 2200.5,-14 2199.3,-17.1 2198.6,-17.1 2200.1,-13.1 "/>
<path class="st20" d="M2203.9-18.3c0-0.2-0.2-0.4-0.4-0.4c-0.2,0-0.4,0.2-0.4,0.4c0,0.2,0.2,0.4,0.4,0.4
	C2203.7-17.9,2203.9-18.1,2203.9-18.3 M2203.8-17.1h-0.7v4h0.7V-17.1z"/>
<path class="st20" d="M2205.8-18.3c0-0.2-0.2-0.4-0.4-0.4c-0.2,0-0.4,0.2-0.4,0.4c0,0.2,0.2,0.4,0.4,0.4
	C2205.6-17.9,2205.8-18.1,2205.8-18.3 M2205.7-17.1h-0.7v4.4c0,0.4-0.2,0.6-0.5,0.6c-0.1,0-0.2,0-0.2,0v0.6c0.1,0,0.2,0,0.3,0
	c0.8,0,1.2-0.4,1.2-1.1V-17.1z"/>
<path class="st20" d="M2206.6-13.4c0.3,0.2,0.8,0.4,1.3,0.4c0.8,0,1.5-0.4,1.5-1.2c0-0.6-0.3-0.9-0.9-1.1l-0.6-0.2
	c-0.4-0.1-0.6-0.2-0.6-0.6c0-0.3,0.3-0.5,0.8-0.5c0.5,0,0.9,0.2,1.2,0.5v-0.7c-0.3-0.2-0.7-0.4-1.2-0.4c-0.8,0-1.4,0.4-1.4,1.1
	c0,0.6,0.4,0.9,1,1.1l0.6,0.2c0.4,0.1,0.6,0.3,0.6,0.6c0,0.4-0.4,0.6-0.8,0.6c-0.5,0-0.9-0.2-1.3-0.5L2206.6-13.4L2206.6-13.4z"/>
<path class="st20" d="M2210.1-13.5c0,0.3,0.2,0.5,0.5,0.5c0.3,0,0.5-0.2,0.5-0.5s-0.2-0.5-0.5-0.5
	C2210.3-14,2210.1-13.8,2210.1-13.5"/>
<polygon class="st20" points="2214.9,-13.7 2212.7,-13.7 2214.9,-17.1 2214.9,-17.1 2211.8,-17.1 2211.8,-16.5 2213.8,-16.5 
	2211.7,-13.1 2211.7,-13.1 2214.9,-13.1 "/>
<path class="st20" d="M2216.6-18.3c0-0.2-0.2-0.4-0.4-0.4c-0.2,0-0.4,0.2-0.4,0.4c0,0.2,0.2,0.4,0.4,0.4
	C2216.4-17.9,2216.6-18.1,2216.6-18.3 M2216.5-17.1h-0.7v4h0.7V-17.1z"/>
<path class="st20" d="M2219.2-16.6c0.6,0,0.9,0.5,1,1.1h-2.1C2218.2-16.3,2218.7-16.6,2219.2-16.6 M2220.8-15v-0.2
	c0-1.2-0.6-2-1.6-2c-1.1,0-1.8,0.9-1.8,2.1c0,1.3,0.8,2,1.9,2c0.5,0,0.9-0.1,1.2-0.4V-14c-0.4,0.3-0.7,0.4-1.1,0.4
	c-0.7,0-1.3-0.4-1.3-1.4C2218.1-15,2220.8-15,2220.8-15z"/>
<path class="st20" d="M2224.4-14.3c-0.2,0.4-0.6,0.7-1,0.7c-0.8,0-1.2-0.6-1.2-1.5s0.4-1.5,1.2-1.5c0.4,0,0.8,0.2,1,0.7V-14.3z
	 M2224.4-13.1h0.7V-19h-0.7v2.3c-0.2-0.3-0.6-0.5-1.1-0.5c-1.2,0-1.8,1-1.8,2.1s0.6,2.1,1.8,2.1c0.5,0,0.9-0.3,1.1-0.6V-13.1z"/>
<path class="st20" d="M2227-18.3c0-0.2-0.2-0.4-0.4-0.4c-0.2,0-0.4,0.2-0.4,0.4c0,0.2,0.2,0.4,0.4,0.4
	C2226.8-17.9,2227-18.1,2227-18.3 M2226.9-17.1h-0.7v4h0.7V-17.1z"/>
<path class="st20" d="M2228.1-13.1h0.7v-2.7c0.1-0.4,0.6-0.8,1-0.8c0.6,0,0.9,0.4,0.9,0.9v2.5h0.7v-2.6c0-0.9-0.5-1.5-1.4-1.5
	c-0.5,0-0.9,0.3-1.2,0.6v-0.5h-0.7V-13.1z"/>
<path class="st20" d="M2232.3-13.4c0.3,0.2,0.8,0.4,1.3,0.4c0.8,0,1.5-0.4,1.5-1.2c0-0.6-0.3-0.9-0.9-1.1l-0.6-0.2
	c-0.4-0.1-0.6-0.2-0.6-0.6c0-0.3,0.3-0.5,0.8-0.5c0.5,0,0.9,0.2,1.2,0.5v-0.7c-0.3-0.2-0.7-0.4-1.2-0.4c-0.8,0-1.4,0.4-1.4,1.1
	c0,0.6,0.4,0.9,1,1.1l0.6,0.2c0.4,0.1,0.6,0.3,0.6,0.6c0,0.4-0.4,0.6-0.8,0.6c-0.5,0-0.9-0.2-1.3-0.5L2232.3-13.4L2232.3-13.4z"/>
<path class="st20" d="M2239.6-14.5c-0.2,0.3-0.4,0.5-0.8,0.5c-0.4,0-0.7-0.3-0.7-0.8c0-0.6,0.4-1.3,1.1-1.3c0.3,0,0.6,0.2,0.7,0.5
	L2239.6-14.5z M2240.6-16.5h-0.6l-0.1,0.3c-0.1-0.2-0.4-0.4-0.8-0.4c-1,0-1.6,0.9-1.6,1.9c0,0.8,0.4,1.3,1.2,1.3
	c0.4,0,0.7-0.2,0.9-0.5c0.1,0.3,0.5,0.5,0.9,0.5c0.9,0,1.8-0.7,1.8-2.2c0-1.5-1.2-2.7-3-2.7c-2,0-3.4,1.5-3.4,3.4
	c0,2.2,1.7,3.1,3.4,3.1c0.8,0,1.5-0.2,1.9-0.4v-0.5c-0.5,0.2-1.1,0.4-1.9,0.4c-1.4,0-2.9-0.7-2.9-2.6c0-1.7,1.2-2.9,2.9-2.9
	c1.4,0,2.4,0.9,2.4,2.1c0,1.1-0.5,1.7-1.1,1.7c-0.3,0-0.4-0.1-0.4-0.5L2240.6-16.5z"/>
<rect x="2243.1" y="-19" class="st20" width="0.7" height="5.9"/>
<path class="st20" d="M2245.6-15.9c0.2-0.4,0.6-0.7,1-0.7c0.8,0,1.2,0.6,1.2,1.5s-0.4,1.5-1.2,1.5c-0.4,0-0.8-0.2-1-0.7V-15.9z
	 M2245.6-13.6c0.2,0.3,0.6,0.6,1.1,0.6c1.2,0,1.8-1,1.8-2.1s-0.6-2.1-1.8-2.1c-0.5,0-0.9,0.3-1.1,0.5v-0.5h-0.7v5.5h0.7V-13.6z"/>
<polygon class="st20" points="2252.6,-17.1 2251.8,-17.1 2250.8,-15.7 2249.8,-17.1 2249,-17.1 2250.4,-15.1 2248.9,-13.1 
	2249.7,-13.1 2250.8,-14.7 2251.9,-13.1 2252.7,-13.1 2251.2,-15.2 "/>
<path class="st20" d="M2253.2-13.4c0.3,0.2,0.8,0.4,1.3,0.4c0.8,0,1.5-0.4,1.5-1.2c0-0.6-0.3-0.9-0.9-1.1l-0.6-0.2
	c-0.4-0.1-0.6-0.2-0.6-0.6c0-0.3,0.3-0.5,0.8-0.5c0.5,0,0.9,0.2,1.2,0.5v-0.7c-0.3-0.2-0.7-0.4-1.2-0.4c-0.8,0-1.4,0.4-1.4,1.1
	c0,0.6,0.4,0.9,1,1.1l0.6,0.2c0.4,0.1,0.6,0.3,0.6,0.6c0,0.4-0.4,0.6-0.8,0.6c-0.5,0-0.9-0.2-1.3-0.5L2253.2-13.4L2253.2-13.4z"/>
<path class="st20" d="M2258.4-16.6c0.6,0,0.9,0.5,1,1.1h-2.1C2257.5-16.3,2257.9-16.6,2258.4-16.6 M2260.1-15v-0.2
	c0-1.2-0.6-2-1.6-2c-1.1,0-1.8,0.9-1.8,2.1c0,1.3,0.8,2,1.9,2c0.5,0,0.9-0.1,1.2-0.4V-14c-0.4,0.3-0.7,0.4-1.1,0.4
	c-0.7,0-1.3-0.4-1.3-1.4C2257.3-15,2260.1-15,2260.1-15z"/>
<path class="st20" d="M2263-17.1c-0.1,0-0.2-0.1-0.4-0.1c-0.4,0-0.8,0.3-1,0.6v-0.5h-0.7v4h0.7v-2.7c0.1-0.5,0.5-0.8,0.9-0.8
	c0.2,0,0.3,0,0.4,0.1V-17.1z"/>
<polygon class="st20" points="2265.6,-13.1 2267.2,-17.1 2266.5,-17.1 2265.3,-14 2264.2,-17.1 2263.4,-17.1 2265,-13.1 "/>
<path class="st20" d="M2268.7-18.3c0-0.2-0.2-0.4-0.4-0.4c-0.2,0-0.4,0.2-0.4,0.4c0,0.2,0.2,0.4,0.4,0.4
	C2268.6-17.9,2268.7-18.1,2268.7-18.3 M2268.6-17.1h-0.7v4h0.7V-17.1z"/>
<path class="st20" d="M2269.6-13.4c0.3,0.2,0.8,0.4,1.3,0.4c0.8,0,1.5-0.4,1.5-1.2c0-0.6-0.3-0.9-0.9-1.1l-0.6-0.2
	c-0.4-0.1-0.6-0.2-0.6-0.6c0-0.3,0.3-0.5,0.8-0.5c0.5,0,0.9,0.2,1.2,0.5v-0.7c-0.3-0.2-0.7-0.4-1.2-0.4c-0.8,0-1.4,0.4-1.4,1.1
	c0,0.6,0.4,0.9,1,1.1l0.6,0.2c0.4,0.1,0.6,0.3,0.6,0.6c0,0.4-0.4,0.6-0.8,0.6c-0.5,0-0.9-0.2-1.3-0.5L2269.6-13.4L2269.6-13.4z"/>
<path class="st20" d="M2273.1-13.4c0.3,0.2,0.8,0.4,1.3,0.4c0.8,0,1.5-0.4,1.5-1.2c0-0.6-0.3-0.9-0.9-1.1l-0.6-0.2
	c-0.4-0.1-0.6-0.2-0.6-0.6c0-0.3,0.3-0.5,0.8-0.5c0.5,0,0.9,0.2,1.2,0.5v-0.7c-0.3-0.2-0.7-0.4-1.2-0.4c-0.8,0-1.4,0.4-1.4,1.1
	c0,0.6,0.4,0.9,1,1.1l0.6,0.2c0.4,0.1,0.6,0.3,0.6,0.6c0,0.4-0.4,0.6-0.8,0.6c-0.5,0-0.9-0.2-1.3-0.5L2273.1-13.4L2273.1-13.4z"/>
<path class="st20" d="M2276.6-13.5c0,0.3,0.2,0.5,0.5,0.5c0.3,0,0.5-0.2,0.5-0.5s-0.2-0.5-0.5-0.5
	C2276.8-14,2276.6-13.8,2276.6-13.5"/>
<rect x="2278.5" y="-19" class="st20" width="0.7" height="5.9"/>
<polygon class="st20" points="2282.1,-13.1 2283.7,-17.1 2283,-17.1 2281.8,-14 2280.6,-17.1 2279.9,-17.1 2281.4,-13.1 "/>
<path class="st20" d="M2085.2-23.4c0.4,0.3,1,0.5,1.7,0.5c1.1,0,1.9-0.6,1.9-1.5c0-0.8-0.4-1.2-1.2-1.5l-0.9-0.3
	c-0.5-0.2-0.8-0.4-0.8-0.9c0-0.5,0.5-0.8,1.1-0.8c0.6,0,1.1,0.2,1.6,0.6v-0.8c-0.4-0.3-1-0.5-1.6-0.5c-0.9,0-1.8,0.5-1.8,1.5
	c0,0.9,0.6,1.2,1.2,1.5l0.8,0.3c0.6,0.2,0.9,0.4,0.9,0.9c0,0.6-0.5,0.9-1.2,0.9c-0.6,0-1.2-0.2-1.7-0.6L2085.2-23.4L2085.2-23.4z"/>
<rect x="2089.9" y="-28.5" class="st20" width="0.7" height="5.5"/>
<path class="st20" d="M2093.9-27.6l0.9,2.4h-1.8L2093.9-27.6z M2093.6-28.5l-2.2,5.5h0.7l0.6-1.7h2.3l0.6,1.7h0.7l-2.2-5.5H2093.6z"
	/>
<path class="st20" d="M2101.3-28.5h-0.5l-0.5,0.8c-0.1,0.2-0.2,0.4-0.2,0.6c0,0.3,0.2,0.5,0.5,0.5s0.5-0.2,0.5-0.5
	c0-0.3-0.2-0.4-0.4-0.5L2101.3-28.5z M2099.9-28.5h-0.5l-0.5,0.8c-0.1,0.2-0.2,0.4-0.2,0.6c0,0.3,0.2,0.5,0.5,0.5s0.5-0.2,0.5-0.5
	c0-0.3-0.2-0.4-0.4-0.5L2099.9-28.5z"/>
<polygon class="st20" points="2102.1,-23 2105.6,-23 2105.6,-23.6 2102.8,-23.6 2102.8,-28.5 2102.1,-28.5 "/>
<path class="st20" d="M2109.9-26.8c0,0.6-0.4,1-1.1,1h-1.3v-2.1h1.3C2109.4-27.9,2109.9-27.5,2109.9-26.8 M2108.7-25.2
	c1.1,0,1.9-0.6,1.9-1.7c0-1.1-0.7-1.7-1.9-1.7h-2v5.5h0.7v-2.2C2107.4-25.2,2108.7-25.2,2108.7-25.2z"/>
<polygon class="st20" points="2115.6,-28.5 2114.8,-28.5 2113.3,-26.3 2111.8,-28.5 2111,-28.5 2112.9,-25.8 2110.9,-23 2111.7,-23 
	2113.3,-25.2 2114.8,-23 2115.6,-23 2113.7,-25.8 "/>
<path class="st20" d="M2118.1-23.4c0.4,0.3,1,0.5,1.7,0.5c1.1,0,1.9-0.6,1.9-1.5c0-0.8-0.4-1.2-1.2-1.5l-0.9-0.3
	c-0.5-0.2-0.8-0.4-0.8-0.9c0-0.5,0.5-0.8,1.1-0.8c0.6,0,1.1,0.2,1.6,0.6v-0.8c-0.4-0.3-1-0.5-1.6-0.5c-0.9,0-1.8,0.5-1.8,1.5
	c0,0.9,0.6,1.2,1.2,1.5l0.8,0.3c0.6,0.2,0.9,0.4,0.9,0.9c0,0.6-0.5,0.9-1.2,0.9c-0.6,0-1.2-0.2-1.7-0.6V-23.4z"/>
<polygon class="st20" points="2122.8,-28.5 2122.8,-23 2126.3,-23 2126.3,-23.6 2123.5,-23.6 2123.5,-25.5 2126,-25.5 2126,-26.1 
	2123.5,-26.1 2123.5,-27.9 2126.3,-27.9 2126.3,-28.5 "/>
<path class="st20" d="M2128.1-27.9h1.3c0.7,0,1.1,0.4,1.1,1s-0.4,1-1.1,1h-1.3V-27.9z M2129.1-25.3l1.6,2.3h0.8l-1.6-2.4
	c0.9-0.1,1.4-0.6,1.4-1.6c0-1-0.7-1.6-1.8-1.6h-2v5.5h0.7v-2.3C2128.1-25.3,2129.1-25.3,2129.1-25.3z"/>
<polygon class="st20" points="2134.6,-23 2136.8,-28.5 2136,-28.5 2134.3,-23.9 2132.6,-28.5 2131.8,-28.5 2134,-23 "/>
<rect x="2137.6" y="-28.5" class="st20" width="0.7" height="5.5"/>
<path class="st20" d="M2139.3-23.4c0.4,0.3,1,0.5,1.7,0.5c1.1,0,1.9-0.6,1.9-1.5c0-0.8-0.4-1.2-1.2-1.5l-0.9-0.3
	c-0.5-0.2-0.8-0.4-0.8-0.9c0-0.5,0.5-0.8,1.1-0.8c0.6,0,1.1,0.2,1.6,0.6v-0.8c-0.4-0.3-1-0.5-1.6-0.5c-0.9,0-1.8,0.5-1.8,1.5
	c0,0.9,0.6,1.2,1.2,1.5l0.8,0.3c0.6,0.2,0.9,0.4,0.9,0.9c0,0.6-0.5,0.9-1.2,0.9c-0.6,0-1.2-0.2-1.7-0.6V-23.4z"/>
<path class="st20" d="M2143.7-23.4c0.4,0.3,1,0.5,1.7,0.5c1.1,0,1.9-0.6,1.9-1.5c0-0.8-0.4-1.2-1.2-1.5l-0.9-0.3
	c-0.5-0.2-0.8-0.4-0.8-0.9c0-0.5,0.5-0.8,1.1-0.8c0.6,0,1.1,0.2,1.6,0.6v-0.8c-0.4-0.3-1-0.5-1.6-0.5c-0.9,0-1.8,0.5-1.8,1.5
	c0,0.9,0.6,1.2,1.2,1.5l0.8,0.3c0.6,0.2,0.9,0.4,0.9,0.9c0,0.6-0.5,0.9-1.2,0.9c-0.6,0-1.2-0.2-1.7-0.6V-23.4z"/>
<path class="st20" d="M2149.2-26.7h0.5l0.5-0.8c0.1-0.2,0.2-0.4,0.2-0.6c0-0.3-0.2-0.5-0.5-0.5s-0.5,0.2-0.5,0.5
	c0,0.3,0.2,0.4,0.4,0.5L2149.2-26.7z M2147.8-26.7h0.5l0.5-0.8c0.1-0.2,0.2-0.4,0.2-0.6c0-0.3-0.2-0.5-0.5-0.5s-0.5,0.2-0.5,0.5
	c0,0.3,0.2,0.4,0.4,0.5L2147.8-26.7z"/>
<polygon class="st20" points="2088,-17.1 2087.4,-17.1 2086.6,-14.1 2085.7,-17.1 2085,-17.1 2086.2,-13.1 2086.9,-13.1 
	2087.7,-16.1 2088.5,-13.1 2089.2,-13.1 2090.4,-17.1 2089.7,-17.1 2088.8,-14.1 "/>
<polygon class="st20" points="2093.7,-17.1 2093.1,-17.1 2092.3,-14.1 2091.4,-17.1 2090.7,-17.1 2091.9,-13.1 2092.5,-13.1 
	2093.4,-16.1 2094.2,-13.1 2094.9,-13.1 2096,-17.1 2095.4,-17.1 2094.5,-14.1 "/>
<polygon class="st20" points="2099.3,-17.1 2098.7,-17.1 2097.9,-14.1 2097,-17.1 2096.4,-17.1 2097.5,-13.1 2098.2,-13.1 
	2099,-16.1 2099.9,-13.1 2100.5,-13.1 2101.7,-17.1 2101,-17.1 2100.1,-14.1 "/>
<path class="st20" d="M2101.9-13.5c0,0.3,0.2,0.5,0.5,0.5c0.3,0,0.5-0.2,0.5-0.5s-0.2-0.5-0.5-0.5
	C2102.1-14,2101.9-13.8,2101.9-13.5"/>
<rect x="2103.7" y="-19" class="st20" width="0.7" height="5.9"/>
<path class="st20" d="M2106.3-15.9c0.2-0.4,0.6-0.7,1-0.7c0.8,0,1.2,0.6,1.2,1.5s-0.4,1.5-1.2,1.5c-0.4,0-0.8-0.2-1-0.7V-15.9z
	 M2106.3-13.6c0.2,0.3,0.6,0.6,1.1,0.6c1.2,0,1.8-1,1.8-2.1s-0.6-2.1-1.8-2.1c-0.5,0-0.9,0.3-1.1,0.5v-0.5h-0.7v5.5h0.7V-13.6z"/>
<polygon class="st20" points="2113.2,-17.1 2112.5,-17.1 2111.5,-15.7 2110.4,-17.1 2109.7,-17.1 2111.1,-15.1 2109.6,-13.1 
	2110.3,-13.1 2111.4,-14.7 2112.6,-13.1 2113.3,-13.1 2111.8,-15.2 "/>
<path class="st20" d="M2113.8-13.4c0.3,0.2,0.8,0.4,1.3,0.4c0.8,0,1.5-0.4,1.5-1.2c0-0.6-0.3-0.9-0.9-1.1l-0.6-0.2
	c-0.4-0.1-0.6-0.2-0.6-0.6c0-0.3,0.3-0.5,0.8-0.5c0.5,0,0.9,0.2,1.2,0.5v-0.7c-0.3-0.2-0.7-0.4-1.2-0.4c-0.8,0-1.4,0.4-1.4,1.1
	c0,0.6,0.4,0.9,1,1.1l0.6,0.2c0.4,0.1,0.6,0.3,0.6,0.6c0,0.4-0.4,0.6-0.8,0.6c-0.5,0-0.9-0.2-1.3-0.5L2113.8-13.4L2113.8-13.4z"/>
<path class="st20" d="M2119.1-16.6c0.6,0,0.9,0.5,1,1.1h-2.1C2118.1-16.3,2118.6-16.6,2119.1-16.6 M2120.7-15v-0.2
	c0-1.2-0.6-2-1.6-2c-1.1,0-1.8,0.9-1.8,2.1c0,1.3,0.8,2,1.9,2c0.5,0,0.9-0.1,1.2-0.4V-14c-0.4,0.3-0.7,0.4-1.1,0.4
	c-0.7,0-1.3-0.4-1.3-1.4C2118-15,2120.7-15,2120.7-15z"/>
<path class="st20" d="M2123.7-17.1c-0.1,0-0.2-0.1-0.4-0.1c-0.4,0-0.8,0.3-1,0.6v-0.5h-0.7v4h0.7v-2.7c0.1-0.5,0.5-0.8,0.9-0.8
	c0.2,0,0.3,0,0.4,0.1V-17.1z"/>
<polygon class="st20" points="2126.3,-13.1 2127.9,-17.1 2127.1,-17.1 2126,-14 2124.8,-17.1 2124.1,-17.1 2125.6,-13.1 "/>
<path class="st20" d="M2129.4-18.3c0-0.2-0.2-0.4-0.4-0.4c-0.2,0-0.4,0.2-0.4,0.4c0,0.2,0.2,0.4,0.4,0.4
	C2129.2-17.9,2129.4-18.1,2129.4-18.3 M2129.3-17.1h-0.7v4h0.7V-17.1z"/>
<path class="st20" d="M2130.3-13.4c0.3,0.2,0.8,0.4,1.3,0.4c0.8,0,1.5-0.4,1.5-1.2c0-0.6-0.3-0.9-0.9-1.1l-0.6-0.2
	c-0.4-0.1-0.6-0.2-0.6-0.6c0-0.3,0.3-0.5,0.8-0.5c0.5,0,0.9,0.2,1.2,0.5v-0.7c-0.3-0.2-0.7-0.4-1.2-0.4c-0.8,0-1.4,0.4-1.4,1.1
	c0,0.6,0.4,0.9,1,1.1l0.6,0.2c0.4,0.1,0.6,0.3,0.6,0.6c0,0.4-0.4,0.6-0.8,0.6c-0.5,0-0.9-0.2-1.3-0.5L2130.3-13.4L2130.3-13.4z"/>
<path class="st20" d="M2133.8-13.4c0.3,0.2,0.8,0.4,1.3,0.4c0.8,0,1.5-0.4,1.5-1.2c0-0.6-0.3-0.9-0.9-1.1l-0.6-0.2
	c-0.4-0.1-0.6-0.2-0.6-0.6c0-0.3,0.3-0.5,0.8-0.5c0.5,0,0.9,0.2,1.2,0.5v-0.7c-0.3-0.2-0.7-0.4-1.2-0.4c-0.8,0-1.4,0.4-1.4,1.1
	c0,0.6,0.4,0.9,1,1.1l0.6,0.2c0.4,0.1,0.6,0.3,0.6,0.6c0,0.4-0.4,0.6-0.8,0.6c-0.5,0-0.9-0.2-1.3-0.5L2133.8-13.4L2133.8-13.4z"/>
<path class="st20" d="M2137.3-13.5c0,0.3,0.2,0.5,0.5,0.5c0.3,0,0.5-0.2,0.5-0.5s-0.2-0.5-0.5-0.5
	C2137.5-14,2137.3-13.8,2137.3-13.5"/>
<rect x="2139.1" y="-19" class="st20" width="0.7" height="5.9"/>
<polygon class="st20" points="2142.8,-13.1 2144.3,-17.1 2143.6,-17.1 2142.4,-14 2141.3,-17.1 2140.6,-17.1 2142.1,-13.1 "/>
<rect x="2077.3" y="-28.6" class="st17" width="2.2" height="15.5"/>
<path class="st4" d="M2131.7,86.9c2.1,2,3.2,4.8,3.2,7.6c0,4.3-3.3,7.2-8.3,7.6v-2.6c3-0.3,5.8-1.8,5.8-5.1c0-3.2-1.4-4.9-3-6.4
	c0.8-0.3,1.5-0.6,2.2-1.1C2131.5,87.1,2131.6,87,2131.7,86.9"/>
<path class="st4" d="M2125.9,67.7h1.3h0.6v6.6l0,0v6.9c0,0.7,0.1,1.3,0.4,1.9c-0.6,0.3-1.3,0.5-2,0.6c-0.1,0-0.3,0-0.5,0
	c-0.3-0.8-0.5-1.7-0.4-2.6V68.3v0v-0.6H2125.9z"/>
<path class="st4" d="M2129.1,70.8c3.6,1.1,5.8,3.7,5.8,7.2c0,2.3-1,6-4.1,8.1c-1.6,1-3.5,1.5-5.4,1.5c-1.3,0-2.6,0.3-3.8,0.8
	c-1.1,0.6-1.9,1.5-2.4,2.6c-0.6,1.1-0.9,2.4-0.9,3.7c0,2.3,1.4,3.7,3.2,4.4v2.7c-3.6-1.1-5.8-3.7-5.8-7.2c0-2.3,1-6,4.1-8.1
	c3.2-2.1,5.8-1,8.2-1.9c0.3-0.1,0.7-0.3,1-0.4c1-0.6,1.9-1.4,2.4-2.5c0.6-1.1,0.9-2.4,0.9-3.7c0-2.3-1.4-3.7-3.2-4.4L2129.1,70.8
	L2129.1,70.8z"/>
<path class="st4" d="M2123.9,70.3v2.6c-3,0.3-5.8,1.8-5.8,5.1c0,3.2,1.4,4.9,3,6.4c-0.8,0.3-1.5,0.6-2.2,1.1
	c-0.1,0.1-0.1,0.1-0.2,0.2c-2.1-2-3.2-4.8-3.2-7.6C2115.6,73.7,2118.9,70.7,2123.9,70.3"/>
<path class="st4" d="M2124.8,88.8L2124.8,88.8c0.3,0.8,0.5,1.7,0.4,2.5v10.6v2.3v0.6h-0.6h-1.3h-0.6v-0.6V91.4
	c0-0.7-0.1-1.3-0.4-1.9c0.6-0.3,1.3-0.5,2.1-0.6C2124.4,88.9,2124.6,88.8,2124.8,88.8"/>
<polygon class="st4" points="2145,92.3 2153.6,92.3 2153.6,89.6 2148.1,89.6 2148.1,80.2 2145,80.2 "/>
<path class="st4" d="M2161.6,84.4c0,0.9-0.5,1.5-1.6,1.5h-1.8v-3h1.8C2161.1,82.9,2161.6,83.5,2161.6,84.4 M2160.3,88.5
	c2.6,0,4.4-1.5,4.4-4.1c0-2.7-1.8-4.2-4.4-4.2h-5.3v12.1h3.1v-3.8L2160.3,88.5L2160.3,88.5z"/>
<polygon class="st4" points="2176.2,80.2 2172.7,80.2 2170.5,83.7 2168.3,80.2 2164.8,80.2 2168.7,86.1 2164.6,92.3 2168.1,92.3 
	2170.4,88.6 2172.8,92.3 2176.4,92.3 2172.3,86.1 "/>
<path class="st4" d="M2181.6,91.3c0.8,0.7,2.2,1.1,3.8,1.1c2.3,0,4.1-1.2,4.1-3.3c0-1.7-0.8-2.6-2.7-3.3l-1.9-0.8
	c-1.1-0.4-1.8-0.9-1.8-1.9c0-1.2,1-1.8,2.4-1.8c1.4,0,2.5,0.5,3.4,1.3V81c-0.9-0.6-2.1-1-3.5-1c-2.1,0-3.9,1.1-3.9,3.2
	c0,1.9,1.3,2.7,2.7,3.3l1.8,0.7c1.3,0.5,1.9,1,1.9,2c0,1.2-1,1.9-2.6,1.9c-1.4,0-2.7-0.4-3.8-1.4L2181.6,91.3L2181.6,91.3z"/>
<polygon class="st4" points="2191.6,80.2 2191.6,92.3 2199.3,92.3 2199.3,90.9 2193.2,90.9 2193.2,86.8 2198.7,86.8 2198.7,85.4 
	2193.2,85.4 2193.2,81.6 2199.3,81.6 2199.3,80.2 "/>
<path class="st4" d="M2203.3,81.6h2.8c1.6,0,2.5,0.8,2.5,2.1s-0.9,2.1-2.5,2.1h-2.8V81.6z M2205.4,87.2l3.5,5.1h1.8l-3.6-5.2
	c1.9-0.3,3.1-1.4,3.1-3.4c0-2.3-1.6-3.5-4-3.5h-4.4v12.1h1.6v-5.1H2205.4z"/>
<polygon class="st4" points="2217.5,92.3 2222.2,80.2 2220.6,80.2 2216.8,90.2 2213.1,80.2 2211.4,80.2 2216.1,92.3 "/>
<rect x="2224" y="80.2" class="st4" width="1.6" height="12.1"/>
<path class="st4" d="M2227.8,91.3c0.8,0.7,2.2,1.1,3.8,1.1c2.3,0,4.1-1.2,4.1-3.3c0-1.7-0.8-2.6-2.7-3.3l-1.9-0.8
	c-1.1-0.4-1.8-0.9-1.8-1.9c0-1.2,1-1.8,2.4-1.8c1.4,0,2.5,0.5,3.4,1.3V81c-0.9-0.6-2.1-1-3.5-1c-2.1,0-3.9,1.1-3.9,3.2
	c0,1.9,1.3,2.7,2.7,3.3l1.8,0.7c1.3,0.5,1.9,1,1.9,2c0,1.2-1,1.9-2.6,1.9c-1.4,0-2.7-0.4-3.8-1.4L2227.8,91.3L2227.8,91.3z"/>
<path class="st4" d="M2237.3,91.3c0.8,0.7,2.2,1.1,3.8,1.1c2.3,0,4.1-1.2,4.1-3.3c0-1.7-0.8-2.6-2.7-3.3l-1.9-0.8
	c-1.1-0.4-1.8-0.9-1.8-1.9c0-1.2,1-1.8,2.4-1.8c1.4,0,2.5,0.5,3.4,1.3V81c-0.9-0.6-2.1-1-3.5-1c-2.1,0-3.9,1.1-3.9,3.2
	c0,1.9,1.3,2.7,2.7,3.3l1.8,0.7c1.3,0.5,1.9,1,1.9,2c0,1.2-1,1.9-2.6,1.9c-1.4,0-2.7-0.4-3.8-1.4L2237.3,91.3L2237.3,91.3z"/>
<rect x="2302.3" y="-119.4" class="st17" width="5.6" height="106.2"/>
<rect x="2302.3" y="33.2" class="st18" width="5.6" height="106.2"/>
<g>
	<path class="st19" d="M3007.2-33.6c3.6,3.4,5.6,8.2,5.5,13.1c0,7.3-5.7,12.4-14.3,13.1v-4.4c5.1-0.5,9.9-3,9.9-8.7
		c0-5.6-2.4-8.4-5.2-11c1.3-0.5,2.6-1.1,3.7-1.8C3006.9-33.4,3007.1-33.5,3007.2-33.6"/>
	<path class="st19" d="M2997.2-66.8h2.2h1.1v11.3l0,0v11.9c0,1.1,0.2,2.3,0.7,3.3c-1.1,0.6-2.3,0.9-3.5,1c-0.2,0-0.5,0-0.8,0.1
		c-0.5-1.4-0.8-2.9-0.8-4.4v-22.1v0v-1.1L2997.2-66.8L2997.2-66.8z"/>
	<path class="st19" d="M3002.7-61.5c6.1,1.8,9.9,6.3,9.9,12.3c0,4-1.7,10.4-7.1,14c-2.8,1.8-6,2.7-9.3,2.6c-2.3-0.1-4.5,0.4-6.5,1.5
		c-1.8,1-3.3,2.5-4.2,4.4c-1,2-1.5,4.1-1.6,6.3c0,4,2.4,6.4,5.5,7.7v4.6c-6.1-1.8-9.9-6.3-9.9-12.3c0-4,1.7-10.4,7.1-14
		c5.5-3.6,10-1.8,14.2-3.3c0.6-0.2,1.2-0.5,1.7-0.8c1.8-1,3.2-2.5,4.1-4.3c1-2,1.5-4.1,1.6-6.3c0-4-2.4-6.4-5.5-7.7V-61.5z"/>
	<path class="st19" d="M2993.9-62.3v4.4c-5.1,0.5-9.9,3-9.9,8.7c0,5.6,2.4,8.4,5.2,11c-1.3,0.5-2.6,1.1-3.7,1.8
		c-0.1,0.1-0.3,0.2-0.4,0.3c-3.6-3.4-5.6-8.2-5.5-13.2C2979.6-56.5,2985.2-61.6,2993.9-62.3"/>
	<path class="st19" d="M2995.3-30.4L2995.3-30.4c0.5,1.4,0.8,2.9,0.8,4.4v18.2v3.9v1.1h-1.1h-2.2h-1.1v-1.1V-26
		c0-1.1-0.2-2.3-0.7-3.3c1.1-0.6,2.3-0.9,3.5-1C2994.7-30.3,2995-30.4,2995.3-30.4"/>
</g>
<rect x="-78.8" y="-284.9" class="st0" width="178" height="68.5"/>
<path class="st1" d="M-47.3-249.9c2.5,2.4,3.9,5.7,3.8,9.2c0,5.1-4,8.6-10,9.2v-3.1c3.6-0.4,6.9-2.1,6.9-6.1c0-3.9-1.7-5.8-3.6-7.7
	c0.9-0.3,1.8-0.8,2.6-1.3C-47.5-249.7-47.4-249.8-47.3-249.9"/>
<path class="st1" d="M-54.2-273h1.5h0.8v7.9l0,0v8.3c0,0.8,0.2,1.6,0.5,2.3c-0.8,0.4-1.6,0.6-2.4,0.7c-0.1,0-0.3,0-0.6,0.1
	c-0.4-1-0.5-2-0.5-3.1v-15.4v0v-0.8L-54.2-273L-54.2-273z"/>
<path class="st1" d="M-50.4-269.3c4.3,1.3,6.9,4.4,6.9,8.6c0,2.8-1.2,7.3-4.9,9.7c-1.9,1.2-4.2,1.8-6.5,1.8c-1.6-0.1-3.1,0.3-4.5,1
	c-1.3,0.7-2.3,1.8-2.9,3.1c-0.7,1.4-1.1,2.9-1.1,4.4c0,2.8,1.6,4.4,3.8,5.3v3.2c-4.3-1.3-6.9-4.4-6.9-8.6c0-2.8,1.2-7.3,4.9-9.7
	c3.8-2.5,7-1.2,9.9-2.3c0.4-0.1,0.8-0.3,1.2-0.5c1.2-0.7,2.2-1.8,2.9-3c0.7-1.4,1.1-2.9,1.1-4.4c0-2.8-1.6-4.5-3.8-5.3
	C-50.4-266-50.4-269.3-50.4-269.3z"/>
<path class="st1" d="M-56.5-269.8v3.1c-3.6,0.4-6.9,2.1-6.9,6.1c0,3.9,1.7,5.8,3.6,7.7c-0.9,0.3-1.8,0.8-2.6,1.3
	c-0.1,0.1-0.2,0.1-0.3,0.2c-2.5-2.4-3.9-5.7-3.8-9.2C-66.5-265.8-62.6-269.3-56.5-269.8"/>
<path class="st2" d="M79.6-244.6c1,0.8,2.6,1.3,4.6,1.3c2.8,0,4.9-1.5,4.9-4c0-2-1-3.2-3.2-4l-2.3-0.9c-1.3-0.5-2.2-1-2.2-2.3
	c0-1.4,1.3-2.1,2.8-2.1c1.7,0,3,0.6,4.1,1.5v-2c-1.1-0.8-2.6-1.2-4.2-1.2c-2.5,0-4.6,1.3-4.6,3.8c0,2.3,1.6,3.3,3.3,3.9l2.1,0.8
	c1.5,0.6,2.3,1.2,2.3,2.4c0,1.5-1.2,2.3-3.1,2.3c-1.7,0-3.2-0.5-4.6-1.7L79.6-244.6L79.6-244.6z M68.2-244.6c1,0.8,2.6,1.3,4.6,1.3
	c2.8,0,4.9-1.5,4.9-4c0-2-1-3.2-3.2-4l-2.3-0.9c-1.3-0.5-2.2-1-2.2-2.3c0-1.4,1.3-2.1,2.8-2.1c1.7,0,3,0.6,4.1,1.5v-2
	c-1.1-0.8-2.6-1.2-4.2-1.2c-2.5,0-4.6,1.3-4.6,3.8c0,2.3,1.6,3.3,3.3,3.9l2.1,0.8c1.5,0.6,2.3,1.2,2.3,2.4c0,1.5-1.2,2.3-3.1,2.3
	c-1.7,0-3.2-0.5-4.6-1.7L68.2-244.6L68.2-244.6z M65.5-257.9h-1.9v14.5h1.9V-257.9z M55.8-243.4l5.6-14.5h-1.9l-4.5,12l-4.5-12h-2
	l5.6,14.5H55.8z M38.7-256.3h3.4c1.9,0,3,1,3,2.6s-1.1,2.6-3,2.6h-3.4V-256.3z M41.3-249.6l4.2,6.1h2.1l-4.3-6.2
	c2.3-0.3,3.7-1.7,3.7-4.1c0-2.7-1.9-4.2-4.8-4.2h-5.3v14.5h1.9v-6.1H41.3z M24.7-257.9v14.5h9.2v-1.7h-7.4v-4.9h6.7v-1.6h-6.7v-4.6
	h7.4v-1.6L24.7-257.9L24.7-257.9z M12.6-244.6c1,0.8,2.6,1.3,4.6,1.3c2.8,0,4.9-1.5,4.9-4c0-2-1-3.2-3.2-4l-2.3-0.9
	c-1.3-0.5-2.2-1-2.2-2.3c0-1.4,1.3-2.1,2.9-2.1c1.7,0,3,0.6,4.1,1.5v-2c-1.1-0.8-2.6-1.2-4.1-1.2c-2.5,0-4.6,1.3-4.6,3.8
	c0,2.3,1.6,3.3,3.3,3.9l2.1,0.8c1.5,0.6,2.3,1.2,2.3,2.4c0,1.5-1.2,2.3-3.1,2.3c-1.7,0-3.2-0.5-4.6-1.7L12.6-244.6L12.6-244.6z
	 M6.1-257.9H2l-2.7,4.1l-2.6-4.1h-4.2l4.7,7.1l-4.9,7.4h4.1l2.9-4.5l2.9,4.5h4.2l-4.9-7.4L6.1-257.9z M-11.3-252.9
	c0,1.1-0.6,1.8-2,1.8h-2.2v-3.6h2.2C-11.9-254.7-11.3-254-11.3-252.9z M-12.9-247.9c3.1,0,5.3-1.8,5.3-5c0-3.2-2.1-5-5.3-5h-6.3
	v14.5h3.8v-4.5H-12.9z M-31.3-243.4H-21v-3.3h-6.5v-11.2h-3.8V-243.4z"/>
</svg>
